<?xml version="1.0" standalone="no"?>
<!DOCTYPE svg PUBLIC "-//W3C//DTD SVG 1.1//EN" "http://www.w3.org/Graphics/SVG/1.1/DTD/svg11.dtd" >
<svg>
<font id="aijSquare" horiz-adv-x="36" >
<font-face units-per-em="100" ascent="80" descent="-20" />
<glyph unicode=" " horiz-adv-x="36" d="" />
<glyph unicode="!" horiz-adv-x="118" d="M108 63 L108 45 L108 27 L90 27 L90 9 L72 9 L72 27 L54 27 L36 27 L36 9 L18 9 L18 27 L0 27 L0 45 L0 63 L18 63 L18 45 L36 45 L36 63 L18 63 L18 81 L36 81 L36 99 L54 99 L72 99 L72 81 L90 81 L90 63 L72 63 L72 45 L90 45 L90 63 L108 63 zM54 9 L72 9 L72 -9 L54 -9 L36 -9 L36 9 L54 9 z" />
<glyph unicode="&#x22;" horiz-adv-x="73" d="M63 72 L63 54 L58.5 54 L58.5 36 L40.5 36 L40.5 54 L36 54 L36 72 L45 72 L54 72 L63 72 zM18 72 L27 72 L27 54 L22.5 54 L22.5 36 L4.5 36 L4.5 54 L0 54 L0 72 L9 72 L18 72 z" />
<glyph unicode="#" horiz-adv-x="73" d="M63 45 L54 45 L54 36 L63 36 L63 18 L54 18 L54 9 L36 9 L36 18 L27 18 L27 9 L9 9 L9 18 L0 18 L0 36 L9 36 L9 45 L0 45 L0 63 L9 63 L9 72 L27 72 L27 63 L36 63 L36 72 L54 72 L54 63 L63 63 C63 57 63 51 63 45 zM27 45 L27 36 L36 36 L36 45 C33 45 30 45 27 45 z" />
<glyph unicode="$" horiz-adv-x="55" d="M18 45 L18 36 L27 36 L36 36 L36 27 L45 27 L45 18 L45 9 L45 0 L36 0 L36 -9 L27 -9 L27 -18 L9 -18 L9 -9 L0 -9 L0 9 L18 9 L27 9 L27 18 L18 18 L9 18 L9 27 L0 27 L0 36 L0 45 L0 54 L9 54 L9 63 L18 63 L18 72 L36 72 L36 63 L45 63 L45 45 L27 45 L18 45 z" />
<glyph unicode="%" horiz-adv-x="109" d="M54 27 L54 9 L45 9 L45 -9 L27 -9 L27 9 L36 9 L36 27 L45 27 L45 45 L54 45 L54 63 L72 63 L72 45 L63 45 L63 27 L54 27 zM81 18 L99 18 L99 0 L90 0 L90 -18 L72 -18 L72 -9 L54 -9 L54 9 L63 9 L63 27 L81 27 C81 24 81 21 81 18 zM72 0 L81 0 L81 9 L72 9 C72 6 72 3 72 0 zM45 45 L36 45 L36 27 L18 27 L18 36 L0 36 L0 54 L9 54 L9 72 L27 72 L27 63 L45 63 C45 57 45 51 45 45 zM18 45 L27 45 L27 54 L18 54 C18 51 18 48 18 45 z" />
<glyph unicode="&#x26;" horiz-adv-x="73" d="M27 18 L45 18 L45 9 L63 9 L63 -9 L45 -9 L45 0 L36 0 L36 -9 L27 -9 L18 -9 L9 -9 L9 0 L0 0 L0 9 L0 18 L0 27 L9 27 L9 36 L0 36 L0 54 L9 54 L9 72 L27 72 L27 63 L45 63 L45 45 L36 45 L36 27 L27 27 L27 18 L18 18 L18 9 L27 9 C27 12 27 15 27 18 zM27 54 L18 54 L18 45 L27 45 C27 48 27 51 27 54 zM45 36 L63 36 L63 18 L45 18 L45 36 z" />
<glyph unicode="'" horiz-adv-x="37" d="M27 72 L27 54 L22.5 54 L22.5 36 L4.5 36 L4.5 54 L0 54 L0 72 L9 72 L18 72 L27 72 z" />
<glyph unicode="(" horiz-adv-x="46" d="M18 18 L36 18 L36 0 L18 0 L18 18 zM9 27 L27 27 L27 9 L9 9 L9 27 zM9 63 L27 63 L27 45 L9 45 L9 63 zM18 72 L36 72 L36 54 L18 54 L18 72 zM0 36 L18 36 L18 18 L0 18 L0 36 zM0 54 L18 54 L18 36 L0 36 L0 54 z" />
<glyph unicode=")" horiz-adv-x="45.76829" d="M18 0 L0 0 L0 18 L18 18 L18 0 zM27 9 L9 9 L9 27 L27 27 L27 9 zM27 45 L9 45 L9 63 L27 63 L27 45 zM18 54 L0 54 L0 72 L18 72 L18 54 zM36 18 L18 18 L18 36 L36 36 L36 18 zM36 36 L18 36 L18 54 L36 54 L36 36 z" />
<glyph unicode="*" horiz-adv-x="118" d="M108 63 L108 45 L108 27 L90 27 L90 9 L72 9 L72 27 L54 27 L36 27 L36 9 L18 9 L18 27 L0 27 L0 45 L0 63 L18 63 L18 45 L36 45 L36 63 L18 63 L18 81 L36 81 L36 99 L54 99 L72 99 L72 81 L90 81 L90 63 L72 63 L72 45 L90 45 L90 63 L108 63 zM54 9 L72 9 L72 -9 L54 -9 L36 -9 L36 9 L54 9 z" />
<glyph unicode="+" horiz-adv-x="64" d="M54 46 L54 28 L36 28 L36 10 L18 10 L18 28 L0 28 L0 46 L18 46 L18 64 L36 64 L36 46 L54 46 z" />
<glyph unicode="," horiz-adv-x="37" d="M9 18 L27 18 L27 0 L9 0 L9 18 zM0 9 L18 9 L18 -9 L0 -9 L0 9 z" />
<glyph unicode="-" horiz-adv-x="37" d="M27 36 L27 18 L18 18 L9 18 L0 18 L0 36 L9 36 L18 36 L27 36 z" />
<glyph unicode="." horiz-adv-x="29" d="M0 19 L19 19 L19 0 L0 0 L0 19 z" />
<glyph unicode="/" horiz-adv-x="55" d="M0 18 L18 18 L18 0 L0 0 L0 18 zM9 36 L27 36 L27 18 L9 18 L9 36 zM18 54 L36 54 L36 36 L18 36 L18 54 zM27 72 L45 72 L45 54 L27 54 L27 72 z" />
<glyph unicode="0" horiz-adv-x="82" d="M63 63 L72 63 L72 45 L72 27 L72 9 L63 9 L63 0 L45 0 L27 0 L9 0 L9 9 L0 9 L0 27 L0 45 L0 63 L9 63 L9 72 L27 72 L45 72 L63 72 C63 69 63 66 63 63 zM54 27 L54 45 L54 54 L45 54 L27 54 L18 54 L18 45 L18 27 L18 18 L27 18 L45 18 L54 18 C54 21 54 24 54 27 zM27 45 L45 45 L45 27 L27 27 L27 45 z" />
<glyph unicode="1" horiz-adv-x="37" d="M9 72 L27 72 L27 54 L27 36 L27 18 L9 18 L9 36 L9 45 L0 45 L0 63 L9 63 L9 72 z" />
<glyph unicode="2" horiz-adv-x="37" d="M18 63 L27 63 L27 54 L27 45 L27 36 L18 36 L18 27 L27 27 L27 9 L18 9 L9 9 L0 9 L0 27 L0 45 L9 45 L9 54 L0 54 L0 72 L18 72 L18 63 z" />
<glyph unicode="3" horiz-adv-x="37" d="M18 63 L27 63 L27 45 L18 45 L18 36 L27 36 L27 27 L27 18 L27 9 L18 9 L18 0 L0 0 L0 18 L9 18 L9 27 L0 27 L0 45 L9 45 L9 54 L0 54 L0 72 L18 72 L18 63 z" />
<glyph unicode="4" horiz-adv-x="64" d="M45 63 L54 63 L54 45 L45 45 L45 36 L27 36 L27 45 L18 45 L0 45 L0 54 L0 63 L0 72 L18 72 L18 63 L27 63 L27 72 L45 72 L45 63 z" />
<glyph unicode="5" horiz-adv-x="46" d="M18 45 L36 45 L36 27 L36 9 L27 9 L18 9 L9 9 L9 27 L18 27 L18 36 L0 36 L0 54 L0 72 L9 72 L18 72 L27 72 L27 54 L18 54 L18 45 z" />
<glyph unicode="6" horiz-adv-x="55" d="M36 45 L36 36 L45 36 L45 27 L45 18 L45 9 L36 9 L36 0 L27 0 L18 0 L9 0 L9 9 L0 9 L0 27 L0 45 L0 63 L9 63 L9 72 L18 72 L27 72 L36 72 L36 54 L27 54 L18 54 L18 45 C24 45 30 45 36 45 zM18 18 L27 18 L27 27 L18 27 C18 24 18 21 18 18 z" />
<glyph unicode="7" horiz-adv-x="55" d="M36 45 L45 45 L45 27 L36 27 L36 18 L18 18 L18 27 L9 27 L9 45 L18 45 L18 54 L0 54 L0 72 L18 72 L36 72 L36 54 L36 45 z" />
<glyph unicode="8" horiz-adv-x="55" d="M36 72 L36 63 L45 63 L45 45 L36 45 L36 36 L45 36 L45 27 L45 18 L45 9 L36 9 L36 0 L27 0 L18 0 L9 0 L9 9 L0 9 L0 18 L0 27 L0 36 L9 36 L9 45 L0 45 L0 63 L9 63 L9 72 L18 72 L27 72 C30 72 33 72 36 72 zM18 18 L27 18 L27 27 L18 27 C18 24 18 21 18 18 zM18 45 L27 45 L27 54 L18 54 C18 51 18 48 18 45 z" />
<glyph unicode="9" horiz-adv-x="55" d="M36 72 L36 63 L45 63 L45 54 L45 45 L45 36 L45 27 L45 18 L45 9 L36 9 L36 0 L27 0 L18 0 L9 0 L9 18 L18 18 L27 18 L27 27 L9 27 L9 36 L0 36 L0 45 L0 54 L0 63 L9 63 L9 72 L18 72 L27 72 C30 72 33 72 36 72 zM18 45 L27 45 L27 54 L18 54 C18 51 18 48 18 45 z" />
<glyph unicode=":" horiz-adv-x="28" d="M0 18 L18 18 L18 0 L0 0 L0 18 zM0 45 L18 45 L18 27 L0 27 L0 45 z" />
<glyph unicode=";" horiz-adv-x="37" d="M9 18 L27 18 L27 0 L9 0 L9 18 zM9 45 L27 45 L27 27 L9 27 L9 45 zM0 9 L18 9 L18 -9 L0 -9 L0 9 z" />
<glyph unicode="&#x3c;" horiz-adv-x="64" d="M36 18 L54 18 L54 0 L36 0 L36 18 zM18 27 L36 27 L36 9 L18 9 L18 27 zM0 36 L18 36 L18 18 L0 18 L0 36 zM0 45 L18 45 L18 27 L0 27 L0 45 zM18 54 L36 54 L36 36 L18 36 L18 54 zM36 63 L54 63 L54 45 L36 45 L36 63 z" />
<glyph unicode="=" horiz-adv-x="55" d="M0 27 L18 27 L18 9 L0 9 L0 27 zM0 54 L18 54 L18 36 L0 36 L0 54 zM27 27 L45 27 L45 9 L27 9 L27 27 zM27 54 L45 54 L45 36 L27 36 L27 54 zM18 27 L36 27 L36 9 L18 9 L18 27 zM18 54 L36 54 L36 36 L18 36 L18 54 z" />
<glyph unicode="&#x3e;" horiz-adv-x="64" d="M18 0 L0 0 L0 18 L18 18 L18 0 zM36 9 L18 9 L18 27 L36 27 L36 9 zM54 18 L36 18 L36 36 L54 36 L54 18 zM54 27 L36 27 L36 45 L54 45 L54 27 zM36 36 L18 36 L18 54 L36 54 L36 36 zM18 45 L0 45 L0 63 L18 63 L18 45 z" />
<glyph unicode="?" horiz-adv-x="64" d="M27 54 L45 54 L45 36 L27 36 L27 54 zM0 45 L18 45 L18 27 L0 27 L0 45 zM36 45 L54 45 L54 27 L36 27 L36 45 zM27 27 L45 27 L45 9 L27 9 L27 27 zM27 0 L45 0 L45 -18 L27 -18 L27 0 zM9 54 L27 54 L27 36 L9 36 L9 54 z" />
<glyph unicode="@" horiz-adv-x="91" d="M27 72 L45 72 L45 54 L27 54 L27 72 zM0 27 L18 27 L18 9 L0 9 L0 27 zM9 9 L27 9 L27 -9 L9 -9 L9 9 zM18 0 L36 0 L36 -18 L18 -18 L18 0 zM27 -9 L45 -9 L45 -27 L27 -27 L27 -9 zM36 -9 L54 -9 L54 -27 L36 -27 L36 -9 zM0 45 L18 45 L18 27 L0 27 L0 45 zM9 54 L27 54 L27 36 L9 36 L9 54 zM18 63 L36 63 L36 45 L18 45 L18 63 zM45 72 L63 72 L63 54 L45 54 L45 72 zM36 45 L54 45 L54 27 L36 27 L36 45 zM27 36 L45 36 L45 18 L27 18 L27 36 zM27 27 L45 27 L45 9 L27 9 L27 27 zM45 45 L63 45 L63 27 L45 27 L45 45 zM36 18 L54 18 L54 0 L36 0 L36 18 zM45 18 L63 18 L63 0 L45 0 L45 18 zM54 63 L72 63 L72 45 L54 45 L54 63 zM54 36 L72 36 L72 18 L54 18 L54 36 zM54 54 L72 54 L72 36 L54 36 L54 54 zM63 9 L81 9 L81 -9 L63 -9 L63 9 z" />
<glyph unicode="A" horiz-adv-x="55" d="M18 9 L18 0 L0 0 L0 9 L0 18 L0 27 L0 36 L9 36 L9 45 L9 54 L9 63 L27 63 L27 54 L36 54 L36 36 L45 36 L45 27 L45 18 L45 9 L45 0 L27 0 L27 9 C24 9 21 9 18 9 zM27 36 L18 36 L18 27 L27 27 C27 30 27 33 27 36 z" />
<glyph unicode="B" horiz-adv-x="55" d="M45 0 L36 0 L36 -9 L18 -9 L0 -9 L0 9 L0 27 L0 45 L0 63 L18 63 L36 63 L36 54 L45 54 L45 36 L36 36 L36 27 L45 27 L45 18 L45 9 C45 6 45 3 45 0 zM27 45 L18 45 L18 36 L27 36 C27 39 27 42 27 45 zM18 18 L18 9 L27 9 L27 18 C24 18 21 18 18 18 z" />
<glyph unicode="C" horiz-adv-x="55" d="M9 9 L0 9 L0 18 L0 27 L0 35.999 L0 36 L0 53.999 L9 53.999 L9 63 L18 63 L27 63 L36 63 L36 54 L45 54 L45 36 L27 36 L27 45 L18 45 L18 36 L18 35.999 L18 27 L18 18 L27 18 L27 27 L45 27 L45 9 L36 9 L36 0 L27 0 L18 0 L9 0 L9 9 z" />
<glyph unicode="D" horiz-adv-x="64" d="M36 0 L18 0 L0 0 L0 18 L0 27 L0 36 L0 45 L0 63 L18 63 L36 63 L36 54 L45 54 L45 45 L54 45 L54 36 L54 27 L54 18 L45 18 L45 9 L36 9 C36 6 36 3 36 0 zM18 27 L18 18 L27 18 L27 27 L36 27 L36 36 L27 36 L27 45 L18 45 L18 36 C18 33 18 30 18 27 z" />
<glyph unicode="E" horiz-adv-x="37" d="M27 9 L27 -9 L9 -9 L9 -0.001 L0 -0.001 L0 17.999 L0 35.999 L0 53.999 L9 53.999 L9 63 L27 63 L27 45 L18 45 L18 36 L27 36 L27 18 L18 18 L18 17.999 L18 9 L27 9 z" />
<glyph unicode="F" horiz-adv-x="37" d="M18 0 L0 0 L0 9.001 L0 18 L0 27.001 L0 45.001 L0 63.001 L9 63.001 L18 63.001 L27 63.001 L27 45.001 L18 45.001 L18 36.001 L27 36.001 L27 18.001 L18 18.001 L18 18 L18 9.001 L18 0 z" />
<glyph unicode="G" horiz-adv-x="64" d="M45 0 L45 -9 L27 -9 L9 -9 L9 -0.001 L0 -0.001 L0 17.999 L0 35.999 L0 53.999 L9 53.999 L9 63 L27 63 L45 63 L45 45 L27 45 L18 45 L18 35.999 L18 17.999 L18 9 L27 9 L36 9 L36 18 L27 18 L27 36 L36 36 L45 36 L54 36 L54 18 L54 0 L45 0 z" />
<glyph unicode="H" horiz-adv-x="55" d="M18 0 L0 0 L0 9 L0 18 L0 27 L0 45 L0 63 L18 63 L18 45 L18 36 L27 36 L27 45 L27 63 L45 63 L45 45 L45 27 L45 18 L45 9 L45 0 L27 0 L27 9 L27 18 L18 18 L18 9 L18 0 z" />
<glyph unicode="I" horiz-adv-x="46" d="M27 27.001 L27 18 L36 18 L36 0 L18 0 L0 0 L0 18 L9 18 L9 27.001 L9 36.001 L9 45.001 L0 45.001 L0 63.001 L18 63.001 L36 63.001 L36 45.001 L27 45.001 L27 36.001 L27 27.001 z" />
<glyph unicode="J" horiz-adv-x="64" d="M54 63.001 L54 45.001 L45 45.001 L45 36.001 L45 21.13 L45 9 L36 9 L36 0 L18 0 L18 9 L0 9 L0 27 L18 27 L18 18 L27 18 L27 21.13 L27 34.796 L27 45.001 L18 45.001 L18 63.001 L36 63.001 L54 63.001 z" />
<glyph unicode="K" horiz-adv-x="64" d="M18 0 L0 0 L0 18 L0 36 L0 45 L0 54 L0 63 L18 63 L18 54 L18 45 L18 36 L27 36 L27 27 L45 27 L45 18 L54 18 L54 0 L36 0 L36 9 L27 9 L27 18 L18 18 L18 0 zM45 36 L27 36 L27 54 L36 54 L36 63 L54 63 L54 45 L45 45 L45 36 z" />
<glyph unicode="L" horiz-adv-x="46" d="M18 0 L0 0 L0 9.001 L0 18 L0 27.001 L0 45.001 L0 63.001 L18 63.001 L18 45.001 L18 27.001 L18 18 L36 18 L36 0 L18 0 z" />
<glyph unicode="M" horiz-adv-x="82" d="M18 0 L0 0 L0 18 L0 36 L0 45 L0 54 L0 63 L9 63 L18 63 L27 63 L27 54 L45 54 L45 63 L54 63 L63 63 L72 63 L72 54 L72 45 L72 36 L72 18 L72 0 L54 0 L54 18 L54 36 L45 36 L45 18 L45 0 L27 0 L27 18 L27 36 L18 36 L18 18 L18 0 z" />
<glyph unicode="N" horiz-adv-x="73" d="M18 0 L0 0 L0 9 L0 18 L0 27 L0 45 L0 63 L18 63 L18 54 L27 54 L27 45 L36 45 L36 36 L45 36 L45 45 L45 54 L45 63 L63 63 L63 54 L63 45 L63 36 L63 18 L63 0 L45 0 L45 9 L36 9 L36 18 L27 18 L27 27 L18 27 L18 18 L18 9 L18 0 z" />
<glyph unicode="O" horiz-adv-x="64" d="M9 0 L9 9 L0 9 L0 18 L0 27 L0 36 L0 54 L9 54 L9 63 L18 63 L27 63 L36 63 L45 63 L45 54 L54 54 L54 36 L54 27 L54 18 L54 9 L45 9 L45 0 L36 0 L27 0 L18 0 C15 0 12 0 9 0 zM18 36 L18 27 L18 18 L27 18 L36 18 L36 27 L36 36 L36 45 L27 45 L18 45 C18 42 18 39 18 36 z" />
<glyph unicode="P" horiz-adv-x="55" d="M18 18 L18 9 L18 -9 L0 -9 L0 9 L0 27 L0 45 L0 63 L18 63 L36 63 L36 54 L45 54 L45 45 L45 36 L45 27 L36 27 L36 18 C30 18 24 18 18 18 zM27 45 L18 45 L18 36 L27 36 C27 39 27 42 27 45 z" />
<glyph unicode="Q" horiz-adv-x="73" d="M45 9 L63 9 L63 -9 L45 -9 L45 9 zM54 18 L45 18 L45 9 L36 9 L36 0 L27 0 L18 0 L9 0 L9 9 L0 9 L0 18 L0 27 L0 36 L0 54 L9 54 L9 63 L18 63 L27 63 L36 63 L45 63 L45 54 L54 54 L54 36 C54 30 54 24 54 18 zM18 18 L27 18 L27 27 L36 27 L36 36 L36 45 L27 45 L18 45 L18 36 L18 27 C18 24 18 21 18 18 z" />
<glyph unicode="R" horiz-adv-x="55" d="M18 9 L18 0 L0 0 L0 9 L0 18 L0 27 L0 45 L0 63 L18 63 L36 63 L36 54 L45 54 L45 45 L45 36 L45 27 L36 27 L36 18 L45 18 L45 0 L27 0 L27 18 L18 18 C18 15 18 12 18 9 zM27 45 L18 45 L18 36 L27 36 C27 39 27 42 27 45 z" />
<glyph unicode="S" horiz-adv-x="46" d="M27 0 L27 -9 L18 -9 L9 -9 L0 -9 L0 9 L9 9 L18 9 L18 18 L9 18 L9 27 L0 27 L0 36 L0 45 L0 54 L9 54 L9 63 L18 63 L27 63 L36 63 L36 45 L27 45 L18 45 L18 36 L27 36 L27 27 L36 27 L36 18 L36 9 L36 0 L27 0 z" />
<glyph unicode="T" horiz-adv-x="46" d="M9 45.211 L0 45.211 L0 63.211 L18 63.211 L36 63.211 L36 45.211 L27 45.211 L27 27.211 L27 27 L27 9.211 L27 9 L9 9 L9 9.211 L9 27 L9 27.211 L9 45.211 z" />
<glyph unicode="U" horiz-adv-x="55" d="M9 18 L0 18 L0 35.79 L0 36 L0 45 L0 53.79 L0 63 L18 63 L18 53.79 L18 45 L18 36 L18 35.79 L18 27 L27 27 L27 35.79 L27 36 L27 45 L27 53.79 L27 63 L45 63 L45 53.79 L45 45 L45 36 L45 35.79 L45 18 L36 18 L36 9 L27 9 L18 9 L9 9 L9 18 z" />
<glyph unicode="V" horiz-adv-x="64" d="M9 26.79 L0 26.79 L0 36.001 L0 44.79 L0 45.001 L0 54.001 L0 63.001 L18 63.001 L18 54.001 L18 45.001 L18 44.79 L18 36.001 L18 35.79 L27 35.79 L36 35.79 L36 36.001 L36 44.79 L36 45.001 L36 54.001 L36 63.001 L54 63.001 L54 54.001 L54 45.001 L54 44.79 L54 36.001 L54 26.79 L45 26.79 L45 17.79 L36 17.79 L36 9 L18 9 L18 17.79 L9 17.79 L9 26.79 z" />
<glyph unicode="W" horiz-adv-x="82" d="M72 63.001 L72 45 L72 37.876 L72 27 L63 27 L63 9 L45 9 L45 18 L36 18 L27 18 L27 9 L9 9 L9 27 L0 27 L0 37.876 L0 45 L0 63.001 L18 63.001 L18 45 L18 37.876 L18 36 L27 36 L27 54 L45 54 L45 36 L54 36 L54 37.876 L54 45 L54 63.001 L72 63.001 z" />
<glyph unicode="X" horiz-adv-x="64" d="M0 27 L18 27 L18 9 L0 9 L0 27 zM27 27 L18 27 L18 36 L9 36 L9 45.001 L0 45.001 L0 63.001 L18 63.001 L18 54 L27 54 L27 45 L36 45 L36 36 L45 36 L45 27 L54 27 L54 9 L36 9 L36 18 L27 18 L27 27 zM36 63.001 L54 63.001 L54 45.001 L36 45.001 L36 63.001 z" />
<glyph unicode="Y" horiz-adv-x="73" d="M9 45 L0 45 L0 63 L18 63 L18 54 L27 54 L27 44.789 L36 44.789 L36 53.789 L45 53.789 L45 62.789 L63 62.789 L63 44.789 L54 44.789 L54 35.789 L45 35.789 L45 27 L45 26.789 L45 9 L27 9 L27 26.789 L27 27 L27 36 L9 36 L9 45 z" />
<glyph unicode="Z" horiz-adv-x="82" d="M45 18 L27 18 L27 36 L45 36 L45 45 L36 45 L18 45 L0 45 L0 63 L18 63 L36 63 L54 63 L72 63 L72 45 L63 45 L63 35.999 L45 35.999 L45 18 zM72 9 L72 -9 L54 -9 L36 -9 L18 -9 L0 -9 L0 9 L9 9 L9 18 L27 18 L27 9 L36 9 L54 9 L72 9 z" />
<glyph unicode="[" horiz-adv-x="37" d="M9 18 L27 18 L27 0 L9 0 L9 18 zM0 18 L18 18 L18 0 L0 0 L0 18 zM0 72 L18 72 L18 54 L0 54 L0 72 zM9 72 L27 72 L27 54 L9 54 L9 72 zM0 36 L18 36 L18 18 L0 18 L0 36 zM0 54 L18 54 L18 36 L0 36 L0 54 z" />
<glyph unicode="\" horiz-adv-x="56" d="M45 0 L27 0 L27 18 L45 18 L45 0 zM36 18 L18 18 L18 36 L36 36 L36 18 zM27 36 L9 36 L9 54 L27 54 L27 36 zM18 54 L0 54 L0 72 L18 72 L18 54 z" />
<glyph unicode="]" horiz-adv-x="37" d="M18 0 L0 0 L0 18 L18 18 L18 0 zM27 0 L9 0 L9 18 L27 18 L27 0 zM27 54 L9 54 L9 72 L27 72 L27 54 zM18 54 L0 54 L0 72 L18 72 L18 54 zM27 18 L9 18 L9 36 L27 36 L27 18 zM27 36 L9 36 L9 54 L27 54 L27 36 z" />
<glyph unicode="^" horiz-adv-x="55" d="M18 54 L18 36 L0 36 L0 54 L18 54 zM27 72 L27 54 L9 54 L9 72 L27 72 zM45 54 L45 36 L27 36 L27 54 L45 54 zM36 72 L36 54 L18 54 L18 72 L36 72 z" />
<glyph unicode="_" horiz-adv-x="56" d="M27 0 L45 0 L45 -18 L27 -18 L27 0 zM18 0 L36 0 L36 -18 L18 -18 L18 0 zM0 0 L18 0 L18 -18 L0 -18 L0 0 z" />
<glyph unicode="`" horiz-adv-x="37" d="M27 45 L9 45 L9 63 L27 63 L27 45 zM18 54 L0 54 L0 72 L18 72 L18 54 z" />
<glyph unicode="a" horiz-adv-x="64" d="M18 18 L27 18 L27 27 L18 27 L18 18 zM45 36 L45 18 L45 9 L54 9 L54 -9 L36 -9 L36 0 L27 0 L18 0 L9 0 L9 9 L0 9 L0 18 L0 27 L0 36 L9 36 L9 45 L18 45 L27 45 L36 45 L36 36 C39 36 42 36 45 36 z" />
<glyph unicode="b" horiz-adv-x="55" d="M36 45 L36 36 L45 36 L45 27 L45 18 L45 9 L36 9 L36 0 L18 0 L0 0 L0 18 L0 36 L0 54 L18 54 L18 45 C24 45 30 45 36 45 zM18 27 L18 18 L27 18 L27 27 C24 27 21 27 18 27 z" />
<glyph unicode="c" horiz-adv-x="37" d="M9 45 L27 45 L27 27 L18 27 L18 18 L27 18 L27 0 L9 0 L9 9 L0 9 L0 18 L0 27 L0 36 L9 36 L9 45 z" />
<glyph unicode="d" horiz-adv-x="55" d="M27 45 L27 54 L45 54 L45 36 L45 18 L45 0 L27 0 L9 0 L9 9 L0 9 L0 18 L0 27 L0 36 L9 36 L9 45 C15 45 21 45 27 45 zM18 18 L27 18 L27 27 L18 27 C18 24 18 21 18 18 z" />
<glyph unicode="e" horiz-adv-x="55" d="M36 45 L36 36 L45 36 L45 18 L45 0 L36 0 L27 0 L18 0 L18 -9 L27 -9 L36 -9 L36 -27 L27 -27 L18 -27 L9 -27 L9 -18 L0 -18 L0 0 L0 18 L0 36 L9 36 L9 45 L18 45 L27 45 C30 45 33 45 36 45 zM18 18 L27 18 L27 27 L18 27 C18 24 18 21 18 18 z" />
<glyph unicode="f" horiz-adv-x="46" d="M27 36 L27 27 L36 27 L36 9 L27 9 L27 0 L9 0 L9 9 L0 9 L0 27 L9 27 L9 45 L18 45 L18 54 L36 54 L36 36 L27 36 z" />
<glyph unicode="g" horiz-adv-x="64" d="M54 18 L45 18 L45 0 L54 0 L54 -18 L45 -18 L45 -27 L27 -27 L9 -27 L9 -18 L0 -18 L0 0 L18 0 L18 -9 L27 -9 L36 -9 L36 0 L27 0 L27 9 L9 9 L9 18 L9 27 L9 36 L18 36 L18 45 L36 45 L36 36 L54 36 C54 30 54 24 54 18 zM27 18 L36 18 L36 27 L27 27 C27 24 27 21 27 18 z" />
<glyph unicode="h" horiz-adv-x="55" d="M45 18 L45 0 L27 0 L27 9 L18 9 L18 0 L0 0 L0 18 L0 36 L0 36 L0 45 L18 45 L18 27 L36 27 L36 18 L45 18 z" />
<glyph unicode="i" horiz-adv-x="28" d="M0 54 L18 54 L18 36 L0 36 L0 54 zM0 27 L18 27 L18 18 L18 9 L18 0 L0 0 L0 9 L0 18 L0 27 z" />
<glyph unicode="j" horiz-adv-x="50" d="M22 45 L40 45 L40 27 L22 27 L22 45 zM22 18 L40 18 L40 9 L40 0 L40 -9 L31 -9 L31 -27 L13 -27 L13 -18 L-5 -18 L-5 0 L13 0 L13 -9 L22 -9 L22 0 L22 9 L22 18 z" />
<glyph unicode="k" horiz-adv-x="55" d="M27 45 L45 45 L45 27 L36 27 L36 18 L45 18 L45 0 L27 0 L27 18 L18 18 L18 0 L0 0 L0 18 L0 36 L0 54 L18 54 L18 36 L27 36 L27 45 z" />
<glyph unicode="l" horiz-adv-x="28" d="M0 54 L18 54 L18 36 L18 18 L18 0 L0 0 L0 18 L0 36 L0 54 z" />
<glyph unicode="m" horiz-adv-x="82" d="M63 18 L72 18 L72 0 L54 0 L54 9 L45 9 L45 0 L27 0 L27 9 L18 9 L18 0 L0 0 L0 18 L9 18 L9 27 L27 27 L27 18 L45 18 L45 27 L63 27 L63 18 z" />
<glyph unicode="n" horiz-adv-x="55" d="M36 18 L45 18 L45 0 L27 0 L27 9 L18 9 L18 0 L0 0 L0 9 L0 18 L0 27 L18 27 L36 27 L36 18 z" />
<glyph unicode="o" horiz-adv-x="55" d="M36 45 L36 36 L45 36 L45 27 L45 18 L45 9 L36 9 L36 0 L27 0 L18 0 L9 0 L9 9 L0 9 L0 18 L0 27 L0 36 L9 36 L9 45 L18 45 L27 45 C30 45 33 45 36 45 zM18 18 L27 18 L27 27 L18 27 C18 24 18 21 18 18 z" />
<glyph unicode="p" horiz-adv-x="55" d="M36 45 L36 36 L45 36 L45 18 L36 18 L36 0 L18 0 L18 -9 L0 -9 L0 9 L0 27 L0 45 L18 45 C24 45 30 45 36 45 zM18 18 L27 18 L27 27 L18 27 C18 24 18 21 18 18 z" />
<glyph unicode="q" horiz-adv-x="55" d="M9 45 L27 45 L45 45 L45 27 L45 9 L45 -9 L27 -9 L27 0 L9 0 L9 18 L0 18 L0 36 L9 36 C9 39 9 42 9 45 zM27 18 L27 27 L18 27 L18 18 C21 18 24 18 27 18 z" />
<glyph unicode="r" horiz-adv-x="55" d="M27 45 L45 45 L45 27 L36 27 L36 18 L18 18 L18 9 L0 9 L0 27 L0 45 L18 45 L18 36 L27 36 L27 45 z" />
<glyph unicode="s" horiz-adv-x="46" d="M18 18 L18 27 L36 27 L36 9 L27 9 L27 0 L18 0 L9 0 L0 0 L0 18 L9 18 L18 18 zM27 54 L36 54 L36 36 L27 36 L18 36 L18 27 L0 27 L0 45 L9 45 L9 54 L18 54 L27 54 z" />
<glyph unicode="t" horiz-adv-x="46" d="M27 45 L36 45 L36 27 L27 27 L27 18 L36 18 L36 0 L18 0 L18 9 L9 9 L9 27 L0 27 L0 45 L9 45 L9 54 L27 54 L27 45 z" />
<glyph unicode="u" horiz-adv-x="55" d="M45 27 L45 18 L45 9 L45 0 L27 0 L9 0 L9 9 L0 9 L0 27 L18 27 L18 18 L27 18 L27 27 L45 27 z" />
<glyph unicode="v" horiz-adv-x="55" d="M45 27 L45 9 L27 9 L27 0 L9 0 L9 9 L0 9 L0 27 L18 27 L18 18 L27 18 L27 27 L45 27 z" />
<glyph unicode="w" horiz-adv-x="82" d="M54 27 L72 27 L72 9 L63 9 L63 0 L45 0 L45 9 L27 9 L27 0 L9 0 L9 9 L0 9 L0 27 L18 27 L18 18 L27 18 L27 27 L45 27 L45 18 L54 18 L54 27 z" />
<glyph unicode="x" horiz-adv-x="55" d="M27 18 L45 18 L45 0 L27 0 L27 18 zM27 45 L45 45 L45 27 L27 27 L27 18 L18 18 L18 0 L0 0 L0 18 L9 18 L9 27 L0 27 L0 45 L18 45 L18 36 L27 36 L27 45 z" />
<glyph unicode="y" horiz-adv-x="55" d="M45 27 L45 9 L36 9 L36 0 L36 -9 L18 -9 L18 0 L18 9 L0 9 L0 27 L18 27 L18 18 L27 18 L27 27 L45 27 z" />
<glyph unicode="z" horiz-adv-x="64" d="M27 26.586 L27 18 L36 18 L54 18 L54 0 L36 0 L18 0 L0 0 L0 18 L9 18 L9 27 L27 27 L27 36 L18 36 L0 36 L0 54 L18 54 L36 54 L54 54 L54 36 L45 36 L45 26.586 L27 26.586 z" />
<glyph unicode="{" horiz-adv-x="46" d="M18 9 L36 9 L36 -9 L18 -9 L18 9 zM9 18 L27 18 L27 0 L9 0 L9 18 zM9 72 L27 72 L27 54 L9 54 L9 72 zM18 81 L36 81 L36 63 L18 63 L18 81 zM9 36 L27 36 L27 18 L9 18 L9 36 zM9 54 L27 54 L27 36 L9 36 L9 54 zM0 45 L18 45 L18 27 L0 27 L0 45 z" />
<glyph unicode="|" horiz-adv-x="28" d="M0 18 L18 18 L18 0 L0 0 L0 18 zM0 72 L18 72 L18 54 L0 54 L0 72 zM0 36 L18 36 L18 18 L0 18 L0 36 zM0 54 L18 54 L18 36 L0 36 L0 54 zM0 90 L18 90 L18 72 L0 72 L0 90 zM0 108 L18 108 L18 90 L0 90 L0 108 z" />
<glyph unicode="}" horiz-adv-x="46" d="M18 -9 L0 -9 L0 9 L18 9 L18 -9 zM27 0 L9 0 L9 18 L27 18 L27 0 zM27 54 L9 54 L9 72 L27 72 L27 54 zM18 63 L0 63 L0 81 L18 81 L18 63 zM27 18 L9 18 L9 36 L27 36 L27 18 zM27 36 L9 36 L9 54 L27 54 L27 36 zM36 27 L18 27 L18 45 L36 45 L36 27 z" />
<glyph unicode="~" horiz-adv-x="73" d="M0 36 L18 36 L18 18 L0 18 L0 36 zM9 54 L27 54 L27 36 L9 36 L9 54 zM27 45 L45 45 L45 27 L27 27 L27 45 zM45 63 L63 63 L63 45 L45 45 L45 63 z" />
<glyph unicode="©" horiz-adv-x="100" d="M36 63 L27 63 L27 54 L27 45 L27 36 L36 36 L36 27 L54 27 L54 45 L45 45 L45 54 L54 54 L54 72 L36 72 L36 63 zM81 72 L90 72 L90 54 L90 45 L90 36 L90 27 L90 18 L81 18 L81 9 L72 9 L72 0 L63 0 L54 0 L45 0 L36 0 L27 0 L18 0 L18 9 L9 9 L9 18 L0 18 L0 27 L0 36 L0 45 L0 54 L0 72 L9 72 L9 81 L18 81 L18 90 L27 90 L36 90 L45 90 L54 90 L63 90 L72 90 L72 81 L81 81 C81 78 81 75 81 72 zM72 45 L72 54 L72 63 L63 63 L63 72 L54 72 L45 72 L36 72 L27 72 L27 63 L18 63 L18 54 L18 45 L18 36 L18 27 L27 27 L27 18 L36 18 L45 18 L54 18 L63 18 L63 27 L72 27 L72 36 C72 39 72 42 72 45 z" />
<glyph unicode="·" horiz-adv-x="28" d="M0 36 L18 36 L18 18 L0 18 L0 36 z" />
<glyph unicode="é" horiz-adv-x="56" d="" />
<glyph unicode="࿕" horiz-adv-x="82" d="M27 54 L45 54 L45 36 L27 36 L27 54 zM45 45 L63 45 L63 27 L45 27 L45 45 zM54 45 L72 45 L72 27 L54 27 L54 45 zM54 27 L72 27 L72 9 L54 9 L54 27 zM27 36 L45 36 L45 18 L27 18 L27 36 zM27 18 L45 18 L45 0 L27 0 L27 18 zM9 18 L27 18 L27 0 L9 0 L9 18 zM9 45 L27 45 L27 27 L9 27 L9 45 zM0 45 L18 45 L18 27 L0 27 L0 45 zM0 63 L18 63 L18 45 L0 45 L0 63 zM27 72 L45 72 L45 54 L27 54 L27 72 zM45 72 L63 72 L63 54 L45 54 L45 72 z" />
<glyph unicode="࿖" horiz-adv-x="82" d="M27 54 L45 54 L45 36 L27 36 L27 54 zM45 45 L63 45 L63 27 L45 27 L45 45 zM54 45 L72 45 L72 27 L54 27 L54 45 zM54 63 L72 63 L72 45 L54 45 L54 63 zM27 36 L45 36 L45 18 L27 18 L27 36 zM27 18 L45 18 L45 0 L27 0 L27 18 zM45 18 L63 18 L63 0 L45 0 L45 18 zM9 45 L27 45 L27 27 L9 27 L9 45 zM0 45 L18 45 L18 27 L0 27 L0 45 zM0 27 L18 27 L18 9 L0 9 L0 27 zM27 72 L45 72 L45 54 L27 54 L27 72 zM9 72 L27 72 L27 54 L9 54 L9 72 z" />
<glyph unicode="‐" horiz-adv-x="46" d="M0 36 L18 36 L18 18 L0 18 L0 36 zM18 36 L36 36 L36 18 L18 18 L18 36 z" />
<glyph unicode="‑" horiz-adv-x="46" d="M0 36 L18 36 L18 18 L0 18 L0 36 zM18 36 L36 36 L36 18 L18 18 L18 36 z" />
<glyph unicode="‒" horiz-adv-x="64" d="M36 36 L54 36 L54 18 L36 18 L36 36 zM18 36 L36 36 L36 18 L18 18 L18 36 zM0 36 L18 36 L18 18 L0 18 L0 36 z" />
<glyph unicode="–" horiz-adv-x="64" d="M36 36 L54 36 L54 18 L36 18 L36 36 zM18 36 L36 36 L36 18 L18 18 L18 36 zM0 36 L18 36 L18 18 L0 18 L0 36 z" />
<glyph unicode="—" horiz-adv-x="235" d="M108 63 L108 45 L108 27 L90 27 L90 9 L72 9 L72 27 L54 27 L36 27 L36 9 L18 9 L18 27 L0 27 L0 45 L0 63 L18 63 L18 45 L36 45 L36 63 L18 63 L18 81 L36 81 L36 99 L54 99 L72 99 L72 81 L90 81 L90 63 L72 63 L72 45 L90 45 L90 63 L108 63 zM54 9 L72 9 L72 -9 L54 -9 L36 -9 L36 9 L54 9 zM225 63 L225 45 L225 27 L207 27 L207 9 L189 9 L189 27 L171 27 L153 27 L153 9 L135 9 L135 27 L117 27 L117 45 L117 63 L135 63 L135 45 L153 45 L153 63 L135 63 L135 81 L153 81 L153 99 L171 99 L189 99 L189 81 L207 81 L207 63 L189 63 L189 45 L207 45 L207 63 L225 63 zM171 9.2606 L189 9.2606 L189 -8.7394 L171 -8.7394 L153 -8.7394 L153 9.2606 L171 9.2606 z" />
<glyph unicode="’" horiz-adv-x="30.25" d="M20.25 33.75 L6.75 33.75 L6.75 47.25 L20.25 47.25 L20.25 33.75 zM13.5 27 L0 27 L0 40.5 L13.5 40.5 L13.5 27 z" />
<glyph unicode="“" horiz-adv-x="64" d="M0 63 L18 63 L18 45 L0 45 L0 63 zM9 54 L27 54 L27 36 L9 36 L9 54 zM0 72 L18 72 L18 54 L0 54 L0 72 zM27 63 L45 63 L45 45 L27 45 L27 63 zM36 54 L54 54 L54 36 L36 36 L36 54 zM27 72 L45 72 L45 54 L27 54 L27 72 z" />
<glyph unicode="”" horiz-adv-x="73" d="M54 45 L36 45 L36 63 L54 63 L54 45 zM45 36 L27 36 L27 54 L45 54 L45 36 zM54 54 L36 54 L36 72 L54 72 L54 54 zM27 45 L9 45 L9 63 L27 63 L27 45 zM18 36 L0 36 L0 54 L18 54 L18 36 zM27 54 L9 54 L9 72 L27 72 L27 54 z" />
<glyph unicode="…" horiz-adv-x="82" d="M0 36 L18 36 L18 18 L0 18 L0 36 zM27 36 L45 36 L45 18 L27 18 L27 36 zM54 36 L72 36 L72 18 L54 18 L54 36 z" />
<glyph unicode=" " horiz-adv-x="118" d="M108 63 L108 45 L108 27 L90 27 L90 9 L72 9 L72 27 L54 27 L36 27 L36 9 L18 9 L18 27 L0 27 L0 45 L0 63 L18 63 L18 45 L36 45 L36 63 L18 63 L18 81 L36 81 L36 99 L54 99 L72 99 L72 81 L90 81 L90 63 L72 63 L72 45 L90 45 L90 63 L108 63 zM54 9 L72 9 L72 -9 L54 -9 L36 -9 L36 9 L54 9 z" />
<glyph unicode="、" horiz-adv-x="37" d="M18 0 L0 0 L0 18 L18 18 L18 0 zM27 -9 L9 -9 L9 9 L27 9 L27 -9 z" />
<glyph unicode="。" horiz-adv-x="55" d="M0 18 L18 18 L18 0 L0 0 L0 18 zM9 36 L27 36 L27 18 L9 18 L9 36 zM27 27 L45 27 L45 9 L27 9 L27 27 zM18 9 L36 9 L36 -9 L18 -9 L18 9 z" />
<glyph unicode="《" horiz-adv-x="82" d="M54 18 L72 18 L72 0 L54 0 L54 18 zM45 27 L63 27 L63 9 L45 9 L45 27 zM36 36 L54 36 L54 18 L36 18 L36 36 zM36 45 L54 45 L54 27 L36 27 L36 45 zM45 54 L63 54 L63 36 L45 36 L45 54 zM54 63 L72 63 L72 45 L54 45 L54 63 zM18 18 L36 18 L36 0 L18 0 L18 18 zM9 27 L27 27 L27 9 L9 9 L9 27 zM0 36 L18 36 L18 18 L0 18 L0 36 zM0 45 L18 45 L18 27 L0 27 L0 45 zM9 54 L27 54 L27 36 L9 36 L9 54 zM18 63 L36 63 L36 45 L18 45 L18 63 z" />
<glyph unicode="》" horiz-adv-x="82" d="M18 0 L0 0 L0 18 L18 18 L18 0 zM27 9 L9 9 L9 27 L27 27 L27 9 zM36 18 L18 18 L18 36 L36 36 L36 18 zM36 27 L18 27 L18 45 L36 45 L36 27 zM27 36 L9 36 L9 54 L27 54 L27 36 zM18 45 L0 45 L0 63 L18 63 L18 45 zM54 0 L36 0 L36 18 L54 18 L54 0 zM63 9 L45 9 L45 27 L63 27 L63 9 zM72 18 L54 18 L54 36 L72 36 L72 18 zM72 27 L54 27 L54 45 L72 45 L72 27 zM63 36 L45 36 L45 54 L63 54 L63 36 zM54 45 L36 45 L36 63 L54 63 L54 45 z" />
<glyph unicode="【" horiz-adv-x="37" d="M9 18 L27 18 L27 0 L9 0 L9 18 zM0 18 L18 18 L18 0 L0 0 L0 18 zM0 72 L18 72 L18 54 L0 54 L0 72 zM9 72 L27 72 L27 54 L9 54 L9 72 zM0 36 L18 36 L18 18 L0 18 L0 36 zM0 54 L18 54 L18 36 L0 36 L0 54 z" />
<glyph unicode="】" horiz-adv-x="37" d="M18 0 L0 0 L0 18 L18 18 L18 0 zM27 0 L9 0 L9 18 L27 18 L27 0 zM27 54 L9 54 L9 72 L27 72 L27 54 zM18 54 L0 54 L0 72 L18 72 L18 54 zM27 18 L9 18 L9 36 L27 36 L27 18 zM27 36 L9 36 L9 54 L27 54 L27 36 z" />
<glyph unicode="㜜" horiz-adv-x="181" d="M54 36 L54 18 L36 18 L36 27 L27 27 L27 18 L18 18 L18 9 L0 9 L0 27 L9 27 L9 36 L27 36 L27 45 L36 45 L36 54 L27 54 L27 45 L9 45 L9 54 L0 54 L0 72 L18 72 L18 81 L36 81 L36 72 L45 72 L45 63 L54 63 L54 45 L45 45 L45 36 L54 36 zM162 45 L153 45 L153 36 L162 36 L162 27 L171 27 L171 9 L153 9 L153 18 L144 18 L144 36 L135 36 L135 45 L117 45 L117 54 L108 54 L108 72 L117 72 L117 81 L126 81 L126 90 L144 90 L144 81 L153 81 L171 81 L171 63 L162 63 C162 57 162 51 162 45 zM135 54 L144 54 L144 63 L135 63 C135 60 135 57 135 54 zM117 36 L135 36 L135 18 L126 18 L126 9 L108 9 L108 27 L117 27 L117 36 zM63 90 L81 90 L81 72 L63 72 L63 90 zM72 99 L90 99 L90 81 L72 81 L72 99 zM81 90 L99 90 L99 72 L81 72 L81 90 zM63 63 L81 63 L81 45 L63 45 L63 63 zM72 72 L90 72 L90 54 L72 54 L72 72 zM81 63 L99 63 L99 45 L81 45 L81 63 zM63 36 L81 36 L81 18 L63 18 L63 36 zM72 45 L90 45 L90 27 L72 27 L72 45 zM72 18 L90 18 L90 0 L72 0 L72 18 zM72 0 L90 0 L90 -18 L72 -18 L72 0 zM90 9 L108 9 L108 -9 L90 -9 L90 9 zM99 0 L117 0 L117 -18 L99 -18 L99 0 zM81 36 L99 36 L99 18 L81 18 L81 36 z" />
<glyph unicode="㿢" horiz-adv-x="118" d="M27 18 L9 18 L9 27 L0 27 L0 45 L0 63 L0 72 L0 81 L0 90 L18 90 L36 90 L36 81 L45 81 L45 63 L45 45 L45 27 L27 27 C27 24 27 21 27 18 zM18 72 L18 63 L27 63 L27 72 C24 72 21 72 18 72 zM27 45 L18 45 L18 36 L27 36 C27 39 27 42 27 45 zM99 90 L108 90 L108 72 L108 54 L108 36 L108 18 L108 0 L99 0 L90 0 L81 0 L81 18 L90 18 L90 27 L81 27 L72 27 L72 18 L72 9 L72 0 L54 0 L54 9 L54 18 L54 27 L54 45 L54 63 L54 81 L54 99 L72 99 L81 99 L90 99 L99 99 C99 96 99 93 99 90 zM90 45 L90 54 L81 54 L72 54 L72 45 L81 45 C84 45 87 45 90 45 zM81 72 L90 72 L90 81 L81 81 L72 81 L72 72 C75 72 78 72 81 72 zM36 -9 L36 0 L54 0 L54 -9 L63 -9 L72 -9 L72 -18 L81 -18 L81 -27 L81 -36 L81 -45 L81 -63 L81 -81 L63 -81 L45 -81 L27 -81 L27 -63 L27 -45 L27 -27 L27 -9 C30 -9 33 -9 36 -9 zM45 -63 L63 -63 L63 -54 L45 -54 C45 -57 45 -60 45 -63 zM63 -27 L54 -27 L45 -27 L45 -36 L63 -36 C63 -33 63 -30 63 -27 z" />
<glyph unicode="一" horiz-adv-x="64" d="M0 45 L54 45 L54 27 L0 27 L0 45 z" />
<glyph unicode="七" horiz-adv-x="73" d="M63 9 L54 9 L54 0 L36 0 L18 0 L18 9 L9 9 L9 18 L0 18 L0 36 L9 36 L9 54 L27 54 L27 45 L36 45 L36 54 L54 54 L54 36 L36 36 L36 27 L27 27 L27 18 L36 18 L45 18 L45 27 L63 27 L63 9 z" />
<glyph unicode="万" horiz-adv-x="73" d="M63 36 L63 27 L63 18 L63 9 L54 9 L54 0 L36 0 L36 18 L45 18 L45 27 L36 27 L27 27 L27 18 L18 18 L18 9 L0 9 L0 27 L9 27 L9 36 L9 45 L18 45 L18 54 L9 54 L9 72 L27 72 L45 72 L45 54 L36 54 L36 45 L45 45 L54 45 L54 36 L63 36 z" />
<glyph unicode="三" horiz-adv-x="46" d="M0 72 L36 72 L36 54 L0 54 L0 72 zM0 45 L36 45 L36 27 L0 27 L0 45 zM0 18 L36 18 L36 0 L0 0 L0 18 z" />
<glyph unicode="上" horiz-adv-x="46" d="M9 54 L27 54 L27 36 L9 36 L9 54 zM18 45 L36 45 L36 27 L18 27 L18 45 zM9 36 L27 36 L27 18 L9 18 L9 36 zM18 18 L36 18 L36 0 L18 0 L18 18 zM0 18 L18 18 L18 0 L0 0 L0 18 z" />
<glyph unicode="下" horiz-adv-x="64" d="M9 18 L27 18 L27 0 L9 0 L9 18 zM36 27 L54 27 L54 9 L36 9 L36 27 zM9 36 L27 36 L27 18 L9 18 L9 36 zM9 54 L27 54 L27 36 L9 36 L9 54 zM27 54 L45 54 L45 36 L27 36 L27 54 zM0 54 L18 54 L18 36 L0 36 L0 54 z" />
<glyph unicode="不" horiz-adv-x="82" d="M54 27 L72 27 L72 9 L54 9 L54 27 zM54 36 L45 36 L45 18 L45 0 L27 0 L27 18 L18 18 L18 9 L0 9 L0 27 L18 27 L18 36 L27 36 L36 36 L36 45 L27 45 L9 45 L9 63 L27 63 L45 63 L63 63 L63 45 L54 45 L54 36 z" />
<glyph unicode="与" horiz-adv-x="64" d="M27 63 L18 63 L18 72 L18 81 L18 90 L36 90 L36 81 L45 81 L45 63 L36 63 L27 63 zM54 54 L54 45 L54 36 L54 36 L54 27 L54 18 L54 9 L45 9 L45 0 L27 0 L27 18 L36 18 L36 27 L36 36 L36 36 L36 45 L18 45 L18 63 L36 63 L36 54 L54 54 zM27 36 L27 18 L18 18 L9 18 L0 18 L0 36 L9 36 L18 36 L27 36 z" />
<glyph unicode="丑" horiz-adv-x="82" d="M9 72 L27 72 L27 54 L9 54 L9 72 zM27 72 L45 72 L45 54 L27 54 L27 72 zM45 72 L63 72 L63 54 L45 54 L45 72 zM9 45 L27 45 L27 27 L9 27 L9 45 zM27 45 L45 45 L45 27 L27 27 L27 45 zM45 54 L63 54 L63 36 L45 36 L45 54 zM45 36 L63 36 L63 18 L45 18 L45 36 zM18 54 L36 54 L36 36 L18 36 L18 54 zM18 36 L36 36 L36 18 L18 18 L18 36 zM54 18 L72 18 L72 0 L54 0 L54 18 zM36 18 L54 18 L54 0 L36 0 L36 18 zM18 18 L36 18 L36 0 L18 0 L18 18 zM0 18 L18 18 L18 0 L0 0 L0 18 z" />
<glyph unicode="专" horiz-adv-x="64" d="M18 72 L0 72 L0 90 L9 90 L9 99 L27 99 L27 90 L36 90 L36 72 L18 72 zM45 9 L45 0 L54 0 L54 -18 L36 -18 L36 -9 L27 -9 L27 9 L36 9 L36 18 L27 18 L9 18 L9 36 L9 45 L0 45 L0 63 L9 63 L9 72 L27 72 L27 63 L36 63 L36 45 L27 45 L27 36 L45 36 L45 27 L54 27 L54 9 L45 9 z" />
<glyph unicode="且" horiz-adv-x="73" d="M54 18 L63 18 L63 0 L45 0 L36 0 L27 0 L18 0 L0 0 L0 18 L9 18 L9 27 L9 45 L9 63 L9 81 L9 99 L18 99 L27 99 L36 99 L36 90 L54 90 L54 81 L54 72 L54 63 L54 45 L54 27 C54 24 54 21 54 18 zM27 54 L27 45 L36 45 L36 54 C33 54 30 54 27 54 zM36 81 L27 81 L27 72 L36 72 C36 75 36 78 36 81 zM27 18 L36 18 L36 27 L27 27 C27 24 27 21 27 18 z" />
<glyph unicode="世" horiz-adv-x="100" d="M90 72 L90 54 L81 54 L81 45 L81 27 L72 27 L63 27 L54 27 L36 27 L36 45 L36 54 L27 54 L27 45 L27 27 L27 18 L36 18 L45 18 L63 18 L81 18 L81 0 L63 0 L45 0 L36 0 L27 0 L18 0 L18 9 L9 9 L9 27 L9 45 L9 54 L0 54 L0 72 L9 72 L9 81 L27 81 L27 72 L36 72 L36 81 L54 81 L54 72 L63 72 L63 81 L81 81 L81 72 C84 72 87 72 90 72 zM54 45 L63 45 L63 54 L54 54 C54 51 54 48 54 45 z" />
<glyph unicode="丘" horiz-adv-x="73" d="M63 27 L54 27 L54 18 L63 18 L63 0 L54 0 L45 0 L36 0 L18 0 L0 0 L0 18 L9 18 L9 27 L9 36 L9 45 L9 54 L9 72 L18 72 L27 72 L36 72 L36 54 L27 54 L27 45 L45 45 L63 45 C63 39 63 33 63 27 zM27 18 L36 18 L36 27 L27 27 C27 24 27 21 27 18 z" />
<glyph unicode="业" horiz-adv-x="109" d="M0 45 L18 45 L18 27 L0 27 L0 45 zM81 45 L99 45 L99 27 L81 27 L81 45 zM72 18 L81 18 L81 0 L72 0 L63 0 L54 0 L36 0 L18 0 L18 18 L27 18 L27 36 L27 54 L45 54 L45 36 L45 18 L54 18 L54 36 L54 54 L72 54 L72 36 L72 18 z" />
<glyph unicode="东" horiz-adv-x="82" d="M9 45 L0 45 L0 63 L9 63 L9 72 L0 72 L0 90 L9 90 L18 90 L18 99 L36 99 L36 90 L45 90 L45 72 L27 72 L27 63 L18 63 L18 54 L27 54 L27 63 L45 63 L45 54 L54 54 L54 36 L36 36 L27 36 L18 36 L9 36 L9 45 zM27 36 L45 36 L45 18 L45 0 L36 0 L36 -9 L18 -9 L18 9 L27 9 L27 18 L27 36 zM0 27 L18 27 L18 9 L0 9 L0 27 zM54 27 L72 27 L72 9 L54 9 L54 27 z" />
<glyph unicode="丝" horiz-adv-x="118" d="M90 0 L108 0 L108 -18 L90 -18 L72 -18 L54 -18 L36 -18 L18 -18 L0 -18 L0 0 L18 0 L36 0 L54 0 L72 0 L90 0 zM90 45 L90 36 L108 36 L108 18 L99 18 L99 18 L81 18 L81 9 L63 9 L63 27 L72 27 L72 45 L81 45 L81 54 L72 54 L72 45 L54 45 L54 54 L45 54 L45 45 L36 45 L36 36 L54 36 L54 18 L45 18 L45 18 L27 18 L27 9 L9 9 L9 27 L18 27 L18 45 L27 45 L27 54 L18 54 L18 45 L0 45 L0 63 L9 63 L9 81 L18 81 L18 99 L36 99 L36 81 L27 81 L27 72 L36 72 L36 72 L54 72 L54 63 L63 63 L63 81 L72 81 L72 99 L90 99 L90 81 L81 81 L81 72 L90 72 L90 72 L108 72 L108 54 L99 54 L99 45 L90 45 z" />
<glyph unicode="两" horiz-adv-x="118" d="M90 54 L108 54 L108 36 L108 18 L108 0 L90 0 L90 9 L72 9 L72 18 L54 18 L54 9 L36 9 L36 18 L18 18 L18 9 L18 0 L0 0 L0 9 L0 18 L0 27 L0 45 L0 63 L18 63 L27 63 L27 72 L18 72 L18 90 L36 90 L54 90 L72 90 L90 90 L90 72 L81 72 L81 63 L90 63 C90 60 90 57 90 54 zM54 72 L45 72 L45 63 L54 63 L63 63 L63 72 C60 72 57 72 54 72 zM18 45 L18 36 L27 36 L27 45 C24 45 21 45 18 45 zM54 27 L54 36 L63 36 L63 45 L54 45 L45 45 L45 27 C48 27 51 27 54 27 zM90 27 L90 36 L90 45 L81 45 L81 27 C84 27 87 27 90 27 z" />
<glyph unicode="严" horiz-adv-x="82" d="M72 81 L63 81 L63 72 L72 72 L72 54 L63 54 L63 45 L72 45 L72 27 L63 27 L54 27 L45 27 L27 27 L27 18.468 L27 9 L27 0.468 L18 0.468 L18 -9 L0 -9 L0 9 L9 9 L9 18.468 L9 27 L9 45 L18 45 L18 54 L9 54 L9 72 L18 72 L18 81 L9 81 L9 99 L27 99 L45 99 L54 99 L63 99 L72 99 C72 93 72 87 72 81 zM36 45 L45 45 L45 63 L45 81 L36 81 L36 63 C36 57 36 51 36 45 z" />
<glyph unicode="並" horiz-adv-x="109" d="M18 99 L36 99 L36 81 L18 81 L18 99 zM63 99 L81 99 L81 81 L63 81 L63 99 zM0 45 L18 45 L18 27 L0 27 L0 45 zM81 45 L99 45 L99 27 L81 27 L81 45 zM72 36 L72 18 L81 18 L81 0 L72 0 L63 0 L54 0 L45 0 L36 0 L27 0 L18 0 L18 18 L27 18 L27 36 L27 54 L18 54 L18 72 L27 72 L36 72 L45 72 L54 72 L63 72 L72 72 L81 72 L81 54 L72 54 C72 48 72 42 72 36 zM45 18 L54 18 L54 36 L54 54 L45 54 L45 36 C45 30 45 24 45 18 z" />
<glyph unicode="丧" horiz-adv-x="91" d="M9 36 L27 36 L27 18 L9 18 L9 36 zM27 36 L45 36 L45 18 L27 18 L27 36 zM27 72 L45 72 L45 54 L27 54 L27 72 zM27 54 L45 54 L45 36 L27 36 L27 54 zM18 90 L36 90 L36 72 L18 72 L18 90 zM36 90 L54 90 L54 72 L36 72 L36 90 zM27 99 L45 99 L45 81 L27 81 L27 99 zM0 63 L18 63 L18 45 L0 45 L0 63 zM54 63 L72 63 L72 45 L54 45 L54 63 zM27 27 L45 27 L45 9 L27 9 L27 27 zM45 9 L63 9 L63 -9 L45 -9 L45 9 zM54 0 L72 0 L72 -18 L54 -18 L54 0 zM63 27 L81 27 L81 9 L63 9 L63 27 zM18 18 L36 18 L36 0 L18 0 L18 18 zM18 9 L36 9 L36 -9 L18 -9 L18 9 zM27 0 L45 0 L45 -18 L27 -18 L27 0 zM36 36 L54 36 L54 18 L36 18 L36 36 z" />
<glyph unicode="个" horiz-adv-x="82" d="M18 36 L18 27 L0 27 L0 45 L9 45 L9 54 L18 54 L18 63 L36 63 L36 45 L27 45 L27 36 L18 36 zM27 27 L45 27 L45 18 L45 9 L45 0 L27 0 L27 9 L27 18 L27 27 zM72 45 L72 27 L54 27 L54 36 L45 36 L45 54 L63 54 L63 45 L72 45 z" />
<glyph unicode="中" horiz-adv-x="82" d="M27 99 L45 99 L45 81 L27 81 L27 99 zM27 90 L45 90 L45 72 L27 72 L27 90 zM9 90 L27 90 L27 72 L9 72 L9 90 zM45 90 L63 90 L63 72 L45 72 L45 90 zM9 63 L27 63 L27 45 L9 45 L9 63 zM0 90 L18 90 L18 72 L0 72 L0 90 zM0 72 L18 72 L18 54 L0 54 L0 72 zM45 63 L63 63 L63 45 L45 45 L45 63 zM54 81 L72 81 L72 63 L54 63 L54 81 zM54 63 L72 63 L72 45 L54 45 L54 63 zM27 72 L45 72 L45 54 L27 54 L27 72 zM27 54 L45 54 L45 36 L27 36 L27 54 z" />
<glyph unicode="丰" horiz-adv-x="46" d="M27 63 L27 54 L36 54 L36 36 L27 36 L27 27 L36 27 L36 9 L27 9 L27 0 L9 0 L9 9 L0 9 L0 27 L9 27 L9 36 L0 36 L0 54 L9 54 L9 63 L0 63 L0 81 L9 81 L9 90 L27 90 L27 81 L36 81 L36 63 L27 63 z" />
<glyph unicode="串" horiz-adv-x="82" d="M63 81 L72 81 L72 63 L72 45 L63 45 L54 45 L45 45 L45 36 L27 36 L27 45 L9 45 L9 54 L0 54 L0 72 L0 90 L9 90 L18 90 L27 90 L27 99 L45 99 L45 90 L63 90 C63 87 63 84 63 81 zM18 63 L27 63 L27 72 L18 72 C18 69 18 66 18 63 zM45 63 L54 63 L54 72 L45 72 C45 69 45 66 45 63 zM63 27 L72 27 L72 9 L72 -9 L63 -9 L54 -9 L45 -9 L45 -18 L27 -18 L27 -9 L9 -9 L9 0 L0 0 L0 18 L0 36 L9 36 L18 36 L27 36 L27 45 L45 45 L45 36 L63 36 C63 33 63 30 63 27 zM18 9 L27 9 L27 18 L18 18 C18 15 18 12 18 9 zM45 9 L54 9 L54 18 L45 18 C45 15 45 12 45 9 z" />
<glyph unicode="临" horiz-adv-x="136" d="M72 18 L81 18 L81 27 L72 27 L72 18 zM99 18 L108 18 L108 27 L99 27 L99 18 zM0 72 L18 72 L18 54 L18 36 L0 36 L0 54 L0 72 zM27 81 L45 81 L45 63 L45 45 L27 45 L27 63 L27 81 zM27 45 L45 45 L45 27 L27 27 L27 45 zM108 36 L126 36 L126 18 L126 0 L108 0 L90 0 L72 0 L54 0 L54 9 L54 18 L54 27 L54 45 L72 45 L90 45 L108 45 C108 42 108 39 108 36 zM72 54 L54 54 L54 72 L63 72 L63 90 L81 90 L81 81 L90 81 L108 81 L108 63 L99 63 L99 54 L81 54 L81 63 L72 63 L72 54 z" />
<glyph unicode="丸" horiz-adv-x="100" d="M90 27 L81 27 L81 18 L72 18 L63 18 L54 18 L45 18 L45 33.192 L45 36 L45 45 L45 51.192 L45 54 L27 54 L27 45 L36 45 L36 27 L27 27 L27 9 L18 9 L18 0 L0 0 L0 18 L9 18 L9 27 L0 27 L0 45 L9 45 L9 54 L0 54 L0 72 L9 72 L9 81 L27 81 L27 72 L45 72 L45 63 L63 63 L63 51.192 L63 45 L63 36 L72 36 L72 45 L90 45 L90 27 z" />
<glyph unicode="丹" horiz-adv-x="100" d="M36 54 L54 54 L54 36 L36 36 L36 54 zM81 27 L90 27 L90 9 L81 9 L81 0 L63 0 L63 9 L54 9 L36 9 L27 9 L27 0 L9 0 L9 9 L0 9 L0 27 L9 27 L9 36 L9 45 L9 54 L9 63 L9 81 L18 81 L27 81 L36 81 L54 81 L63 81 L72 81 L81 81 L81 63 L81 54 L81 45 L81 36 C81 33 81 30 81 27 zM54 27 L63 27 L63 36 L63 45 L63 54 L63 63 L54 63 L36 63 L27 63 L27 54 L27 45 L27 36 L27 27 L36 27 C42 27 48 27 54 27 z" />
<glyph unicode="为" horiz-adv-x="82" d="M0 90 L18 90 L18 72 L0 72 L0 90 zM54 72 L72 72 L72 63 L72 54 L72 45 L72 27 L72 9 L63 9 L63 0 L45 0 L45 18 L54 18 L54 27 L45 27 L45 18 L36 18 L36 9 L18 9 L18 27 L27 27 L27 36 L27 54 L18 54 L18 72 L27 72 L27 81 L45 81 L45 72 C48 72 51 72 54 72 zM54 45 L54 54 L45 54 L45 45 C48 45 51 45 54 45 z" />
<glyph unicode="主" horiz-adv-x="46" d="M0 72 L18 72 L18 54 L0 54 L0 72 zM9 54 L27 54 L27 36 L9 36 L9 54 zM18 45 L36 45 L36 27 L18 27 L18 45 zM0 45 L18 45 L18 27 L0 27 L0 45 zM9 36 L27 36 L27 18 L9 18 L9 36 zM18 18 L36 18 L36 0 L18 0 L18 18 zM0 18 L18 18 L18 0 L0 0 L0 18 zM9 99 L27 99 L27 81 L9 81 L9 99 zM18 72 L36 72 L36 54 L18 54 L18 72 z" />
<glyph unicode="丽" horiz-adv-x="111.628" d="M27 54 L29.628 54 L45 54 L45 36 L45 18 L45 0 L27 0 L27 9 L18 9 L18 0 L0 0 L0 18 L0 36 L0 54 L11.628 54 L18 54 C21 54 24 54 27 54 zM27 36 L18 36 L18 27 L27 27 C27 30 27 33 27 36 zM56.628 63 L45 63 L29.628 63 L27 63 L18 63 L11.628 63 L0 63 L0 81 L11.628 81 L18 81 L27 81 L29.628 81 L45 81 L56.628 81 L63 81 L72 81 L74.628 81 L90 81 L90 63 L74.628 63 L72 63 L63 63 L56.628 63 zM86.256 54 L101.628 54 L101.628 36 L101.628 18 L101.628 0 L83.628 0 L83.628 9 L74.628 9 L74.628 0 L56.628 0 L56.628 18 L56.628 36 L56.628 54 L68.256 54 L74.628 54 L83.628 54 C84.504 54 85.38 54 86.256 54 zM83.628 36 L74.628 36 L74.628 27 L83.628 27 C83.628 30 83.628 33 83.628 36 z" />
<glyph unicode="举" horiz-adv-x="100" d="M36 63 L36 45 L27 45 L27 36 L9 36 L9 54 L18 54 L18 63 L27 63 L27 72 L18 72 L0 72 L0 90 L9 90 L9 99 L27 99 L27 90 L36 90 L36 99 L54 99 L54 90 L63 90 L63 99 L81 99 L81 90 L90 90 L90 72 L72 72 L54 72 L45 72 L45 63 L36 63 zM63 45 L54 45 L54 63 L72 63 L72 54 L81 54 L81 36 L63 36 L63 45 zM36 36 L36 45 L54 45 L54 36 L63 36 L63 18 L54 18 L54 9 L63 9 L63 -9 L54 -9 L54 -18 L36 -18 L36 -9 L27 -9 L27 9 L36 9 L36 18 L27 18 L27 36 L36 36 z" />
<glyph unicode="乃" horiz-adv-x="82" d="M72 54 L72 36 L72 18 L63 18 L63 9 L54 9 L54 0 L36 0 L36 18 L45 18 L45 27 L54 27 L54 36 L45 36 L45 45 L36 45 L36 63 L45 63 L45 72 L36 72 L36 63 L27 63 L27 45 L18 45 L18 36 L0 36 L0 54 L9 54 L9 63 L18 63 L18 72 L9 72 L9 90 L27 90 L36 90 L45 90 L54 90 L63 90 L63 81 L63 72 L63 63 L54 63 L54 54 L63 54 L72 54 z" />
<glyph unicode="久" horiz-adv-x="82" d="M72 18 L72 0 L54 0 L54 9 L45 9 L45 18 L36 18 L36 9 L27 9 L27 0 L9 0 L9 18 L18 18 L18 27 L27 27 L27 36 L36 36 L36 45 L27 45 L18 45 L18 36 L0 36 L0 54 L9 54 L9 63 L18 63 L18 72 L36 72 L36 63 L45 63 L63 63 L63 45 L54 45 L54 36 L45 36 L45 27 L63 27 L63 18 L72 18 z" />
<glyph unicode="么" horiz-adv-x="91" d="M18 90 L36 90 L36 72 L18 72 L18 90 zM9 72 L27 72 L27 54 L9 54 L9 72 zM0 54 L18 54 L18 36 L0 36 L0 54 zM36 72 L54 72 L54 54 L36 54 L36 72 zM27 54 L45 54 L45 36 L27 36 L27 54 zM18 36 L36 36 L36 18 L18 18 L18 36 zM9 18 L27 18 L27 0 L9 0 L9 18 zM27 27 L45 27 L45 9 L27 9 L27 27 zM45 27 L63 27 L63 9 L45 9 L45 27 zM63 18 L81 18 L81 0 L63 0 L63 18 zM54 36 L72 36 L72 18 L54 18 L54 36 z" />
<glyph unicode="义" horiz-adv-x="82" d="M27 72 L45 72 L45 54 L27 54 L27 72 zM72 45 L63 45 L63 36 L54 36 L54 27 L45 27 L45 18 L36 18 L36 9 L27 9 L27 0 L9 0 L9 18 L18 18 L18 27 L27 27 L27 36 L36 36 L36 45 L45 45 L45 54 L54 54 L54 63 L72 63 L72 45 zM27 54 L27 36 L9 36 L9 45 L0 45 L0 63 L18 63 L18 54 L27 54 zM45 18 L63 18 L63 0 L45 0 L45 18 z" />
<glyph unicode="之" horiz-adv-x="73" d="M9 90 L27 90 L27 72 L9 72 L9 90 zM63 18 L63 0 L54 0 L45 0 L36 0 L36 9 L27 9 L27 18 L18 18 L18 9 L0 9 L0 27 L9 27 L9 36 L18 36 L18 45 L9 45 L0 45 L0 63 L9 63 L18 63 L27 63 L45 63 L45 45 L36 45 L36 36 L27 36 L27 27 L45 27 L45 18 L54 18 L63 18 z" />
<glyph unicode="乌" horiz-adv-x="64" d="M54 54 L54 45 L54 36 L54 27 L54 9 L45 9 L45 0 L27 0 L27 9 L18 9 L9 9 L0 9 L0 27 L9 27 L18 27 L27 27 L27 18 L36 18 L36 27 L36 36 L27 36 L18 36 L0 36 L0 54 L0 63 L0 72 L0 81 L0 90 L9 90 L9 99 L27 99 L27 90 L36 90 L45 90 L45 81 L45 72 L45 63 L27 63 L27 72 L18 72 L18 63 L18 54 L27 54 L36 54 L45 54 L54 54 z" />
<glyph unicode="乍" horiz-adv-x="64" d="M45 63 L45 54 L54 54 L54 36 L45 36 L45 27 L54 27 L54 9 L45 9 L45 0 L27 0 L27 9 L27 18 L27 27 L27 45 L27 63 L18 63 L18 54 L0 54 L0 72 L9 72 L9 81 L18 81 L18 90 L36 90 L36 81 L45 81 L54 81 L54 63 L45 63 z" />
<glyph unicode="乎" horiz-adv-x="82" d="M45 54 L54 54 L54 36 L45 36 L45 27 L45 18 L45 9 L36 9 L36 0 L18 0 L18 18 L27 18 L27 27 L27 36 L18 36 L18 54 L27 54 L27 72 L18 72 L18 90 L27 90 L36 90 L36 99 L54 99 L54 81 L45 81 L45 72 L45 54 zM0 72 L18 72 L18 54 L0 54 L0 72 zM54 72 L72 72 L72 54 L54 54 L54 72 z" />
<glyph unicode="乐" horiz-adv-x="82" d="M54 27 L72 27 L72 9 L54 9 L54 27 L45 27 L45 18 C45 15 45 12 45 9 L36 9 L36 0 L18 0 L18 18 L27 18 L27 27 L18 27 L18 36 L0 36 L0 45 L0 54 L0 63 L9 63 L9 72 L18 72 L18 81 L27 81 L36 81 L45 81 L45 63 L36 63 L27 63 L27 54 L45 54 L45 45 L54 45 C54 39 54 33 54 27 zM0 27 L18 27 L18 9 L0 9 L0 27 zM27.12168 54.06342 C24.83997 54.06342 20.27655 54.06342 17.99484 54.06342 C17.99484 51.69395 17.99484 46.95502 17.99484 44.58555 C20.27655 44.58555 24.83997 44.58555 27.12168 44.58555 C27.12168 46.95502 27.12168 51.69395 27.12168 54.06342 z" />
<glyph unicode="乔" horiz-adv-x="109" d="M36 63 L54 63 L54 45 L36 45 L36 63 zM18 63 L36 63 L36 45 L18 45 L18 63 zM9 63 L27 63 L27 45 L9 45 L9 63 zM27 54 L45 54 L45 36 L27 36 L27 54 zM18 36 L36 36 L36 18 L18 18 L18 36 zM0 27 L18 27 L18 9 L0 9 L0 27 zM72 36 L90 36 L90 18 L72 18 L72 36 zM54 54 L72 54 L72 36 L54 36 L54 54 zM18 0 L36 0 L36 -18 L18 -18 L18 0 zM54 0 L72 0 L72 -18 L54 -18 L54 0 zM27 27 L45 27 L45 9 L27 9 L27 27 zM27 9 L45 9 L45 -9 L27 -9 L27 9 zM54 27 L72 27 L72 9 L54 9 L54 27 zM54 18 L72 18 L72 0 L54 0 L54 18 zM81 27 L99 27 L99 9 L81 9 L81 27 zM36 81 L54 81 L54 63 L36 63 L36 81 zM36 90 L54 90 L54 72 L36 72 L36 90 zM54 63 L72 63 L72 45 L54 45 L54 63 zM72 63 L90 63 L90 45 L72 45 L72 63 zM18 90 L36 90 L36 72 L18 72 L18 90 zM54 90 L72 90 L72 72 L54 72 L54 90 zM63 99 L81 99 L81 81 L63 81 L63 99 z" />
<glyph unicode="乙" horiz-adv-x="64" d="M0 72 L18 72 L18 54 L0 54 L0 72 zM27 72 L45 72 L45 54 L27 54 L27 72 zM18 63 L36 63 L36 45 L18 45 L18 63 zM9 72 L27 72 L27 54 L9 54 L9 72 zM9 45 L27 45 L27 27 L9 27 L9 45 zM0 27 L18 27 L18 9 L0 9 L0 27 zM9 18 L27 18 L27 0 L9 0 L9 18 zM27 18 L45 18 L45 0 L27 0 L27 18 zM36 27 L54 27 L54 9 L36 9 L36 27 z" />
<glyph unicode="九" horiz-adv-x="91" d="M81 9 L72 9 L72 0 L63 0 L54 0 L45 0 L45 9 L36 9 L36 27 L27 27 L27 9 L18 9 L18 0 L0 0 L0 18 L9 18 L9 27 L0 27 L0 45 L9 45 L9 54 L27 54 L27 45 L36 45 L54 45 L54 27 L54 18 L63 18 L63 27 L81 27 L81 9 z" />
<glyph unicode="也" horiz-adv-x="109" d="M99 9 L90 9 L90 0 L72 0 L54 0 L36 0 L18 0 L18 9 L9 9 L9 18 L9 27 L9 36 L0 36 L0 54 L9 54 L9 63 L9 72 L27 72 L27 63 L36 63 L36 72 L36 81 L54 81 L54 72 L72 72 L72 63 L90 63 L90 54 L90 45 L90 36 L81 36 L81 27 L63 27 L63 45 L72 45 L72 54 L54 54 L54 45 L54 36 L54 27 L36 27 L36 36 L36 45 L27 45 L27 36 L27 27 L27 18 L36 18 L54 18 L72 18 L81 18 L81 27 L99 27 L99 9 z" />
<glyph unicode="习" horiz-adv-x="55" d="M45 81 L45 72 L45 63 L45 54 L45 36 L45 27 L45 18 L45 9 L36 9 L36 0 L18 0 L18 18 L27 18 L27 27 L27 36 L27 54 L27 63 L18 63 L18 81 L27 81 L36 81 L45 81 zM0 63 L18 63 L18 45 L0 45 L0 63 zM0 36 L18 36 L18 18 L0 18 L0 36 z" />
<glyph unicode="乡" horiz-adv-x="82" d="M36 45 L36 36 L18 36 L18 45 L0 45 L0 63 L9 63 L9 81 L18 81 L18 90 L36 90 L36 72 L27 72 L27 63 L18 63 L18 54 L27 54 L27 63 L36 63 L36 72 L54 72 L54 54 L45 54 L45 45 L36 45 zM72 36 L63 36 L63 27 L54 27 L54 18 L36 18 L36 36 L45 36 L45 45 L54 45 L54 54 L72 54 L72 36 zM18 18 L36 18 L36 0 L18 0 L18 18 z" />
<glyph unicode="书" horiz-adv-x="73" d="M0 63 L18 63 L18 45 L0 45 L0 63 zM18 63 L36 63 L36 45 L18 45 L18 63 zM36 63 L54 63 L54 45 L36 45 L36 63 zM45 72 L63 72 L63 54 L45 54 L45 72 zM36 45 L54 45 L54 27 L36 27 L36 45 zM0 36 L18 36 L18 18 L0 18 L0 36 zM18 36 L36 36 L36 18 L18 18 L18 36 zM9 72 L27 72 L27 54 L9 54 L9 72 zM9 45 L27 45 L27 27 L9 27 L9 45 zM9 18 L27 18 L27 0 L9 0 L9 18 zM36 36 L54 36 L54 18 L36 18 L36 36 zM45 36 L63 36 L63 18 L45 18 L45 36 zM45 27 L63 27 L63 9 L45 9 L45 27 z" />
<glyph unicode="买" horiz-adv-x="73" d="M36 81 L0 81 L0 99 L54 99 L54 72 L36 72 L36 81 zM0 72 L18 72 L18 54 L0 54 L0 72 zM0 45 L18 45 L18 27 L0 27 L0 45 zM45 9 L45 0 L36 0 L36 -18 L18 -18 L18 0 L27 0 L27 9 L18 9 L18 27 L27 27 L27 36 L45 36 L45 27 L54 27 L54 9 L45 9 zM45 0 L63 0 L63 -18 L45 -18 L45 0 z" />
<glyph unicode="乱" horiz-adv-x="109.09" d="M36 72 L27 72 L27 63 L36 63 L36 45 L27 45 L27 36 L45 36 L45 27 L45 18 L45 9 L36 9 L36 0 L27 0 L18 0 L9 0 L9 9 L0 9 L0 18 L0 27 L0 36 L9 36 L9 45 L0 45 L0 63 L9 63 L9 72 L0 72 L0 90 L9 90 L18 90 L27 90 L27 99 L45 99 L45 81 L36 81 C36 78 36 75 36 72 zM27 18 L27 27 L18 27 L18 18 C21 18 24 18 27 18 zM99.09 54 L90.09 54 L90.09 45 L81.09 45 L72.09 45 L63.09 45 L63.09 54 L54.09 54 L54.09 72 L54.09 90 L72.09 90 L72.09 72 L72.09 63 L81.09 63 L81.09 72 L99.09 72 L99.09 54 z" />
<glyph unicode="乳" horiz-adv-x="127" d="M0 63 L18 63 L18 45 L0 45 L0 63 zM27 63 L45 63 L45 45 L27 45 L27 63 zM54 63 L72 63 L72 45 L54 45 L54 63 zM9 72 L0 72 L0 90 L9 90 L18 90 L18 99 L36 99 L36 81 L27 81 L27 72 L18 72 L9 72 zM27 36 L45 36 L45 27 L45 18 L45 9 L36 9 L36 0 L45 0 L45 -18 L36 -18 L36 -27 L36 -36 L27 -36 L27 -45 L9 -45 L9 -27 L18 -27 L18 -18 L9 -18 L9 0 L18 0 L18 9 L27 9 L27 18 L9 18 L9 36 L27 36 zM117 9 L108 9 L108 0 L99 0 L90 0 L81 0 L81 9 L72 9 L72 27 L72 45 L90 45 L90 27 L90 18 L99 18 L99 27 L117 27 L117 9 z" />
<glyph unicode="了" horiz-adv-x="46" d="M36 72 L36 63 L36 54 L36 45 L27 45 L27 27 L27 9 L20.952 9 L20.952 0 L2.952 0 L2.952 18 L9 18 L9 27 L9 45 L18 45 L18 54 L0 54 L0 72 L18 72 L36 72 z" />
<glyph unicode="予" horiz-adv-x="64" d="M18 81 L0 81 L0 99 L18 99 L27 99 L36 99 L45 99 L45 81 L36 81 L36 72 L27 72 L27 63 L36 63 L36 45 L18 45 L18 54 L9 54 L9 72 L18 72 L18 81 zM45 27 L54 27 L54 9 L36 9 L36 18 L27 18 L27 9 L27 0 L27 -9 L18 -9 L18 -18 L0 -18 L0 0 L9 0 L9 9 L9 18 L0 18 L0 36 L9 36 L18 36 L27 36 L45 36 L45 27 z" />
<glyph unicode="争" horiz-adv-x="91" d="M72 45 L81 45 L81 27 L72 27 L72 18 L54 18 L54 27 L45 27 L45 18 L54 18 L72 18 L72 0 L54 0 L45 0 L45 -18 L36 -18 L36 -27 L18 -27 L18 -9 L27 -9 L27 0 L18 0 L18 18 L27 18 L27 27 L18 27 L18 45 L27 45 L27 54 L18 54 L18 63 L0 63 L0 81 L9 81 L9 90 L18 90 L18 99 L36 99 L36 90 L45 90 L54 90 L63 90 L63 72 L72 72 L72 63 L72 54 L72 45 L54 45 L54 54 L45 54 L45 45 L54 45 L63 45 C66 45 69 45 72 45 zM36 72 L36 81 L27 81 L27 72 C30 72 33 72 36 72 z" />
<glyph unicode="事" horiz-adv-x="91" d="M9 9 L27 9 L27 -9 L9 -9 L9 9 zM27 9 L45 9 L45 -9 L27 -9 L27 9 zM45 9 L63 9 L63 -9 L45 -9 L45 9 zM9 36 L27 36 L27 18 L9 18 L9 36 zM27 36 L45 36 L45 18 L27 18 L27 36 zM27 27 L45 27 L45 9 L27 9 L27 27 zM45 36 L63 36 L63 18 L45 18 L45 36 zM9 63 L27 63 L27 45 L9 45 L9 63 zM0 54 L18 54 L18 36 L0 36 L0 54 zM27 63 L45 63 L45 45 L27 45 L27 63 zM27 45 L45 45 L45 27 L27 27 L27 45 zM27 72 L45 72 L45 54 L27 54 L27 72 zM27 99 L45 99 L45 81 L27 81 L27 99 zM45 63 L63 63 L63 45 L45 45 L45 63 zM18 90 L36 90 L36 72 L18 72 L18 90 zM0 90 L18 90 L18 72 L0 72 L0 90 zM36 90 L54 90 L54 72 L36 72 L36 90 zM54 90 L72 90 L72 72 L54 72 L54 90 zM54 54 L72 54 L72 36 L54 36 L54 54 zM0 45 L18 45 L18 27 L0 27 L0 45 zM54 45 L72 45 L72 27 L54 27 L54 45 zM36 -18 L54 -18 L54 -36 L36 -36 L36 -18 zM18 -18 L36 -18 L36 -36 L18 -36 L18 -18 zM63 -18 L81 -18 L81 -36 L63 -36 L63 -18 zM54 -18 L72 -18 L72 -36 L54 -36 L54 -18 zM54 0 L72 0 L72 -18 L54 -18 L54 0 zM54 -36 L72 -36 L72 -54 L54 -54 L54 -36 zM27 -9 L45 -9 L45 -27 L27 -27 L27 -9 zM27 -27 L45 -27 L45 -45 L27 -45 L27 -27 zM45 -45 L63 -45 L63 -63 L45 -63 L45 -45 zM27 -45 L45 -45 L45 -63 L27 -63 L27 -45 zM27 -63 L45 -63 L45 -81 L27 -81 L27 -63 zM18 -72 L36 -72 L36 -90 L18 -90 L18 -72 zM9 -45 L27 -45 L27 -63 L9 -63 L9 -45 zM0 -18 L18 -18 L18 -36 L0 -36 L0 -18 z" />
<glyph unicode="二" horiz-adv-x="46" d="M0 45 L18 45 L18 27 L0 27 L0 45 zM18 45 L36 45 L36 27 L18 27 L18 45 zM0 18 L18 18 L18 0 L0 0 L0 18 zM18 18 L36 18 L36 0 L18 0 L18 18 z" />
<glyph unicode="于" horiz-adv-x="64" d="M9 72 L27 72 L27 54 L9 54 L9 72 zM9 18 L27 18 L27 0 L9 0 L9 18 zM27 72 L45 72 L45 54 L27 54 L27 72 zM18 54 L36 54 L36 36 L18 36 L18 54 zM0 45 L18 45 L18 27 L0 27 L0 45 zM18 45 L36 45 L36 27 L18 27 L18 45 zM36 45 L54 45 L54 27 L36 27 L36 45 zM18 27 L36 27 L36 9 L18 9 L18 27 z" />
<glyph unicode="云" horiz-adv-x="82" d="M27 72 L9 72 L9 90 L27 90 L45 90 L45 72 L27 72 zM72 18 L72 0 L54 0 L54 9 L36 9 L18 9 L0 9 L0 27 L9 27 L9 36 L18 36 L18 45 L9 45 L9 63 L27 63 L45 63 L45 45 L36 45 L36 36 L27 36 L27 27 L36 27 L45 27 L45 36 L63 36 L63 18 L72 18 z" />
<glyph unicode="互" horiz-adv-x="73" d="M54 18 L63 18 L63 0 L45 0 L27 0 L27 18 L36 18 L36 27 L18 27 L18 36 L9 36 L9 45 L9 54 L9 63 L9 81 L0 81 L0 99 L18 99 L36 99 L36 81 L27 81 L27 72 L36 72 L45 72 L54 72 L54 54 L54 36 C54 30 54 24 54 18 zM27 45 L36 45 L36 54 L27 54 C27 51 27 48 27 45 z" />
<glyph unicode="五" horiz-adv-x="73" d="M54 18 L63 18 L63 0 L54 0 L45 0 L36 0 L18 0 L0 0 L0 18 L9 18 L9 27 L0 27 L0 45 L9 45 L9 54 L0 54 L0 72 L18 72 L36 72 L36 54 L27 54 L27 45 L36 45 L54 45 L54 36 L54 27 C54 24 54 21 54 18 zM27 18 L36 18 L36 27 L27 27 C27 24 27 21 27 18 z" />
<glyph unicode="井" horiz-adv-x="73" d="M9 63 L27 63 L27 45 L9 45 L9 63 zM9 45 L27 45 L27 27 L9 27 L9 45 zM36 63 L54 63 L54 45 L36 45 L36 63 zM36 36 L54 36 L54 18 L36 18 L36 36 zM27 54 L45 54 L45 36 L27 36 L27 54 zM45 54 L63 54 L63 36 L45 36 L45 54 zM18 27 L36 27 L36 9 L18 9 L18 27 zM45 27 L63 27 L63 9 L45 9 L45 27 zM0 54 L18 54 L18 36 L0 36 L0 54 zM0 27 L18 27 L18 9 L0 9 L0 27 zM9 18 L27 18 L27 0 L9 0 L9 18 zM36 18 L54 18 L54 0 L36 0 L36 18 z" />
<glyph unicode="亚" horiz-adv-x="109" d="M0 45 L18 45 L18 27 L0 27 L0 45 zM81 45 L99 45 L99 27 L81 27 L81 45 zM72 27 L72 18 L81 18 L81 0 L72 0 L63 0 L54 0 L45 0 L36 0 L27 0 L18 0 L18 18 L27 18 L27 27 L27 36 L27 45 L27 54 L18 54 L18 72 L27 72 L36 72 L45 72 L54 72 L63 72 L72 72 L81 72 L81 54 L72 54 L72 45 L72 36 C72 33 72 30 72 27 zM45 18 L54 18 L54 27 L54 36 L54 45 L54 54 L45 54 L45 45 L45 36 L45 27 C45 24 45 21 45 18 z" />
<glyph unicode="些" horiz-adv-x="136" d="M9 45 L0 45 L0 63 L9 63 L9 72 L27 72 L27 63 L36 63 L36 81 L36 99 L54 99 L54 90 L63 90 L63 72 L54 72 L54 63 L63 63 L63 45 L45 45 L27 45 L18 45 L9 45 zM126 54 L117 54 L117 45 L99 45 L81 45 L81 54 L72 54 L72 99 L90 99 L90 90 L99 90 L99 99 L117 99 L117 81 L99 81 L99 72 L90 72 L90 63 L99 63 L108 63 L108 72 L126 72 L126 54 zM54 36 L72 36 L72 18 L54 18 L54 36 zM63 36 L81 36 L81 18 L63 18 L63 36 zM54 9 L72 9 L72 -9 L54 -9 L54 9 zM72 9 L90 9 L90 -9 L72 -9 L72 9 z" />
<glyph unicode="亡" horiz-adv-x="55" d="M18 72 L36 72 L36 54 L18 54 L18 72 zM27 27 L27 18 L36 18 L45 18 L45 0 L36 0 L27 0 L18 0 L9 0 L9 9 L9 18 L9 27 L0 27 L0 45 L18 45 L27 45 L36 45 L45 45 L45 27 L36 27 L27 27 z" />
<glyph unicode="亢" horiz-adv-x="91" d="M27 54 L9 54 L9 72 L18 72 L18 81 L36 81 L36 72 L45 72 L45 54 L27 54 zM81 9 L72 9 L72 0 L54 0 L36 0 L36 18 L36 27 L27 27 L27 18 L27 9 L18 9 L18 0 L0 0 L0 18 L9 18 L9 27 L9 36 L9 45 L27 45 L36 45 L45 45 L54 45 L54 36 L54 27 L54 18 L63 18 L63 27 L81 27 L81 9 z" />
<glyph unicode="交" horiz-adv-x="91" d="M36 72 L54 72 L54 54 L36 54 L36 72 zM27 99 L45 99 L45 81 L27 81 L27 99 zM54 72 L72 72 L72 54 L54 54 L54 72 zM63 72 L81 72 L81 54 L63 54 L63 72 zM18 72 L36 72 L36 54 L18 54 L18 72 zM0 72 L18 72 L18 54 L0 54 L0 72 zM18 27 L36 27 L36 9 L18 9 L18 27 zM27 18 L45 18 L45 0 L27 0 L27 18 zM45 27 L63 27 L63 9 L45 9 L45 27 zM9 54 L27 54 L27 36 L9 36 L9 54 zM54 54 L72 54 L72 36 L54 36 L54 54 zM18 0 L36 0 L36 -18 L18 -18 L18 0 zM45 0 L63 0 L63 -18 L45 -18 L45 0 zM0 45 L18 45 L18 27 L0 27 L0 45 zM63 45 L81 45 L81 27 L63 27 L63 45 z" />
<glyph unicode="亥" horiz-adv-x="82" d="M9 90 L27 90 L27 72 L9 72 L9 90 zM9 63 L27 63 L27 45 L9 45 L9 63 zM0 54 L18 54 L18 36 L0 36 L0 54 zM36 54 L54 54 L54 36 L36 36 L36 54 zM27 45 L45 45 L45 27 L27 27 L27 45 zM18 36 L36 36 L36 18 L18 18 L18 36 zM45 27 L63 27 L63 9 L45 9 L45 27 zM36 18 L54 18 L54 0 L36 0 L36 18 zM54 0 L72 0 L72 -18 L54 -18 L54 0 zM27 9 L45 9 L45 -9 L27 -9 L27 9 zM0 81 L18 81 L18 63 L0 63 L0 81 zM18 81 L36 81 L36 63 L18 63 L18 81 z" />
<glyph unicode="亦" horiz-adv-x="109" d="M81 45 L72 45 L72 27 L72 18 L72 9 L72 0 L54 0 L54 9 L54 18 L54 27 L54 45 L45 45 L45 27 L45 9 L36 9 L36 0 L18 0 L18 18 L27 18 L27 27 L27 45 L18 45 L18 63 L36 63 L36 72 L54 72 L54 63 L63 63 L72 63 L81 63 L81 45 zM81 36 L99 36 L99 18 L81 18 L81 36 zM0 36 L18 36 L18 18 L0 18 L0 36 z" />
<glyph unicode="产" horiz-adv-x="82" d="M72 63 L63 63 L63 54 L72 54 L72 36 L63 36 L54 36 L45 36 L27 36 L27 27 L27 18 L27 9 L18 9 L18 0 L0 0 L0 18 L9 18 L9 27 L9 36 L9 54 L18 54 L18 63 L9 63 L9 81 L27 81 L27 90 L45 90 L45 81 L54 81 L63 81 L72 81 C72 75 72 69 72 63 zM45 54 L45 63 L36 63 L36 54 C39 54 42 54 45 54 z" />
<glyph unicode="享" horiz-adv-x="55" d="M9 90 L9 99 L27 99 L27 90 L36 90 L36 72 L18 72 L0 72 L0 90 L9 90 zM0 63 L18 63 L36 63 L36 45 L45 45 L45 36 L45 27 L45 18 L27 18 L9 18 L9 27 L0 27 L0 45 C0 51 0 57 0 63 zM18 45 L18 36 L27 36 L27 45 C24 45 21 45 18 45 zM45 9 L45 0 L45 -9 L45 -18 L36 -18 L36 -27 L45 -27 L45 -45 L36 -45 L36 -54 L36 -63 L27 -63 L27 -72 L9 -72 L9 -54 L18 -54 L18 -45 L9 -45 L9 -27 L18 -27 L18 -18 L27 -18 L27 -9 L9 -9 L9 9 L27 9 L45 9 z" />
<glyph unicode="京" horiz-adv-x="82" d="M27 72 L9 72 L9 90 L18 90 L18 99 L36 99 L36 90 L45 90 L45 72 L27 72 zM54 27 L72 27 L72 9 L54 9 L54 27 zM54 36 L45 36 L45 27 L45 18 L45 9 L36 9 L36 0 L18 0 L18 9 L0 9 L0 27 L18 27 L18 18 L27 18 L27 27 L27 36 L36 36 L36 45 L27 45 L27 36 L9 36 L9 45 L9 54 L9 63 L27 63 L36 63 L45 63 L54 63 L54 54 L54 45 L54 36 z" />
<glyph unicode="亭" horiz-adv-x="100" d="M36 73 L18 73 L18 91 L27 91 L27 100 L45 100 L45 91 L54 91 L54 73 L36 73 zM45 1 L63 1 L63 -17 L54 -17 L54 -26 L54 -35 L54 -44 L45 -44 L45 -53 L27 -53 L27 -35 L36 -35 L36 -26 L36 -17 L27 -17 L27 1 L45 1 zM72 28 L90 28 L90 10 L90 -8 L72 -8 L72 10 L54 10 L36 10 L18 10 L18 -8 L0 -8 L0 10 L0 28 L18 28 L18 46 L18 64 L36 64 L54 64 L54 55 L63 55 L63 46 L63 37 L63 28 C66 28 69 28 72 28 zM45 46 L36 46 L36 37 L45 37 C45 40 45 43 45 46 z" />
<glyph unicode="亮" horiz-adv-x="100" d="M36 72 L18 72 L18 90 L27 90 L27 99 L45 99 L45 90 L54 90 L54 72 L36 72 zM63 27 L81 27 L81 9 L81 0 L63 0 L63 9 L54 9 L36 9 L18 9 L18 0 L0 0 L0 9 L0 27 L18 27 L18 45 L18 63 L36 63 L54 63 L54 54 L63 54 L63 45 L63 36 C63 33 63 30 63 27 zM45 45 L36 45 L36 36 L45 36 C45 39 45 42 45 45 zM90 -36 L81 -36 L81 -45 L72 -45 L63 -45 L54 -45 L54 -36 L45 -36 L45 -18 L36 -18 L36 -36 L27 -36 L27 -45 L9 -45 L9 -27 L18 -27 L18 -18 L18 0 L36 0 L45 0 L54 0 L63 0 L63 -18 L63 -27 L72 -27 L72 -18 L90 -18 L90 -36 z" />
<glyph unicode="亲" horiz-adv-x="82" d="M72 72 L63 72 L63 63 L72 63 L72 45 L63 45 L54 45 L45 45 L45 36 L54 36 L63 36 L72 36 L72 18 L63 18 L54 18 L45 18 L45 0 L27 0 L27 9 L18 9 L18 18 L9 18 L9 36 L27 36 L27 45 L9 45 L9 63 L18 63 L18 72 L9 72 L9 90 L27 90 L27 99 L45 99 L45 90 L54 90 L63 90 L72 90 C72 84 72 78 72 72 zM36 63 L45 63 L45 72 L36 72 C36 69 36 66 36 63 zM0 9 L18 9 L18 -9 L0 -9 L0 9 zM54 9 L72 9 L72 -9 L54 -9 L54 9 z" />
<glyph unicode="人" horiz-adv-x="82" d="M45 36 L36 36 L36 18 L27 18 L27 9 L18 9 L18 0 L0 0 L0 18 L9 18 L9 27 L18 27 L18 36 L27 36 L27 54 L45 54 L45 36 zM72 18 L72 0 L54 0 L54 9 L45 9 L45 27 L63 27 L63 18 L72 18 z" />
<glyph unicode="亿" horiz-adv-x="109" d="M9 36 L27 36 L27 18 L9 18 L9 36 zM9 54 L27 54 L27 36 L9 36 L9 54 zM18 63 L36 63 L36 45 L18 45 L18 63 zM0 45 L18 45 L18 27 L0 27 L0 45 zM45 72 L63 72 L63 54 L45 54 L45 72 zM72 72 L90 72 L90 54 L72 54 L72 72 zM63 63 L81 63 L81 45 L63 45 L63 63 zM54 72 L72 72 L72 54 L54 54 L54 72 zM54 45 L72 45 L72 27 L54 27 L54 45 zM45 27 L63 27 L63 9 L45 9 L45 27 zM54 18 L72 18 L72 0 L54 0 L54 18 zM72 18 L90 18 L90 0 L72 0 L72 18 zM81 27 L99 27 L99 9 L81 9 L81 27 z" />
<glyph unicode="什" horiz-adv-x="82" d="M9 27 L27 27 L27 9 L9 9 L9 27 zM9 45 L27 45 L27 27 L9 27 L9 45 zM0 36 L18 36 L18 18 L0 18 L0 36 zM18 54 L36 54 L36 36 L18 36 L18 54 zM45 54 L63 54 L63 36 L45 36 L45 54 zM54 36 L72 36 L72 18 L54 18 L54 36 zM36 36 L54 36 L54 18 L36 18 L36 36 zM45 18 L63 18 L63 0 L45 0 L45 18 z" />
<glyph unicode="仁" horiz-adv-x="73" d="M63 45 L63 27 L54 27 L45 27 L36 27 L36 45 L45 45 L54 45 L63 45 zM54 18 L63 18 L63 0 L54 0 L45 0 L36 0 L36 18 L45 18 L54 18 zM36 63 L36 45 L27 45 L27 39.852 L27 36 L27 27 L27 21.852 L27 9 L9 9 L9 21.852 L9 27 L0 27 L0 45 L9 45 L9 54 L18 54 L18 63 L36 63 z" />
<glyph unicode="仅" horiz-adv-x="118" d="M108 18 L108 0 L90 0 L90 9 L81 9 L81 18 L72 18 L72 9 L63 9 L63 0 L45 0 L45 18 L54 18 L54 27 L72 27 L72 36 L81 36 L81 45 L72 45 L72 36 L54 36 L54 45 L45 45 L45 63 L63 63 L72 63 L81 63 L90 63 L90 54 L99 54 L99 36 L90 36 L90 27 L99 27 L99 18 L108 18 zM36 45 L27 45 L27 36 L27 36 L27 18 L27 0 L9 0 L9 18 L9 27 L0 27 L0 45 L9 45 L9 54 L18 54 L18 63 L36 63 L36 45 z" />
<glyph unicode="今" horiz-adv-x="82" d="M72 72 L72 54 L54 54 L54 63 L36 63 L36 72 L27 72 L27 63 L18 63 L18 54 L0 54 L0 72 L9 72 L9 81 L18 81 L18 90 L36 90 L36 81 L54 81 L54 72 L72 72 zM45 45 L63 45 L63 27 L54 27 L54 9 L45 9 L45 0 L27 0 L27 18 L36 18 L36 27 L27 27 L9 27 L9 45 L27 45 L27 54 L45 54 L45 45 z" />
<glyph unicode="介" horiz-adv-x="73" d="M63 63 L63 45 L45 45 L45 54 L36 54 L36 63 L27 63 L27 54 L18 54 L18 45 L0 45 L0 63 L9 63 L9 72 L18 72 L18 81 L36 81 L36 72 L54 72 L54 63 L63 63 zM9 36 L27 36 L27 27 L27 18 L27 9 L18 9 L18 0 L0 0 L0 18 L9 18 L9 27 L9 36 zM54 36 L54 18 L54 0 L36 0 L36 18 L36 36 L54 36 z" />
<glyph unicode="仍" horiz-adv-x="118" d="M36 45 L27 45 L27 36 L27 18 L9 18 L9 27 L0 27 L0 45 L9 45 L9 54 L18 54 L18 63 L36 63 L36 45 zM45 63 L63 63 L63 45 L45 45 L45 63 zM45 36 L63 36 L63 18 L45 18 L45 36 zM54 54 L72 54 L72 36 L54 36 L54 54 zM63 63 L81 63 L81 45 L63 45 L63 63 zM81 63 L99 63 L99 45 L81 45 L81 63 zM81 45 L99 45 L99 27 L81 27 L81 45 zM90 36 L108 36 L108 18 L90 18 L90 36 zM90 27 L108 27 L108 9 L90 9 L90 27 zM81 18 L99 18 L99 0 L81 0 L81 18 z" />
<glyph unicode="从" horiz-adv-x="145" d="M45 36 L36 36 L36 18 L27 18 L27 9 L18 9 L18 0 L0 0 L0 18 L9 18 L9 27 L18 27 L18 36 L27 36 L27 54 L45 54 L45 36 zM108 36 L99 36 L99 18 L90 18 L90 9 L81 9 L81 0 L63 0 L63 9 L45 9 L45 27 L63 27 L63 18 L72 18 L72 27 L81 27 L81 36 L90 36 L90 54 L108 54 L108 36 zM135 18 L135 0 L117 0 L117 9 L108 9 L108 27 L126 27 L126 18 L135 18 z" />
<glyph unicode="仔" horiz-adv-x="82" d="M72 81 L72 72 L72 63 L72 54 L63 54 L63 45 L72 45 L72 27 L63 27 L63 18 L63 9 L54 9 L54 0 L36 0 L36 18 L45 18 L45 27 L36 27 L36 45 L45 45 L45 54 L54 54 L54 63 L36 63 L36 81 L54 81 L72 81 zM36 81 L27 81 L27 72 L27 54 L9 54 L9 63 L0 63 L0 81 L9 81 L9 90 L18 90 L18 99 L36 99 L36 81 z" />
<glyph unicode="仕" horiz-adv-x="100" d="M9 36 L27 36 L27 18 L9 18 L9 36 zM9 54 L27 54 L27 36 L9 36 L9 54 zM18 63 L36 63 L36 45 L18 45 L18 63 zM0 45 L18 45 L18 27 L0 27 L0 45 zM36 45 L54 45 L54 27 L36 27 L36 45 zM54 45 L72 45 L72 27 L54 27 L54 45 zM72 45 L90 45 L90 27 L72 27 L72 45 zM54 27 L72 27 L72 9 L54 9 L54 27 zM45 18 L63 18 L63 0 L45 0 L45 18 zM63 18 L81 18 L81 0 L63 0 L63 18 zM54 63 L72 63 L72 45 L54 45 L54 63 z" />
<glyph unicode="他" horiz-adv-x="145" d="M135 9 L126 9 L126 0 L108 0 L90 0 L72 0 L54 0 L54 9 L45 9 L45 18 L45 27 L45 36 L36 36 L36 54 L45 54 L45 63 L45 72 L63 72 L63 63 L72 63 L72 72 L72 81 L90 81 L90 72 L108 72 L108 63 L126 63 L126 54 L126 45 L126 36 L117 36 L117 27 L99 27 L99 45 L108 45 L108 54 L90 54 L90 45 L90 36 L90 27 L72 27 L72 36 L72 45 L63 45 L63 36 L63 27 L63 18 L72 18 L90 18 L108 18 L117 18 L117 27 L135 27 L135 9 zM36 63 L27 63 L27 54 L27 54 L27 36 L27 18 L9 18 L9 36 L9 45 L0 45 L0 63 L9 63 L9 72 L18 72 L18 81 L36 81 L36 63 z" />
<glyph unicode="仙" horiz-adv-x="118" d="M9 27 L27 27 L27 9 L9 9 L9 27 zM9 45 L27 45 L27 27 L9 27 L9 45 zM0 36 L18 36 L18 18 L0 18 L0 36 zM18 54 L36 54 L36 36 L18 36 L18 54 zM63 45 L81 45 L81 27 L63 27 L63 45 zM72 27 L90 27 L90 9 L72 9 L72 27 zM90 18 L108 18 L108 0 L90 0 L90 18 zM54 27 L72 27 L72 9 L54 9 L54 27 zM36 27 L54 27 L54 9 L36 9 L36 27 zM90 36 L108 36 L108 18 L90 18 L90 36 zM36 36 L54 36 L54 18 L36 18 L36 36 z" />
<glyph unicode="代" horiz-adv-x="109" d="M9 40.5 L27 40.5 L27 22.5 L9 22.5 L9 40.5 zM9 58.5 L27 58.5 L27 40.5 L9 40.5 L9 58.5 zM18 67.5 L36 67.5 L36 49.5 L18 49.5 L18 67.5 zM0 49.5 L18 49.5 L18 31.5 L0 31.5 L0 49.5 zM45 54 L63 54 L63 36 L45 36 L45 54 zM63 54 L81 54 L81 36 L63 36 L63 54 zM72 54 L90 54 L90 36 L72 36 L72 54 zM63 36 L81 36 L81 18 L63 18 L63 36 zM72 18 L90 18 L90 0 L72 0 L72 18 zM81 72 L99 72 L99 54 L81 54 L81 72 zM54 72 L72 72 L72 54 L54 54 L54 72 z" />
<glyph unicode="令" horiz-adv-x="73" d="M18 99 L36 99 L36 81 L18 81 L18 99 zM0 81 L18 81 L18 63 L0 63 L0 81 zM9 90 L27 90 L27 72 L9 72 L9 90 zM36 81 L54 81 L54 63 L36 63 L36 81 zM45 72 L63 72 L63 54 L45 54 L45 72 zM18 63 L36 63 L36 45 L18 45 L18 63 zM27 54 L45 54 L45 36 L27 36 L27 54 zM9 54 L27 54 L27 36 L9 36 L9 54 zM27 45 L45 45 L45 27 L27 27 L27 45 zM27 18 L45 18 L45 0 L27 0 L27 18 zM18 27 L36 27 L36 9 L18 9 L18 27 z" />
<glyph unicode="以" horiz-adv-x="117" d="M18 18 L27 18 L27 0 L18 0 L9 0 L0 0 L0 18 L0 27 L0 36 L0 45 L18 45 L18 36 L18 27 L18 18 zM27 45 L45 45 L45 27 L27 27 L27 45 zM72 45 L72 27 L63 27 L63 9 L54 9 L54 0 L36 0 L36 18 L45 18 L45 27 L54 27 L54 45 L72 45 zM99 18 L99 0 L81 0 L81 9 L72 9 L72 27 L90 27 L90 18 L99 18 z" />
<glyph unicode="们" horiz-adv-x="118" d="M9 18 L27 18 L27 0 L9 0 L9 18 zM9 36 L27 36 L27 18 L9 18 L9 36 zM18 45 L36 45 L36 27 L18 27 L18 45 zM0 27 L18 27 L18 9 L0 9 L0 27 zM45 27 L63 27 L63 9 L45 9 L45 27 zM45 18 L63 18 L63 0 L45 0 L45 18 zM81 45 L99 45 L99 27 L81 27 L81 45 zM90 36 L108 36 L108 18 L90 18 L90 36 zM90 18 L108 18 L108 0 L90 0 L90 18 zM81 18 L99 18 L99 0 L81 0 L81 18 zM54 53.59473 L72 53.59473 L72 35.59473 L54 35.59473 L54 53.59473 z" />
<glyph unicode="仰" horiz-adv-x="145" d="M9 45 L27 45 L27 27 L9 27 L9 45 zM9 27 L27 27 L27 9 L9 9 L9 27 zM9 63 L27 63 L27 45 L9 45 L9 63 zM0 54 L18 54 L18 36 L0 36 L0 54 zM18 72 L36 72 L36 54 L18 54 L18 72 zM45 72 L63 72 L63 54 L45 54 L45 72 zM45 45 L63 45 L63 27 L45 27 L45 45 zM45 63 L63 63 L63 45 L45 45 L45 63 zM45 36 L63 36 L63 18 L45 18 L45 36 zM54 72 L72 72 L72 54 L54 54 L54 72 zM54 27 L72 27 L72 9 L54 9 L54 27 zM81 72 L99 72 L99 54 L81 54 L81 72 zM81 36 L99 36 L99 18 L81 18 L81 36 zM81 54 L99 54 L99 36 L81 36 L81 54 zM81 18 L99 18 L99 0 L81 0 L81 18 zM117 63 L135 63 L135 45 L117 45 L117 63 zM117 45 L135 45 L135 27 L117 27 L117 45 zM99 72 L117 72 L117 54 L99 54 L99 72 zM108 72 L126 72 L126 54 L108 54 L108 72 zM108 36 L126 36 L126 18 L108 18 L108 36 z" />
<glyph unicode="件" horiz-adv-x="109" d="M36 45 L27 45 L27 36 L27 36 L27 18 L27 0 L9 0 L9 18 L9 27 L0 27 L0 45 L9 45 L9 54 L18 54 L18 63 L36 63 L36 45 zM90 36 L90 27 L99 27 L99 9 L90 9 L90 0 L72 0 L72 9 L63 9 L63 27 L72 27 L72 36 L54 36 L54 27 L36 27 L36 45 L45 45 L45 63 L63 63 L63 54 L72 54 L72 63 L90 63 L90 54 L99 54 L99 36 L90 36 z" />
<glyph unicode="价" horiz-adv-x="100" d="M36 45 L27 45 L27 36 L27 18 L9 18 L9 27 L0 27 L0 45 L9 45 L9 54 L18 54 L18 63 L36 63 L36 45 zM90 63 L90 45 L72 45 L72 54 L63 54 L63 45 L45 45 L45 63 L54 63 L54 72 L72 72 L72 63 L90 63 zM45 36 L63 36 L63 18 L45 18 L45 36 zM45 27 L63 27 L63 9 L45 9 L45 27 zM72 36 L90 36 L90 18 L72 18 L72 36 zM72 27 L90 27 L90 9 L72 9 L72 27 zM36 18 L54 18 L54 0 L36 0 L36 18 z" />
<glyph unicode="任" horiz-adv-x="91" d="M36 72 L36 54 L27 54 L27 45 L27 45 L27 27 L27 18 L9 18 L9 27 L9 36 L0 36 L0 54 L9 54 L9 63 L18 63 L18 72 L36 72 zM54 63 L72 63 L72 45 L54 45 L54 63 zM45 72 L63 72 L63 54 L45 54 L45 72 zM63 81 L81 81 L81 63 L63 63 L63 81 zM45 45 L63 45 L63 27 L45 27 L45 45 zM63 45 L81 45 L81 27 L63 27 L63 45 zM54 36 L72 36 L72 18 L54 18 L54 36 zM45 18 L63 18 L63 0 L45 0 L45 18 zM63 18 L81 18 L81 0 L63 0 L63 18 z" />
<glyph unicode="份" horiz-adv-x="136" d="M9 63 L27 63 L27 45 L9 45 L9 63 zM9 81 L27 81 L27 63 L9 63 L9 81 zM0 72 L18 72 L18 54 L0 54 L0 72 zM18 90 L36 90 L36 72 L18 72 L18 90 zM54 54 L72 54 L72 36 L54 36 L54 54 zM90 54 L108 54 L108 36 L90 36 L90 54 zM72 54 L90 54 L90 36 L72 36 L72 54 zM63 45 L81 45 L81 27 L63 27 L63 45 zM90 45 L108 45 L108 27 L90 27 L90 45 zM54 27 L72 27 L72 9 L54 9 L54 27 zM45 18 L63 18 L63 0 L45 0 L45 18 zM81 18 L99 18 L99 0 L81 0 L81 18 zM90 27 L108 27 L108 9 L90 9 L90 27 zM63 90 L81 90 L81 72 L63 72 L63 90 zM45 81 L63 81 L63 63 L45 63 L45 81 zM36 72 L54 72 L54 54 L36 54 L36 72 zM90 81 L108 81 L108 63 L90 63 L90 81 zM108 63 L126 63 L126 45 L108 45 L108 63 z" />
<glyph unicode="仿" horiz-adv-x="100" d="M81 18 L90 18 L90 0 L72 0 L72 9 L63 9 L63 0 L45 0 L45 18 L45 36 L36 36 L36 54 L45 54 L45 63 L63 63 L63 54 L72 54 L81 54 L81 36 L72 36 L63 36 L63 27 L81 27 L81 18 zM36 54 L27 54 L27 45 L27 27 L9 27 L9 36 L0 36 L0 54 L9 54 L9 63 L18 63 L18 72 L36 72 L36 54 z" />
<glyph unicode="伉" horiz-adv-x="127" d="M63 54 L45 54 L45 72 L54 72 L54 81 L72 81 L72 72 L81 72 L81 54 L63 54 zM117 9 L108 9 L108 0 L90 0 L72 0 L72 18 L72 27 L63 27 L63 18 L63 9 L54 9 L54 0 L36 0 L36 18 L45 18 L45 27 L45 36 L45 45 L63 45 L72 45 L81 45 L90 45 L90 36 L90 27 L90 18 L99 18 L99 27 L117 27 L117 9 zM36 63 L27 63 L27 54 L27 54 L27 36 L27 18 L9 18 L9 36 L9 45 L0 45 L0 63 L9 63 L9 72 L18 72 L18 81 L36 81 L36 63 z" />
<glyph unicode="伊" horiz-adv-x="118" d="M99 72 L108 72 L108 54 L99 54 L99 45 L99 36 L99 27 L81 27 L72 27 L72 18 L63 18 L63 0 L45 0 L45 18 L54 18 L54 27 L45 27 L45 45 L54 45 L54 54 L45 54 L45 72 L54 72 L54 81 L45 81 L45 99 L63 99 L72 99 L81 99 L90 99 L90 90 L99 90 L99 81 C99 78 99 75 99 72 zM81 81 L72 81 L72 72 L81 72 C81 75 81 78 81 81 zM72 45 L81 45 L81 54 L72 54 C72 51 72 48 72 45 zM36 72 L27 72 L27 63 L27 63 L27 45 L27 27 L9 27 L9 45 L9 54 L0 54 L0 72 L9 72 L9 81 L18 81 L18 90 L36 90 L36 72 z" />
<glyph unicode="众" horiz-adv-x="145" d="M45 18 L36 18 L36 0 L27 0 L27 -9 L18 -9 L18 -18 L0 -18 L0 0 L9 0 L9 9 L18 9 L18 18 L27 18 L27 36 L45 36 L45 18 zM108 18 L99 18 L99 0 L90 0 L90 -9 L81 -9 L81 -18 L63 -18 L63 -9 L45 -9 L45 9 L63 9 L63 0 L72 0 L72 9 L81 9 L81 18 L90 18 L90 36 L108 36 L108 18 zM135 0 L135 -18 L117 -18 L117 -9 L108 -9 L108 9 L126 9 L126 0 L135 0 zM54 45 L36 45 L36 63 L45 63 L45 72 L54 72 L54 81 L63 81 L63 99 L81 99 L81 81 L72 81 L72 63 L63 63 L63 54 L54 54 L54 45 zM99 72 L99 63 L108 63 L108 45 L90 45 L90 54 L81 54 L81 72 L99 72 z" />
<glyph unicode="优" horiz-adv-x="127" d="M54 63 L72 63 L72 45 L54 45 L54 63 zM54 54 L72 54 L72 36 L54 36 L54 54 zM36 54 L54 54 L54 36 L36 36 L36 54 zM45 36 L63 36 L63 18 L45 18 L45 36 zM36 27 L54 27 L54 9 L36 9 L36 27 zM72 54 L90 54 L90 36 L72 36 L72 54 zM81 54 L99 54 L99 36 L81 36 L81 54 zM81 81 L99 81 L99 63 L81 63 L81 81 zM72 27 L90 27 L90 9 L72 9 L72 27 zM72 45 L90 45 L90 27 L72 27 L72 45 zM81 18 L99 18 L99 0 L81 0 L81 18 zM90 18 L108 18 L108 0 L90 0 L90 18 zM99 27 L117 27 L117 9 L99 9 L99 27 zM36 54 L27 54 L27 45 L27 27 L9 27 L9 36 L0 36 L0 54 L9 54 L9 63 L18 63 L18 72 L36 72 L36 54 z" />
<glyph unicode="会" horiz-adv-x="82" d="M63 0 L72 0 L72 -18 L54 -18 L54 -9 L36 -9 L18 -9 L18 -18 L0 -18 L0 0 L9 0 L9 18 L18 18 L18 27 L9 27 L9 45 L27 45 L45 45 L63 45 L63 27 L45 27 L36 27 L36 18 L27 18 L27 9 L36 9 L45 9 L45 18 L63 18 L63 0 zM72 81 L72 63 L54 63 L54 72 L45 72 L45 81 L27 81 L27 72 L18 72 L18 63 L0 63 L0 81 L9 81 L9 90 L27 90 L27 99 L45 99 L45 90 L63 90 L63 81 L72 81 zM27 72 L45 72 L45 54 L27 54 L27 72 z" />
<glyph unicode="伟" horiz-adv-x="109" d="M99 27 L99 18 L99 9 L99 0 L81 0 L81 9 L72 9 L72 0 L54 0 L54 9 L45 9 L45 27 L54 27 L54 36 L45 36 L45 54 L54 54 L54 63 L45 63 L45 81 L54 81 L54 90 L72 90 L72 81 L81 81 L81 63 L72 63 L72 54 L81 54 L81 36 L72 36 L72 27 L81 27 L99 27 zM36 63 L27 63 L27 54 L27 54 L27 36 L27 18 L9 18 L9 36 L9 45 L0 45 L0 63 L9 63 L9 72 L18 72 L18 81 L36 81 L36 63 z" />
<glyph unicode="传" horiz-adv-x="109" d="M63 72 L45 72 L45 90 L54 90 L54 99 L72 99 L72 90 L81 90 L81 72 L63 72 zM90 9 L90 0 L99 0 L99 -18 L81 -18 L81 -9 L72 -9 L72 9 L81 9 L81 18 L72 18 L54 18 L54 36 L54 45 L45 45 L45 63 L54 63 L54 72 L72 72 L72 63 L81 63 L81 45 L72 45 L72 36 L90 36 L90 27 L99 27 L99 9 L90 9 zM36 72 L27 72 L27 63 L27 63 L27 45 L27 27 L9 27 L9 45 L9 54 L0 54 L0 72 L9 72 L9 81 L18 81 L18 90 L36 90 L36 72 z" />
<glyph unicode="伤" horiz-adv-x="100" d="M36 81 L27 81 L27 72 L27 72 L27 54 L27 36 L9 36 L9 54 L9 63 L0 63 L0 81 L9 81 L9 90 L18 90 L18 99 L36 99 L36 81 zM90 54 L90 36 L90 27 L90 18 L90 9 L81 9 L81 0 L63 0 L63 18 L72 18 L72 27 L72 36 L72 45 L63 45 L63 27 L54 27 L54 9 L36 9 L36 27 L45 27 L45 36 L36 36 L36 54 L54 54 L54 63 L72 63 L72 54 L90 54 zM81 90 L81 72 L63 72 L54 72 L54 63 L36 63 L36 81 L45 81 L45 90 L45 99 L63 99 L63 90 L81 90 z" />
<glyph unicode="伦" horiz-adv-x="109" d="M99 9 L90 9 L90 0 L72 0 L54 0 L54 9 L45 9 L45 54 L63 54 L63 45 L72 45 L72 54 L90 54 L90 36 L72 36 L72 27 L63 27 L63 18 L72 18 L81 18 L81 27 L99 27 L99 9 zM36 63 L27 63 L27 54 L27 36 L9 36 L9 45 L0 45 L0 63 L9 63 L9 72 L18 72 L18 81 L36 81 L36 63 zM45 81 L63 81 L63 63 L45 63 L45 81 zM72 81 L90 81 L90 63 L72 63 L72 81 zM54 90 L72 90 L72 72 L54 72 L54 90 z" />
<glyph unicode="估" horiz-adv-x="91" d="M36 36 L54 36 L54 45 L45 45 L45 63 L54 63 L54 72 L72 72 L72 63 L81 63 L81 45 L72 45 L72 36 L81 36 L81 27 L81 18 L81 9 L81 0 L72 0 L63 0 L54 0 L45 0 L36 0 L36 9 L36 18 L36 27 C36 30 36 33 36 36 zM54 18 L63 18 L63 27 L54 27 C54 24 54 21 54 18 zM36 36 L27 36 L27 27 L27 9 L9 9 L9 18 L0 18 L0 36 L9 36 L9 45 L18 45 L18 54 L36 54 L36 36 z" />
<glyph unicode="伲" horiz-adv-x="146.5" d="M87.75 50.25 L78 50.25 L68.25 50.25 L68.25 30.75 L58.5 30.75 L58.5 21 L39 21 L39 40.5 L48.75 40.5 L48.75 50.25 L48.75 60 L48.75 69.75 L48.75 79.5 L48.75 99 L87.75 99 L87.75 89.25 L97.5 89.25 L97.5 79.5 L97.5 69.75 L97.5 60 L97.5 50.25 C94.25 50.25 91 50.25 87.75 50.25 zM68.25 79.5 L68.25 69.75 L78 69.75 L78 79.5 C74.75 79.5 71.5 79.5 68.25 79.5 zM136.5 11.25 L136.5 -8.25 L126.75 -8.25 L126.75 -18 L107.25 -18 L87.75 -18 L87.75 -8.25 L78 -8.25 L78 40.5 L97.5 40.5 L97.5 30.75 L107.25 30.75 L107.25 40.5 L126.75 40.5 L126.75 21 L107.25 21 L107.25 11.25 L97.5 11.25 L97.5 1.5 L107.25 1.5 L117 1.5 L117 11.25 L136.5 11.25 zM39 40.5 L29.25 40.5 L29.25 30.75 L29.25 11.25 L9.75 11.25 L9.75 21 L0 21 L0 40.5 L9.75 40.5 L9.75 50.25 L19.5 50.25 L19.5 60 L39 60 L39 40.5 z" />
<glyph unicode="伴" horiz-adv-x="118" d="M36 81 L54 81 L54 63 L36 63 L36 81 zM81 54 L90 54 L90 36 L81 36 L81 27 L90 27 L90 9 L81 9 L81 0 L63 0 L63 9 L54 9 L54 27 L63 27 L63 36 L54 36 L54 54 L63 54 L63 72 L81 72 L81 54 zM90 81 L108 81 L108 63 L90 63 L90 81 zM36 81 L27 81 L27 72 L27 72 L27 54 L27 36 L9 36 L9 54 L9 63 L0 63 L0 81 L9 81 L9 90 L18 90 L18 99 L36 99 L36 81 z" />
<glyph unicode="似" horiz-adv-x="145" d="M36 45 L27 45 L27 36 L27 18 L9 18 L9 27 L0 27 L0 45 L9 45 L9 54 L18 54 L18 63 L36 63 L36 45 zM54 18 L63 18 L63 0 L54 0 L45 0 L36 0 L36 18 L36 27 L36 36 L36 45 L54 45 L54 36 L54 27 L54 18 zM63 45 L81 45 L81 27 L63 27 L63 45 zM108 45 L108 27 L99 27 L99 9 L90 9 L90 0 L72 0 L72 18 L81 18 L81 27 L90 27 L90 45 L108 45 zM135 18 L135 0 L117 0 L117 9 L108 9 L108 27 L126 27 L126 18 L135 18 z" />
<glyph unicode="伽" horiz-adv-x="154" d="M90 54 L90 36 L90 27 L90 18 L90 9 L81 9 L81 0 L63 0 L63 18 L72 18 L72 27 L72 36 L72 45 L63 45 L63 27 L54 27 L54 9 L36 9 L36 27 L45 27 L45 36 L36 36 L36 54 L54 54 L54 63 L72 63 L72 54 L90 54 zM36 54 L27 54 L27 45 L27 27 L9 27 L9 36 L0 36 L0 54 L9 54 L9 63 L18 63 L18 72 L36 72 L36 54 zM126 63 L144 63 L144 54 L144 45 L144 36 L144 18 L126 18 L117 18 L108 18 L99 18 L99 36 L99 45 L99 54 L99 63 L108 63 L117 63 C120 63 123 63 126 63 zM126 36 L126 45 L117 45 L117 36 C120 36 123 36 126 36 z" />
<glyph unicode="但" horiz-adv-x="100" d="M81 81 L90 81 L90 63 L90 54 L90 45 L90 36 L81 36 L81 27 L63 27 L45 27 L45 45 L45 63 L45 81 L45 99 L63 99 L81 99 C81 93 81 87 81 81 zM72 81 L63 81 L63 72 L72 72 C72 75 72 78 72 81 zM63 54 L63 45 L72 45 L72 54 C69 54 66 54 63 54 zM36 81 L27 81 L27 72 L27 72 L27 54 L27 36 L9 36 L9 54 L9 63 L0 63 L0 81 L9 81 L9 90 L18 90 L18 99 L36 99 L36 81 zM45 18 L63 18 L63 0 L45 0 L45 18 zM54 18 L72 18 L72 0 L54 0 L54 18 z" />
<glyph unicode="位" horiz-adv-x="109" d="M36 45 L27 45 L27 36 L27 36 L27 18 L27 0 L9 0 L9 18 L9 27 L0 27 L0 45 L9 45 L9 54 L18 54 L18 63 L36 63 L36 45 zM99 27 L90 27 L90 18 L99 18 L99 0 L90 0 L81 0 L72 0 L54 0 L36 0 L36 18 L45 18 L45 27 L36 27 L36 45 L54 45 L54 54 L72 54 L72 45 L81 45 L90 45 L99 45 C99 39 99 33 99 27 zM63 18 L72 18 L72 27 L63 27 C63 24 63 21 63 18 z" />
<glyph unicode="低" horiz-adv-x="100" d="M36 81 L27 81 L27 72 L27 54 L9 54 L9 63 L0 63 L0 81 L9 81 L9 90 L18 90 L18 99 L36 99 L36 81 zM45 90 L63 90 L63 72 L45 72 L45 90 zM63 90 L81 90 L81 72 L63 72 L63 90 zM72 99 L90 99 L90 81 L72 81 L72 99 zM36 81 L54 81 L54 63 L36 63 L36 81 zM63 81 L81 81 L81 63 L63 63 L63 81 zM36 63 L54 63 L54 45 L36 45 L36 63 zM45 63 L63 63 L63 45 L45 45 L45 63 zM63 63 L81 63 L81 45 L63 45 L63 63 zM72 63 L90 63 L90 45 L72 45 L72 63 zM36 45 L54 45 L54 27 L36 27 L36 45 zM36 36 L54 36 L54 18 L36 18 L36 36 zM63 45 L81 45 L81 27 L63 27 L63 45 zM45 27 L63 27 L63 9 L45 9 L45 27 zM54 18 L72 18 L72 0 L54 0 L54 18 zM72 36 L90 36 L90 18 L72 18 L72 36 z" />
<glyph unicode="住" horiz-adv-x="82" d="M63 54 L63 45 L72 45 L72 27 L63 27 L63 18 L72 18 L72 0 L54 0 L36 0 L36 18 L45 18 L45 27 L36 27 L36 45 L45 45 L45 54 L36 54 L36 72 L45 72 L45 81 L63 81 L63 72 L72 72 L72 54 L63 54 zM36 72 L27 72 L27 63 L27 63 L27 45 L27 27 L9 27 L9 45 L9 54 L0 54 L0 72 L9 72 L9 81 L18 81 L18 90 L36 90 L36 72 z" />
<glyph unicode="体" horiz-adv-x="136" d="M36 63 L27 63 L27 54 L27 54 L27 36 L27 18 L9 18 L9 36 L9 45 L0 45 L0 63 L9 63 L9 72 L18 72 L18 81 L36 81 L36 63 zM63 45 L63 27 L54 27 L54 18 L36 18 L36 36 L45 36 L45 45 L63 45 zM126 36 L126 18 L108 18 L108 27 L99 27 L99 45 L117 45 L117 36 L126 36 zM90 27 L99 27 L99 9 L90 9 L90 0 L72 0 L72 9 L63 9 L63 27 L72 27 L72 45 L63 45 L63 54 L54 54 L54 72 L72 72 L72 81 L90 81 L90 72 L108 72 L108 54 L90 54 L90 45 L90 27 z" />
<glyph unicode="何" horiz-adv-x="127" d="M117 72 L117 54 L108 54 L108 36.072 L108 36.036 L108 27.072 L108 18.072 L108 9.072 L99 9.072 L99 0 L81 0 L81 18 L90 18 L90 18.072 L90 27.072 L90 36.036 L90 36.072 L90 54 L72 54 L72 72 L90 72 L99 72 L108 72 L117 72 zM54 27 L63 27 L63 36 L54 36 L54 27 zM72 45 L81 45 L81 27 L81 18.036 L72 18.036 L72 9 L63 9 L54 9 L45 9 L45 27 L36 27 L36 36 L36 54 L45 54 L54 54 L63 54 L72 54 C72 51 72 48 72 45 zM36 54 L27 54 L27 45 L27 45 L27 27 L27 9 L9 9 L9 27 L9 36 L0 36 L0 54 L9 54 L9 63 L18 63 L18 72 L36 72 L36 54 z" />
<glyph unicode="余" horiz-adv-x="81.95203" d="M53.96402 17.98201 L71.95203 17.98201 L71.95203 -0.00599 L53.96402 -0.00599 L53.96402 17.98201 zM53.96402 35.97002 L53.96402 17.98201 L44.97002 17.98201 L44.97002 -0.00599 L35.97601 -0.00599 L35.97601 -9 L17.988 -9 L17.988 -0.00599 L0 -0.00599 L0 17.98201 L17.988 17.98201 L17.988 8.98801 L26.98201 8.98801 L26.98201 17.98201 L17.988 17.98201 L17.988 35.97002 L26.98201 35.97002 L26.98201 44.96403 L17.988 44.96403 L17.988 62.95203 L31.47901 62.95203 L35.97601 62.95203 L44.97002 62.95203 L44.97002 71.94604 L35.97601 71.94604 L35.97601 80.94004 L26.98201 80.94004 L26.98201 71.94604 L17.988 71.94604 L17.988 62.95203 L0 62.95203 L0 80.94004 L8.994 80.94004 L8.994 89.93405 L17.988 89.93405 L17.988 98.92805 L35.97601 98.92805 L35.97601 89.93405 L53.96402 89.93405 L53.96402 80.94004 L62.95802 80.94004 L62.95802 62.95203 L53.96402 62.95203 L53.96402 44.96403 L44.97002 44.96403 L44.97002 35.97002 L53.96402 35.97002 z" />
<glyph unicode="佚" horiz-adv-x="127" d="M90 36 L90 27 L81 27 L81 9 L72 9 L72 0 L54 0 L54 18 L63 18 L63 27 L72 27 L72 36 L63 36 L63 54 L72 54 L72 63 L54 63 L54 54 L36 54 L36 72 L45 72 L45 90 L63 90 L63 81 L72 81 L72 90 L90 90 L90 81 L99 81 L99 63 L90 63 L90 54 L99 54 L99 36 L90 36 zM117 18 L117 0 L99 0 L99 9 L90 9 L90 27 L108 27 L108 18 L117 18 zM36 72 L27 72 L27 63 L27 63 L27 45 L27 27 L9 27 L9 45 L9 54 L0 54 L0 72 L9 72 L9 81 L18 81 L18 90 L36 90 L36 72 z" />
<glyph unicode="佛" horiz-adv-x="136" d="M36 72 L27 72 L27 63 L27 45 L9 45 L9 54 L0 54 L0 72 L9 72 L9 81 L18 81 L18 90 L36 90 L36 72 zM72 36 L81 36 L81 45 L72 45 L72 36 zM45 36 L54 36 L54 45 L45 45 L45 36 zM99 63 L108 63 L108 72 L99 72 L99 63 zM72 63 L81 63 L81 72 L72 72 L72 63 zM108 90 L126 90 L126 81 L126 72 L126 63 L126 45 L108 45 L99 45 L99 36 L108 36 L117 36 L126 36 L126 18 L126 0 L117 0 L117 -9 L99 -9 L99 9 L108 9 L108 18 L99 18 L99 9 L81 9 L81 18 L72 18 L72 9 L54 9 L54 18 L45 18 L36 18 L27 18 L27 36 L27 45 L36 45 L36 63 L45 63 L54 63 L54 72 L45 72 L45 90 L54 90 L54 99 L72 99 L72 90 L81 90 L81 99 L99 99 L99 90 C102 90 105 90 108 90 z" />
<glyph unicode="作" horiz-adv-x="100" d="M81 63 L81 54 L90 54 L90 36 L81 36 L81 27 L90 27 L90 9 L81 9 L81 0 L63 0 L63 9 L63 18 L63 27 L63 45 L63 63 L54 63 L54 54 L36 54 L36 63 L27 63 L27 54 L27 36 L9 36 L9 45 L0 45 L0 63 L9 63 L9 72 L18 72 L18 81 L36 81 L36 72 L45 72 L45 81 L54 81 L54 90 L72 90 L72 81 L81 81 L90 81 L90 63 L81 63 z" />
<glyph unicode="你" horiz-adv-x="118" d="M36 63 L27 63 L27 54 L27 54 L27 36 L27 18 L9 18 L9 36 L9 45 L0 45 L0 63 L9 63 L9 72 L18 72 L18 81 L36 81 L36 63 zM99 45 L81 45 L81 54 L72 54 L63 54 L63 45 L45 45 L45 63 L54 63 L54 81 L72 81 L72 72 L81 72 L90 72 L99 72 L99 63 L99 54 L99 45 zM90 36 L108 36 L108 18 L90 18 L90 36 zM63 45 L81 45 L81 36 L81 27 L81 18 L81 9 L72 9 L72 0 L54 0 L54 18 L63 18 L63 27 L63 36 L63 45 zM36 36 L54 36 L54 18 L36 18 L36 36 z" />
<glyph unicode="佰" horiz-adv-x="91" d="M36 63 L54 63 L54 72 L45 72 L45 90 L63 90 L81 90 L81 72 L72 72 L72 63 L81 63 L81 54 L81 45 L81 36 L81 18 L81 0 L63 0 L54 0 L45 0 L36 0 L36 18 L36 36 L36 45 L36 54 C36 57 36 60 36 63 zM54 18 L63 18 L63 27 L54 27 C54 24 54 21 54 18 zM54 54 L54 45 L63 45 L63 54 C60 54 57 54 54 54 zM36 72 L27 72 L27 63 L27 63 L27 45 L27 27 L9 27 L9 45 L9 54 L0 54 L0 72 L9 72 L9 81 L18 81 L18 90 L36 90 L36 72 z" />
<glyph unicode="佳" horiz-adv-x="91" d="M72 72 L72 63 L81 63 L81 45 L72 45 L72 36 L81 36 L81 18 L72 18 L72 9 L81 9 L81 -9 L72 -9 L63 -9 L54 -9 L45 -9 L45 9 L54 9 L54 18 L45 18 L45 36 L54 36 L54 45 L45 45 L45 63 L54 63 L54 72 L45 72 L45 90 L54 90 L54 99 L72 99 L72 90 L81 90 L81 72 L72 72 zM18 99 L36 99 L36 81 L27 81 L27 72 L27 63 L27 54 L27 45 L9 45 L9 54 L9 63 L0 63 L0 81 L9 81 L9 90 L18 90 L18 99 z" />
<glyph unicode="佻" horiz-adv-x="162.028" d="M36 63 L27 63 L27 54 L27 54 L27 36 L27 18 L9 18 L9 36 L9 45 L0 45 L0 63 L9 63 L9 72 L18 72 L18 81 L36 81 L36 63 zM89.028 18 L80.028 18 L80.028 0 L62.028 0 L62.028 18 L71.028 18 L71.028 19.962 L71.028 36 L71.028 36 L71.028 37.962 L71.028 54 L71.028 63 L71.028 72 L71.028 81 L89.028 81 L89.028 72 L89.028 63 L89.028 54 L89.028 37.962 L89.028 36 L89.028 36 L89.028 19.962 L89.028 18 zM44.028 72 L62.028 72 L62.028 54 L44.028 54 L44.028 72 zM44.028 45 L62.028 45 L62.028 27 L44.028 27 L44.028 45 zM125.028 72 L143.028 72 L143.028 54 L125.028 54 L125.028 72 zM125.028 45 L143.028 45 L143.028 27 L125.028 27 L125.028 45 zM152.028 27 L152.028 9 L143.028 9 L143.028 0 L134.028 0 L125.028 0 L116.028 0 L107.028 0 L107.028 9 L98.028 9 L98.028 18 L98.028 18 L98.028 25.308 L98.028 36 L98.028 36 L98.028 54 L98.028 63 L98.028 72 L98.028 81 L116.028 81 L116.028 72 L116.028 63 L116.028 54 L116.028 36 L116.028 36 L116.028 25.308 L116.028 18 L116.028 18 L125.028 18 L134.028 18 L134.028 27 L152.028 27 z" />
<glyph unicode="使" horiz-adv-x="118" d="M9 63 L27 63 L27 45 L9 45 L9 63 zM9 81 L27 81 L27 63 L9 63 L9 81 zM18 90 L36 90 L36 72 L18 72 L18 90 zM0 72 L18 72 L18 54 L0 54 L0 72 zM44.244 90 L62.244 90 L62.244 72 L44.244 72 L44.244 90 zM54 90 L72 90 L72 72 L54 72 L54 90 zM63 99 L81 99 L81 81 L63 81 L63 99 zM63 81 L81 81 L81 63 L63 63 L63 81 zM81 90 L99 90 L99 72 L81 72 L81 90 zM90 90 L108 90 L108 72 L90 72 L90 90 zM36 63 L54 63 L54 45 L36 45 L36 63 zM54 63 L72 63 L72 45 L54 45 L54 63 zM63 54 L81 54 L81 36 L63 36 L63 54 zM63 18 L81 18 L81 0 L63 0 L63 18 zM54 9 L72 9 L72 -9 L54 -9 L54 9 zM72 0 L90 0 L90 -18 L72 -18 L72 0 zM90 -9 L108 -9 L108 -27 L90 -27 L90 -9 zM36 18 L54 18 L54 0 L36 0 L36 18 zM36 -9 L54 -9 L54 -27 L36 -27 L36 -9 zM72 63 L90 63 L90 45 L72 45 L72 63 zM81 63 L99 63 L99 45 L81 45 L81 63 zM90 54 L108 54 L108 36 L90 36 L90 54 zM36 45 L54 45 L54 27 L36 27 L36 45 zM54 36 L72 36 L72 18 L54 18 L54 36 zM72 36 L90 36 L90 18 L72 18 L72 36 zM90 36 L108 36 L108 18 L90 18 L90 36 z" />
<glyph unicode="侄" horiz-adv-x="118" d="M54 81 L45 81 L45 99 L54 99 L63 99 L72 99 L81 99 L81 81 L72 81 L72 72 L54 72 L54 81 zM99 63 L108 63 L108 45 L90 45 L90 27 L81 27 L81 18 L90 18 L90 0 L72 0 L54 0 L54 18 L63 18 L63 27 L54 27 L54 45 L63 45 L63 54 L45 54 L45 72 L63 72 L63 63 L81 63 L81 72 L99 72 C99 69 99 66 99 63 zM81 45 L90 45 L90 54 L81 54 C81 51 81 48 81 45 zM36 72 L27 72 L27 63 L27 63 L27 45 L27 27 L9 27 L9 45 L9 54 L0 54 L0 72 L9 72 L9 81 L18 81 L18 90 L36 90 L36 72 z" />
<glyph unicode="來" horiz-adv-x="109" d="M99 54 L99 36 L81 36 L81 45 L72 45 L72 36 L54 36 L54 27 L72 27 L72 18 L81 18 L81 0 L63 0 L63 9 L54 9 L54 0 L36 0 L36 9 L27 9 L27 0 L9 0 L9 18 L27 18 L27 27 L36 27 L36 36 L27 36 L27 45 L18 45 L18 36 L0 36 L0 54 L9 54 L9 63 L27 63 L27 54 L36 54 L36 72 L27 72 L27 90 L36 90 L36 99 L54 99 L54 90 L63 90 L63 72 L54 72 L54 54 L63 54 L63 63 L81 63 L81 54 L99 54 z" />
<glyph unicode="例" horiz-adv-x="154" d="M36 18 L54 18 L54 0 L36 0 L36 18 zM99 72 L99 54 L90 54 L90 45 L90 36 L72 36 L72 45 L72 54 L63 54 L54 54 L54 45 L63 45 L63 36 L72 36 L72 18 L54 18 L54 27 L45 27 L45 45 L36 45 L36 63 L45 63 L45 72 L54 72 L54 81 L45 81 L45 99 L63 99 L81 99 L81 81 L72 81 L72 72 L81 72 L90 72 L99 72 zM36 81 L27 81 L27 72 L27 72 L27 54 L27 36 L9 36 L9 54 L9 63 L0 63 L0 81 L9 81 L9 90 L18 90 L18 99 L36 99 L36 81 zM117 71.928 L99 71.928 L99 81 L99 89.928 L99 99 L117 99 L117 89.928 L117 81 L117 71.928 zM126 99 L144 99 L144 81 L126 81 L126 99 zM126 80.928 L144 80.928 L144 71.928 L144 62.928 L144 53.928 L135 53.928 L135 44.928 L117 44.928 L117 62.928 L126 62.928 L126 71.928 L126 80.928 z" />
<glyph unicode="供" horiz-adv-x="109" d="M45 18 L63 18 L63 0 L45 0 L45 18 zM72 18 L90 18 L90 0 L72 0 L72 18 zM99 54 L90 54 L90 45 L99 45 L99 27 L90 27 L81 27 L72 27 L54 27 L36 27 L36 45 L45 45 L45 54 L36 54 L36 72 L45 72 L45 81 L63 81 L63 72 L72 72 L72 81 L90 81 L90 72 L99 72 C99 66 99 60 99 54 zM63 45 L72 45 L72 54 L63 54 C63 51 63 48 63 45 zM36 72 L27 72 L27 63 L27 45 L9 45 L9 54 L0 54 L0 72 L9 72 L9 81 L18 81 L18 90 L36 90 L36 72 z" />
<glyph unicode="依" horiz-adv-x="118" d="M36 81 L27 81 L27 72 L27 54 L9 54 L9 63 L0 63 L0 81 L9 81 L9 90 L18 90 L18 99 L36 99 L36 81 zM90 36 L90 27 L99 27 L99 9 L81 9 L81 18 L72 18 L72 27 L63 27 L63 45 L81 45 L81 36 L90 36 zM90 54 L108 54 L108 36 L90 36 L90 54 zM81 81 L81 63 L63 63 L54 63 L45 63 L36 63 L36 81 L45 81 L54 81 L54 90 L72 90 L72 81 L81 81 zM54 36 L54 18 L63 18 L63 0 L54 0 L45 0 L36 0 L36 18 L36 27 L27 27 L27 45 L36 45 L36 54 L45 54 L45 63 L63 63 L63 45 L54 45 L54 36 L54 36 z" />
<glyph unicode="侨" horiz-adv-x="127" d="M9 54 L27 54 L27 36 L9 36 L9 54 zM9 72 L27 72 L27 54 L9 54 L9 72 zM18 81 L36 81 L36 63 L18 63 L18 81 zM0 63 L18 63 L18 45 L0 45 L0 63 zM54 63 L72 63 L72 45 L54 45 L54 63 zM36 63 L54 63 L54 45 L36 45 L36 63 zM45 54 L63 54 L63 36 L45 36 L45 54 zM36 36 L54 36 L54 18 L36 18 L36 36 zM18 27 L36 27 L36 9 L18 9 L18 27 zM90 36 L108 36 L108 18 L90 18 L90 36 zM72 54 L90 54 L90 36 L72 36 L72 54 zM36 9 L54 9 L54 -9 L36 -9 L36 9 zM72 9 L90 9 L90 -9 L72 -9 L72 9 zM45 27 L63 27 L63 9 L45 9 L45 27 zM45 18 L63 18 L63 0 L45 0 L45 18 zM72 27 L90 27 L90 9 L72 9 L72 27 zM99 27 L117 27 L117 9 L99 9 L99 27 zM54 81 L72 81 L72 63 L54 63 L54 81 zM72 63 L90 63 L90 45 L72 45 L72 63 zM81 63 L99 63 L99 45 L81 45 L81 63 zM45 90 L63 90 L63 72 L45 72 L45 90 zM63 90 L81 90 L81 72 L63 72 L63 90 zM72 99 L90 99 L90 81 L72 81 L72 99 z" />
<glyph unicode="侬" horiz-adv-x="145" d="M117 27 L117 18 L126 18 L126 0 L108 0 L108 9 L99 9 L99 18 L90 18 L90 36 L108 36 L108 27 L117 27 zM117 45 L135 45 L135 27 L117 27 L117 45 zM81 18 L90 18 L90 0 L81 0 L72 0 L63 0 L63 9 L63 18 L54 18 L54 36 L63 36 L63 45 L72 45 L72 54 L63 54 L63 45 L45 45 L45 54 L45 63 L45 72 L63 72 L72 72 L72 81 L90 81 L90 72 L99 72 L108 72 L108 63 L117 63 L117 45 L99 45 L99 54 L90 54 L90 36 L81 36 L81 27 L81 18 zM36 63 L27 63 L27 54 L27 36 L9 36 L9 45 L0 45 L0 63 L9 63 L9 72 L18 72 L18 81 L36 81 L36 63 z" />
<glyph unicode="侯" horiz-adv-x="100" d="M36 81 L27 81 L27 72 L27 72 L27 54 L27 36 L9 36 L9 54 L9 63 L0 63 L0 81 L9 81 L9 90 L18 90 L18 99 L36 99 L36 81 zM90 72.072 L90 54.072 L72 54.072 L54 54.072 L54 72.072 L63 72.072 L63 81 L54 81 L54 99 L63 99 L72 99 L81 99 L81 81.072 L81 81 L81 72.072 L90 72.072 zM72 0 L72 -9 L63 -9 L63 -27 L45 -27 L45 -9 L54 -9 L54 0 L45 0 L45 18 L54 18 L54 27 L45 27 L45 18 L27 18 L27 36 L36 36 L36 45 L36 54 L54 54 L54 45 L63 45 L72 45 L81 45 L81 27 L72 27 L72 18 L81 18 L81 0 L72 0 zM72 -9 L90 -9 L90 -27 L72 -27 L72 -9 z" />
<glyph unicode="侵" horiz-adv-x="109" d="M81 -36 L81 -45 L90 -45 L90 -63 L72 -63 L72 -54 L63 -54 L63 -63 L45 -63 L45 -45 L63 -45 L63 -36 L72 -36 L72 -27 L63 -27 L63 -36 L45 -36 L45 -18 L54 -18 L54 -9 L63 -9 L72 -9 L81 -9 L81 -18 L90 -18 L90 -36 L81 -36 zM36 9 L54 9 L54 -9 L36 -9 L36 9 zM81 9 L99 9 L99 -9 L81 -9 L81 9 zM36 18 L54 18 L54 0 L36 0 L36 18 zM54 18 L72 18 L72 0 L54 0 L54 18 zM72 18 L90 18 L90 0 L72 0 L72 18 zM81 18 L99 18 L99 0 L81 0 L81 18 zM45 45 L54 45 L54 54 L45 54 L45 72 L54 72 L54 81 L45 81 L45 99 L54 99 L63 99 L72 99 L72 81 L72 63 L72 45 L72 27 L63 27 L54 27 L45 27 L45 45 zM36 18 L27 18 L27 9 L27 -9 L9 -9 L9 0 L0 0 L0 18 L9 18 L9 27 L18 27 L18 36 L36 36 L36 18 z" />
<glyph unicode="便" horiz-adv-x="118" d="M99 72 L108 72 L108 54 L108 45 L108 36 L108 27 L108 18 L108 9 L108 0 L99 0 L90 0 L81 0 L81 -9 L72 -9 L72 -27 L54 -27 L54 -18 L36 -18 L36 0 L54 0 L54 -9 L63 -9 L63 0 L54 0 L54 9 L36 9 L36 27 L36 36 L36 45 L36 54 L36 72 L45 72 L54 72 L63 72 L63 81 L54 81 L54 99 L72 99 L90 99 L90 81 L81 81 L81 72 L90 72 C93 72 96 72 99 72 zM90 54 L81 54 L81 45 L90 45 C90 48 90 51 90 54 zM63 54 L54 54 L54 45 L63 45 C63 48 63 51 63 54 zM54 18 L63 18 L63 27 L54 27 C54 24 54 21 54 18 zM81 18 L90 18 L90 27 L81 27 C81 24 81 21 81 18 zM45 -27 L63 -27 L63 -45 L45 -45 L45 -27 zM72 -27 L90 -27 L90 -45 L72 -45 L72 -27 zM36 72 L27 72 L27 63 L27 45 L9 45 L9 54 L0 54 L0 72 L9 72 L9 81 L18 81 L18 90 L36 90 L36 72 z" />
<glyph unicode="俄" horiz-adv-x="145" d="M108 54 L108 36 L117 36 L117 45 L135 45 L135 27 L117 27 L117 18 L126 18 L126 0 L108 0 L108 18 L99 18 L99 9 L81 9 L81 27 L99 27 L99 36 L90 36 L90 54 L72 54 L72 45 L81 45 L81 27 L72 27 L72 18 L72 0 L54 0 L54 9 L45 9 L45 27 L54 27 L54 36 L54 54 L36 54 L36 72 L54 72 L54 81 L45 81 L45 99 L54 99 L63 99 L72 99 L72 90 L72 81 L72 72 L81 72 L81 90 L99 90 L99 72 L108 72 L117 72 L117 90 L135 90 L135 72 L126 72 L126 54 L108 54 zM36 81 L27 81 L27 72 L27 54 L9 54 L9 63 L0 63 L0 81 L9 81 L9 90 L18 90 L18 99 L36 99 L36 81 z" />
<glyph unicode="俅" horiz-adv-x="127" d="M36 63 L27 63 L27 54 L27 54 L27 36 L27 18 L9 18 L9 36 L9 45 L0 45 L0 63 L9 63 L9 72 L18 72 L18 81 L36 81 L36 63 zM90 99 L108 99 L108 81 L90 81 L90 99 zM99 36 L99 27 L108 27 L108 18 L117 18 L117 0 L99 0 L99 9 L90 9 L90 27 L81 27 L81 9 L81 -9 L72 -9 L72 -18 L54 -18 L54 0 L63 0 L63 9 L63 18 L54 18 L54 9 L45 9 L45 0 L27 0 L27 18 L36 18 L36 27 L45 27 L45 36 L36 36 L36 54 L54 54 L54 36 L63 36 L63 45 L63 54 L54 54 L54 72 L63 72 L63 81 L81 81 L81 72 L90 72 L90 54 L81 54 L81 45 L99 45 L99 54 L117 54 L117 36 L99 36 z" />
<glyph unicode="俊" horiz-adv-x="136" d="M27 63 L27 54 L27 36 L27 18 L9 18 L9 36 L9 45 L0 45 L0 63 L9 63 L9 72 L18 72 L18 81 L36 81 L36 63 L27 63 zM45 54 L63 54 L63 36 L54 36 L54 27 L36 27 L36 45 L45 45 L45 54 zM99 9 L99 0 L117 0 L117 -9 L126 -9 L126 -27 L108 -27 L108 -18 L99 -18 L99 -9 L90 -9 L90 -18 L81 -18 L81 -27 L63 -27 L63 -9 L72 -9 L72 0 L81 0 L81 9 L90 9 L90 18 L81 18 L81 9 L72 9 L72 0 L54 0 L54 18 L63 18 L63 27 L72 27 L72 36 L72 45 L90 45 L90 36 L99 36 L108 36 L108 45 L99 45 L99 54 L81 54 L63 54 L63 63 L54 63 L54 72 L54 81 L54 90 L63 90 L63 99 L81 99 L81 81 L72 81 L72 72 L81 72 L90 72 L90 81 L108 81 L108 63 L117 63 L117 54 L126 54 L126 36 L117 36 L117 18 L108 18 L108 9 L99 9 z" />
<glyph unicode="俏" horiz-adv-x="127" d="M72 45 L90 45 L90 27 L72 27 L72 45 zM90 45 L108 45 L108 27 L90 27 L90 45 zM72 18 L90 18 L90 0 L72 0 L72 18 zM54 18 L72 18 L72 0 L54 0 L54 18 zM54 0 L72 0 L72 -18 L54 -18 L54 0 zM54 -9 L72 -9 L72 -27 L54 -27 L54 -9 zM54 54 L72 54 L72 36 L54 36 L54 54 zM54 36 L72 36 L72 18 L54 18 L54 36 zM72 72 L90 72 L90 54 L72 54 L72 72 zM72 90 L90 90 L90 72 L72 72 L72 90 zM72 99 L90 99 L90 81 L72 81 L72 99 zM99 99 L117 99 L117 81 L99 81 L99 99 zM45 99 L63 99 L63 81 L45 81 L45 99 zM81 72 L99 72 L99 54 L81 54 L81 72 zM54 72 L72 72 L72 54 L54 54 L54 72 zM90 27 L108 27 L108 9 L90 9 L90 27 zM90 9 L108 9 L108 -9 L90 -9 L90 9 zM90 -9 L108 -9 L108 -27 L90 -27 L90 -9 zM81 -9 L99 -9 L99 -27 L81 -27 L81 -9 zM90 63 L108 63 L108 45 L90 45 L90 63 zM9 63 L27 63 L27 45 L9 45 L9 63 zM9 81 L27 81 L27 63 L9 63 L9 81 zM18 90 L36 90 L36 72 L18 72 L18 90 zM0 72 L18 72 L18 54 L0 54 L0 72 z" />
<glyph unicode="俑" horiz-adv-x="118" d="M36 81 L27 81 L27 72 L27 72 L27 54 L27 36 L9 36 L9 54 L9 63 L0 63 L0 81 L9 81 L9 90 L18 90 L18 99 L36 99 L36 81 zM54 36 L63 36 L63 45 L54 45 L54 36 zM54 9 L63 9 L63 18 L54 18 L54 9 zM81 36 L90 36 L90 45 L81 45 L81 36 zM81 9 L90 9 L90 18 L81 18 L81 9 zM99 54 L108 54 L108 36 L108 18 C108 12 108 6 108 0 L108 -18 L90 -18 L90 -9 L81 -9 L81 -18 L63 -18 L63 -9 L54 -9 L54 -18 L36 -18 C36 -12 36 -6 36 0 L36 18 L36 36 L36 45 L36 54 L36 63 L54 63 L72 63 L72 72 L81 72 L81 81 L72 81 L72 72 L54 72 L54 81 L45 81 L45 99 L63 99 L72 99 L81 99 L90 99 L90 90 L99 90 L99 72 L90 72 L90 63 L99 63 C99 60 99 57 99 54 z" />
<glyph unicode="保" horiz-adv-x="109" d="M81 18 L99 18 L99 0 L81 0 L81 18 zM27 18 L45 18 L45 0 L27 0 L27 18 zM90 27 L72 27 L72 18 L72 0 L54 0 L54 18 L45 18 L45 27 L36 27 L36 45 L54 45 L54 54 L72 54 L72 45 L90 45 L90 27 zM45 72 L63 72 L63 54 L45 54 L45 72 zM45 90 L63 90 L63 72 L45 72 L45 90 zM63 90 L81 90 L81 72 L63 72 L63 90 zM54 63 L72 63 L72 45 L54 45 L54 63 zM72 72 L90 72 L90 54 L72 54 L72 72 zM72 81 L90 81 L90 63 L72 63 L72 81 zM36 45 L27 45 L27 36 L27 18 L9 18 L9 27 L0 27 L0 45 L9 45 L9 54 L18 54 L18 63 L36 63 L36 45 z" />
<glyph unicode="俞" horiz-adv-x="109" d="M18 -17 L27 -17 L27 -8 L18 -8 L18 -17 zM18 10 L27 10 L27 19 L18 19 L18 10 zM36 37 L36 28 L45 28 L45 10 L45 -8 L45 -26 L45 -44 L27 -44 L27 -35 L18 -35 L18 -44 L0 -44 L0 -35 L0 -26 L0 -17 L0 1 L0 19 L0 37 L18 37 C24 37 30 37 36 37 zM54 64 L72 64 L72 46 L54 46 L36 46 L18 46 L18 64 L36 64 L54 64 zM72 -8 L54 -8 L54 10 L54 28 L72 28 L72 10 L72 -8 zM99 28 L99 10 L99 -8 L99 -26 L90 -26 L90 -35 L72 -35 L72 -17 L81 -17 L81 -8 L81 10 L81 28 L99 28 zM18 64 L0 64 L0 82 L18 82 L18 91 L36 91 L36 100 L54 100 L54 91 L72 91 L72 82 L90 82 L90 64 L72 64 L72 73 L54 73 L54 82 L36 82 L36 73 L18 73 L18 64 z" />
<glyph unicode="信" horiz-adv-x="91" d="M63 9 L81 9 L81 -9 L81 -27 L72 -27 L72 -36 L54 -36 L36 -36 L36 -27 L36 -18 L36 -9 L45 -9 L45 9 C51 9 57 9 63 9 zM63 -18 L63 -9 L54 -9 L54 -18 C57 -18 60 -18 63 -18 zM36 90 L36 72 L27 72 L27 63 L27 63 L27 45 L27 36 L9 36 L9 45 L9 54 L0 54 L0 72 L9 72 L9 81 L18 81 L18 90 L36 90 zM54 99 L72 99 L72 81 L54 81 L54 99 zM45 90 L63 90 L63 72 L45 72 L45 90 zM63 90 L81 90 L81 72 L63 72 L63 90 zM45 63 L63 63 L63 45 L45 45 L45 63 zM63 63 L81 63 L81 45 L63 45 L63 63 zM45 36 L63 36 L63 18 L45 18 L45 36 zM63 36 L81 36 L81 18 L63 18 L63 36 z" />
<glyph unicode="俭" horiz-adv-x="127" d="M76.5 63 L90 63 L90 45 L76.5 45 L63 45 L63 63 L76.5 63 zM85.5 0 L99 0 L99 -18 L85.5 -18 L81 -18 L72 -18 L67.5 -18 L54 -18 L54 0 L67.5 0 L72 0 L81 0 L85.5 0 zM63 63 L45 63 L45 81 L54 81 L54 90 L63 90 L63 99 L81 99 L81 90 L99 90 L99 81 L108 81 L108 63 L90 63 L90 72 L81 72 L81 81 L72 81 L72 72 L63 72 L63 63 zM72 36 L90 36 L90 27 L90 18 L90 9 L72 9 L72 18 L72 27 L72 36 zM117 36 L117 27 L117 18 L117 9 L99 9 L99 18 L99 27 L99 36 L117 36 zM63 9 L45 9 L45 18 L45 27 L45 36 L63 36 L63 27 L63 18 L63 9 zM36 72 L27 72 L27 63 L27 63 L27 45 L27 27 L9 27 L9 45 L9 54 L0 54 L0 72 L9 72 L9 81 L18 81 L18 90 L36 90 L36 72 z" />
<glyph unicode="修" horiz-adv-x="145" d="M27 81 L27 72 L27 54 L27 36 L9 36 L9 54 L9 63 L0 63 L0 81 L9 81 L9 90 L18 90 L18 99 L36 99 L36 81 L27 81 zM36 72 L54 72 L54 63 L54 54 L54 45 L36 45 L36 54 L36 63 L36 72 zM117 45 L135 45 L135 27 L117 27 L117 36 L108 36 L108 18 L99 18 L99 9 L90 9 L90 0 L72 0 L72 18 L81 18 L81 27 L90 27 L90 36 L99 36 L99 45 L90 45 L90 36 L81 36 L81 27 L63 27 L63 45 L72 45 L72 54 L63 54 L63 72 L72 72 L72 81 L81 81 L81 99 L99 99 L99 90 L108 90 L126 90 L126 72 L117 72 L117 63 L108 63 L108 54 L117 54 C117 51 117 48 117 45 zM90 54 L90 63 L99 63 L99 72 L90 72 L90 63 L81 63 L81 54 C84 54 87 54 90 54 zM99 9 L117 9 L117 -9 L108 -9 L108 -18 L99 -18 L99 -27 L81 -27 L81 -9 L90 -9 L90 0 L99 0 L99 9 z" />
<glyph unicode="俯" horiz-adv-x="136" d="M117 54 L126 54 L126 36 L117 36 L117 27 L117 18 L117 9 L108 9 L108 0 L90 0 L90 18 L81 18 L81 9 L63 9 L63 27 L63 36 L54 36 L54 27 L54 9 L45 9 L45 0 L27 0 L27 18 L36 18 L36 27 L36 45 L36 63 L36 72 L36 81 L27 81 L27 72 L27 54 L27 36 L9 36 L9 54 L9 63 L0 63 L0 81 L9 81 L9 90 L18 90 L18 99 L36 99 L36 90 L54 90 L72 90 L72 99 L90 99 L90 90 L108 90 L108 72 L90 72 L90 54 L81 54 L81 45 L81 36 L90 36 L90 18 L99 18 L99 27 L99 36 L90 36 L90 54 L99 54 L99 63 L117 63 C117 60 117 57 117 54 zM54 63 L54 54 L63 54 L63 63 L72 63 L72 72 L54 72 C54 69 54 66 54 63 z" />
<glyph unicode="俱" horiz-adv-x="109" d="M90 -9 L99 -9 L99 -27 L81 -27 L72 -27 L63 -27 L54 -27 L36 -27 L36 -9 L45 -9 L45 0 L45 18 L45 36 L45 54 L45 63 L45 72 L45 81 L45 99 L54 99 L63 99 L72 99 L72 90 L90 90 L90 81 L90 72 L90 63 L90 54 L90 45 L90 36 L90 18 L90 0 C90 -3 90 -6 90 -9 zM63 27 L63 18 L72 18 L72 27 C69 27 66 27 63 27 zM72 45 L72 54 L63 54 L63 45 C66 45 69 45 72 45 zM72 81 L63 81 L63 72 L72 72 C72 75 72 78 72 81 zM63 -9 L72 -9 L72 0 L63 0 C63 -3 63 -6 63 -9 zM45 -36 L63 -36 L63 -54 L45 -54 L45 -36 zM72 -36 L90 -36 L90 -54 L72 -54 L72 -36 zM36 72 L27 72 L27 63 L27 63 L27 45 L27 27 L9 27 L9 45 L9 54 L0 54 L0 72 L9 72 L9 81 L18 81 L18 90 L36 90 L36 72 z" />
<glyph unicode="個" horiz-adv-x="154" d="M36 81 L27 81 L27 72 L27 72 L27 54 L27 36 L9 36 L9 54 L9 63 L0 63 L0 81 L9 81 L9 90 L18 90 L18 99 L36 99 L36 81 zM90 27 L99 27 L99 36 L90 36 L90 27 zM135 90 L144 90 L144 72 L144 54 L144 36 L126 36 L126 54 L126 72 L126 81 L117 81 L99 81 L99 72 L108 72 L108 54 L99 54 L99 45 L117 45 L117 36 L117 27 L117 18 L108 18 L108 9 L90 9 L72 9 L72 27 L72 45 L81 45 L81 54 L72 54 L72 72 L81 72 L81 81 L63 81 L63 63 C63 57 63 51 63 45 L63 27 L63 9 L63 0 L72 0 L81 0 L99 0 L117 0 L126 0 L126 18 L126 36 L144 36 L144 18 L144 0 L135 0 L135 -18 L117 -18 L99 -18 L81 -18 L72 -18 L63 -18 L54 -18 L54 -9 L45 -9 L45 9 L45 27 C45 33 45 39 45 45 L45 63 L45 81 L45 99 L63 99 L81 99 L99 99 L117 99 L135 99 C135 96 135 93 135 90 z" />
<glyph unicode="倒" horiz-adv-x="163" d="M153 90 L153 72 L153 54 L153 36 L144 36 L135 36 L126 36 L126 54 L135 54 L135 72 L135 90 L153 90 zM126 63 L108 63 L108 72 L108 81 L108 90 L126 90 L126 81 L126 72 L126 63 zM54 81 L45 81 L45 99 L54 99 L63 99 L72 99 L81 99 L81 81 L72 81 L72 72 L54 72 L54 81 zM99 63 L108 63 L108 45 L90 45 L90 27 L81 27 L81 18 L90 18 L90 0 L72 0 L54 0 L54 18 L63 18 L63 27 L54 27 L54 45 L63 45 L63 54 L45 54 L45 72 L63 72 L63 63 L81 63 L81 72 L99 72 C99 69 99 66 99 63 zM81 45 L90 45 L90 54 L81 54 C81 51 81 48 81 45 zM36 81 L27 81 L27 72 L27 72 L27 54 L27 36 L9 36 L9 54 L9 63 L0 63 L0 81 L9 81 L9 90 L18 90 L18 99 L36 99 L36 81 z" />
<glyph unicode="候" horiz-adv-x="118" d="M36 81 L27 81 L27 72 L27 72 L27 54 L27 36 L9 36 L9 54 L9 63 L0 63 L0 81 L9 81 L9 90 L18 90 L18 99 L36 99 L36 81 zM54 81 L54 72 L54 63 L54 54 L36 54 L36 63 L36 72 L36 81 L54 81 zM108 72.072 L108 54.072 L90 54.072 L72 54.072 L72 72.072 L81 72.072 L81 81 L72 81 L72 99 L81 99 L90 99 L99 99 L99 81.072 L99 81 L99 72.072 L108 72.072 zM90 0 L90 -9 L81 -9 L81 -27 L63 -27 L63 -9 L72 -9 L72 0 L63 0 L63 18 L72 18 L72 27 L63 27 L63 18 L45 18 L45 36 L54 36 L54 45 L54 54 L72 54 L72 45 L81 45 L90 45 L99 45 L99 27 L90 27 L90 18 L99 18 L99 0 L90 0 zM90 -9 L108 -9 L108 -27 L90 -27 L90 -9 z" />
<glyph unicode="借" horiz-adv-x="118" d="M90 90 L108 90 L108 72 L90 72 L90 90 zM72 90 L90 90 L90 72 L72 72 L72 90 zM45 90 L63 90 L63 72 L45 72 L45 90 zM81 99 L99 99 L99 81 L81 81 L81 99 zM81 81 L99 81 L99 63 L81 63 L81 81 zM54 99 L72 99 L72 81 L54 81 L54 99 zM63 63 L81 63 L81 45 L63 45 L63 63 zM81 63 L99 63 L99 45 L81 45 L81 63 zM90 63 L108 63 L108 45 L90 45 L90 63 zM45 63 L63 63 L63 45 L45 45 L45 63 zM72 36 L90 36 L90 18 L72 18 L72 36 zM72 9 L90 9 L90 -9 L72 -9 L72 9 zM54 -18 L72 -18 L72 -36 L54 -36 L54 -18 zM72 -18 L90 -18 L90 -36 L72 -36 L72 -18 zM54 36 L72 36 L72 18 L54 18 L54 36 zM54 18 L72 18 L72 0 L54 0 L54 18 zM54 0 L72 0 L72 -18 L54 -18 L54 0 zM81 27 L99 27 L99 9 L81 9 L81 27 zM81 9 L99 9 L99 -9 L81 -9 L81 9 zM81 -9 L99 -9 L99 -27 L81 -27 L81 -9 zM81 -18 L99 -18 L99 -36 L81 -36 L81 -18 zM54 81 L72 81 L72 63 L54 63 L54 81 zM9 64 L27 64 L27 46 L9 46 L9 64 zM9 82 L27 82 L27 64 L9 64 L9 82 zM0 73 L18 73 L18 55 L0 55 L0 73 zM18 91 L36 91 L36 73 L18 73 L18 91 z" />
<glyph unicode="倦" horiz-adv-x="136" d="M45 99 L63 99 L63 81 L45 81 L45 99 zM99 99 L117 99 L117 81 L99 81 L99 99 zM117 -18 L108 -18 L108 -27 L90 -27 L90 -9 L99 -9 L99 0 L90 0 L81 0 L81 -9 L81 -9.378 L81 -27 L81 -36 L90 -36 L99 -36 L108 -36 L108 -27 L126 -27 L126 -45 L117 -45 L117 -54 L99 -54 L90 -54 L81 -54 L72 -54 L72 -45 L63 -45 L63 -27 L63 -9.378 L63 -9 L63 0 L54 0 L54 -9 L36 -9 L36 9 L45 9 L45 18 L54 18 L54 27 L45 27 L45 45 L63 45 L72 45 L72 54 L63 54 L45 54 L45 72 L63 72 L72 72 L72 90 L90 90 L90 72 L99 72 L117 72 L117 54 L99 54 L90 54 L90 45 L99 45 L117 45 L117 27 L108 27 L108 18 L117 18 L117 9 L126 9 L126 -9 L117 -9 C117 -12 117 -15 117 -18 zM81 18 L90 18 L90 27 L81 27 L72 27 L72 18 L63 18 L63 8.622 L72 8.622 L72 18 C75 18 78 18 81 18 zM36 72 L27 72 L27 63 L27 63 L27 45 L27 27 L9 27 L9 45 L9 54 L0 54 L0 72 L9 72 L9 81 L18 81 L18 90 L36 90 L36 72 z" />
<glyph unicode="债" horiz-adv-x="91" d="M63 -36 L81 -36 L81 -54 L63 -54 L63 -36 zM63 -18 L63 -9 L54 -9 L45 -9 L45 -18 L54 -18 L54 -27 L54 -36 L54 -45 L45 -45 L45 -54 L27 -54 L27 -36 L36 -36 L36 -27 L27 -27 L27 -9 L27 9 L36 9 L45 9 L54 9 L72 9 L72 0 L81 0 L81 -9 L81 -18 L81 -27 L63 -27 L63 -18 zM72 72 L72 63 L81 63 L81 45 L72 45 L72 36 L81 36 L81 18 L63 18 L45 18 L45 36 L54 36 L54 45 L45 45 L45 63 L54 63 L54 72 L45 72 L45 90 L63 90 L81 90 L81 72 L72 72 zM54 99 L72 99 L72 81 L54 81 L54 99 zM36 36 L27 36 L27 27 L27 9 L9 9 L9 18 L0 18 L0 36 L9 36 L9 45 L18 45 L18 54 L36 54 L36 36 z" />
<glyph unicode="值" horiz-adv-x="109" d="M9 54 L27 54 L27 36 L9 36 L9 54 zM9 72 L27 72 L27 54 L9 54 L9 72 zM18 81 L36 81 L36 63 L18 63 L18 81 zM0 63 L18 63 L18 45 L0 45 L0 63 zM54 45 L72 45 L72 27 L54 27 L54 45 zM72 45 L90 45 L90 27 L72 27 L72 45 zM45 63 L63 63 L63 45 L45 45 L45 63 zM45 90 L63 90 L63 72 L45 72 L45 90 zM54 99 L72 99 L72 81 L54 81 L54 99 zM54 72 L72 72 L72 54 L54 54 L54 72 zM54 99 L72 99 L72 81 L54 81 L54 99 zM63 90 L81 90 L81 72 L63 72 L63 90 zM54 18 L72 18 L72 0 L54 0 L54 18 zM72 18 L90 18 L90 0 L72 0 L72 18 zM63 -9 L81 -9 L81 -27 L63 -27 L63 -9 zM45 9 L63 9 L63 -9 L45 -9 L45 9 zM45 45 L63 45 L63 27 L45 27 L45 45 zM45 27 L63 27 L63 9 L45 9 L45 27 zM72 63 L90 63 L90 45 L72 45 L72 63 zM72 18 L90 18 L90 0 L72 0 L72 18 zM72 36 L90 36 L90 18 L72 18 L72 36 zM72 0 L90 0 L90 -18 L72 -18 L72 0 zM45 -9 L63 -9 L63 -27 L45 -27 L45 -9 zM36 -9 L54 -9 L54 -27 L36 -27 L36 -9 zM81 -9 L99 -9 L99 -27 L81 -27 L81 -9 z" />
<glyph unicode="假" horiz-adv-x="127" d="M36 81 L27 81 L27 72 L27 54 L9 54 L9 63 L0 63 L0 81 L9 81 L9 90 L18 90 L18 99 L36 99 L36 81 zM45 99 L63 99 L81 99 L81 81 L81 63 L72 63 L72 54 L54 54 L54 45 L63 45 L63 27 L54 27 L54 18 L63 18 L63 0 L54 0 L54 -9 L36 -9 L36 9 L36 27 L36 45 L36 63 L36 81 L45 81 C45 87 45 93 45 99 zM63 72 L63 81 L54 81 L54 72 C57 72 60 72 63 72 zM117 99 L117 81 L117 63 L108 63 L108 54 L90 54 L90 72 L99 72 L99 81 L90 81 L90 99 L99 99 L108 99 L117 99 zM108 18 L108 9 L117 9 L117 -9 L99 -9 L99 0 L90 0 L90 -9 L72 -9 L72 9 L90 9 L90 18 L99 18 L99 27 L90 27 L90 18 L72 18 L72 36 L81 36 L81 45 L90 45 L99 45 L108 45 L108 36 L117 36 L117 18 L108 18 z" />
<glyph unicode="偈" horiz-adv-x="127" d="M108 9 L117 9 L117 0 L117 -9 L117 -18 L117 -36 L117 -45 L117 -54 L117 -63 L108 -63 L108 -72 L90 -72 L90 -63 L72 -63 L54 -63 L54 -54 L45 -54 L45 -45 L45 -36 L45 -27 L45 -18 L45 -9 L63 -9 L63 -18 L72 -18 L72 -9 L90 -9 L90 -18 L99 -18 L99 -9 L99 0 L90 0 L81 0 L72 0 L63 0 L54 0 L45 0 L45 -9 L27 -9 L27 9 L36 9 L36 18 L45 18 L45 27 L63 27 L63 18 L72 18 L81 18 L90 18 L99 18 L108 18 C108 15 108 12 108 9 zM99 -54 L99 -45 L99 -36 L90 -36 L90 -27 L81 -27 L81 -36 L63 -36 L63 -45 L72 -45 L90 -45 L90 -54 C93 -54 96 -54 99 -54 zM72 99 L90 99 L90 81 L90 63 L90 45 L90 27 L81 27 L72 27 L63 27 L63 36 L45 36 L45 45 L45 54 L45 63 L45 81 L45 99 L54 99 L63 99 C66 99 69 99 72 99 zM63 45 L72 45 L72 54 L63 54 C63 51 63 48 63 45 zM72 72 L72 81 L63 81 L63 72 C66 72 69 72 72 72 zM36 54 L27 54 L27 45 L27 45 L27 27 L27 9 L9 9 L9 27 L9 36 L0 36 L0 54 L9 54 L9 63 L18 63 L18 72 L36 72 L36 54 z" />
<glyph unicode="偏" horiz-adv-x="172" d="M36 81 L27 81 L27 72 L27 54 L9 54 L9 63 L0 63 L0 81 L9 81 L9 90 L18 90 L18 99 L36 99 L36 81 zM153 36 L162 36 L162 27 L162 18 L162 9 L162 0 L144 0 L144 9 L135 9 L135 0 L117 0 L117 9 L108 9 L108 0 L90 0 L90 9 L81 9 L81 0 L63 0 L63 9 L63 18 L63 27 L63 36 L63 54 L81 54 L99 54 L117 54 L135 54 L153 54 C153 48 153 42 153 36 zM90 27 L90 36 L81 36 L81 27 C84 27 87 27 90 27 zM117 27 L117 36 L108 36 L108 27 C111 27 114 27 117 27 zM144 27 L144 36 L135 36 L135 27 C138 27 141 27 144 27 zM45 99 L63 99 L63 81 L45 81 L45 99 zM63 90 L81 90 L81 72 L63 72 L63 90 zM63 81 L81 81 L81 63 L63 63 L63 81 zM36 81 L54 81 L54 63 L36 63 L36 81 zM45 72 L63 72 L63 54 L45 54 L45 72 zM36 63 L54 63 L54 45 L36 45 L36 63 zM36 54 L54 54 L54 36 L36 36 L36 54 zM27 45 L45 45 L45 27 L27 27 L27 45 z" />
<glyph unicode="偕" horiz-adv-x="145" d="M135 54 L126 54 L126 45 L108 45 L90 45 L90 54 L81 54 L81 99 L99 99 L99 90 L108 90 L108 99 L126 99 L126 81 L108 81 L108 72 L99 72 L99 63 L108 63 L117 63 L117 72 L135 72 L135 54 zM72 45 L54 45 L54 54 L45 54 L45 99 L63 99 L63 90 L72 90 L72 72 L63 72 L63 63 L72 63 L72 45 zM108 27 L117 27 L117 18 L117 9 L117 0 L117 -18 L117 -36 L99 -36 L81 -36 L63 -36 L63 -18 L63 0 L63 18 L63 36 L72 36 L72 45 L90 45 L90 36 L99 36 L108 36 C108 33 108 30 108 27 zM81 -18 L99 -18 L99 -9 L81 -9 C81 -12 81 -15 81 -18 zM81 9 L99 9 L99 18 L90 18 L81 18 C81 15 81 12 81 9 zM9 72 L27 72 L27 54 L9 54 L9 72 zM9 90 L27 90 L27 72 L9 72 L9 90 zM18 99 L36 99 L36 81 L18 81 L18 99 zM0 81 L18 81 L18 63 L0 63 L0 81 z" />
<glyph unicode="做" horiz-adv-x="163" d="M45 45 L63 45 L63 27 L45 27 L45 45 zM63 45 L81 45 L81 27 L63 27 L63 45 zM72 27 L90 27 L90 9 L72 9 L72 27 zM72 36 L90 36 L90 18 L72 18 L72 36 zM45 18 L63 18 L63 0 L45 0 L45 18 zM36 27 L54 27 L54 9 L36 9 L36 27 zM36 36 L54 36 L54 18 L36 18 L36 36 zM63 18 L81 18 L81 0 L63 0 L63 18 zM36 72 L54 72 L54 54 L36 54 L36 72 zM72 72 L90 72 L90 54 L72 54 L72 72 zM54 81 L72 81 L72 63 L54 63 L54 81 zM54 63 L72 63 L72 45 L54 45 L54 63 zM9 54 L27 54 L27 36 L9 36 L9 54 zM9 36 L27 36 L27 18 L9 18 L9 36 zM9 18 L27 18 L27 0 L9 0 L9 18 zM9 72 L27 72 L27 54 L9 54 L9 72 zM18 81 L36 81 L36 63 L18 63 L18 81 zM0 63 L18 63 L18 45 L0 45 L0 63 zM99 72 L117 72 L117 54 L99 54 L99 72 zM99 81 L117 81 L117 63 L99 63 L99 81 zM117 72 L135 72 L135 54 L117 54 L117 72 zM126 54 L144 54 L144 36 L126 36 L126 54 zM117 45 L135 45 L135 27 L117 27 L117 45 zM99 27 L117 27 L117 9 L99 9 L99 27 zM90 18 L108 18 L108 0 L90 0 L90 18 zM99 54 L117 54 L117 36 L99 36 L99 54 zM126 27 L144 27 L144 9 L126 9 L126 27 zM135 18 L153 18 L153 0 L135 0 L135 18 zM135 72 L153 72 L153 54 L135 54 L135 72 zM90 63 L108 63 L108 45 L90 45 L90 63 z" />
<glyph unicode="停" horiz-adv-x="127" d="M9 54 L27 54 L27 36 L9 36 L9 54 zM9 72 L27 72 L27 54 L9 54 L9 72 zM0 63 L18 63 L18 45 L0 45 L0 63 zM18 81 L36 81 L36 63 L18 63 L18 81 zM63 72 L45 72 L45 90 L54 90 L54 99 L72 99 L72 90 L81 90 L81 72 L63 72 zM72 0 L90 0 L90 -18 L81 -18 L81 -27 L81 -36 L81 -45 L72 -45 L72 -54 L54 -54 L54 -36 L63 -36 L63 -27 L63 -18 L54 -18 L54 0 L72 0 zM99 27 L117 27 L117 9 L117 -9 L99 -9 L99 9 L81 9 L63 9 L45 9 L45 -9 L27 -9 L27 9 L27 27 L45 27 L45 45 L45 63 L63 63 L81 63 L81 54 L90 54 L90 45 L90 36 L90 27 C93 27 96 27 99 27 zM72 45 L63 45 L63 36 L72 36 C72 39 72 42 72 45 z" />
<glyph unicode="健" horiz-adv-x="56" d="M144 63 L153 63 L153 45 L144 45 L144 36 L144 18 L126 18 L117 18 L117 9 L126 9 L126 -9 L117 -9 L117 -18 L126 -18 L126 -36 L117 -36 L117 -45 L99 -45 L99 -36 L90 -36 L90 -18 L99 -18 L99 -9 L90 -9 L90 9 L99 9 L99 18 L90 18 L90 36 L99 36 L99 45 L90 45 L90 63 L99 63 L99 72 L90 72 L90 90 L99 90 L99 99 L117 99 L117 90 L126 90 L144 90 L144 81 L144 72 C144 69 144 66 144 63 zM126 72 L117 72 L117 63 L126 63 C126 66 126 69 126 72 zM117 36 L126 36 L126 45 L117 45 C117 42 117 39 117 36 zM99 -54 L99 -72 L90 -72 L81 -72 L72 -72 L72 -63 L63 -63 L63 -54 L54 -54 L54 -72 L36 -72 L36 -54 L45 -54 L45 -45 L27 -45 L27 -27 L45 -27 L45 -36 L54 -36 L54 -27 L63 -27 L63 -18 L45 -18 L45 0 L54 0 L54 9 L45 9 L45 27 L54 27 L63 27 L72 27 L72 18 L72 9 L72 0 L63 0 L63 -9 L81 -9 L81 -27 L72 -27 L72 -45 L81 -45 L81 -54 L90 -54 L99 -54 zM36 18 L27 18 L27 9 L27 9 L27 -9 L27 -27 L9 -27 L9 -9 L9 0 L0 0 L0 18 L9 18 L9 27 L18 27 L18 36 L36 36 L36 18 z" />
<glyph unicode="偶" horiz-adv-x="136" d="M36 81 L54 81 L54 63 L36 63 L36 81 zM36 63 L54 63 L54 45 L36 45 L36 63 zM36 45 L54 45 L54 27 L36 27 L36 45 zM72 99 L90 99 L90 81 L72 81 L72 99 zM54 99 L72 99 L72 81 L54 81 L54 99 zM45 99 L63 99 L63 81 L45 81 L45 99 zM63 81 L81 81 L81 63 L63 63 L63 81 zM45 72 L63 72 L63 54 L45 54 L45 72 zM72 72 L90 72 L90 54 L72 54 L72 72 zM63 63 L81 63 L81 45 L63 45 L63 63 zM63 27 L81 27 L81 9 L63 9 L63 27 zM63 9 L81 9 L81 -9 L63 -9 L63 9 zM81 18 L99 18 L99 0 L81 0 L81 18 zM99 18 L117 18 L117 0 L99 0 L99 18 zM108 9 L126 9 L126 -9 L108 -9 L108 9 zM36 0 L54 0 L54 -18 L36 -18 L36 0 zM45 18 L63 18 L63 0 L45 0 L45 18 zM36 18 L54 18 L54 0 L36 0 L36 18 zM63 -18 L81 -18 L81 -36 L63 -36 L63 -18 zM81 -18 L99 -18 L99 -36 L81 -36 L81 -18 zM90 -27 L108 -27 L108 -45 L90 -45 L90 -27 zM90 -9 L108 -9 L108 -27 L90 -27 L90 -9 zM54 -18 L72 -18 L72 -36 L54 -36 L54 -18 zM63 -9 L81 -9 L81 -27 L63 -27 L63 -9 zM72 45 L90 45 L90 27 L72 27 L72 45 zM54 45 L72 45 L72 27 L54 27 L54 45 zM90 99 L108 99 L108 81 L90 81 L90 99 zM90 81 L108 81 L108 63 L90 63 L90 81 zM90 63 L108 63 L108 45 L90 45 L90 63 zM90 45 L108 45 L108 27 L90 27 L90 45 zM36 81 L27 81 L27 72 L27 54 L9 54 L9 63 L0 63 L0 81 L9 81 L9 90 L18 90 L18 99 L36 99 L36 81 z" />
<glyph unicode="偷" horiz-adv-x="145" d="M54 -18 L63 -18 L63 -9 L54 -9 L54 -18 zM54 9 L63 9 L63 18 L54 18 L54 9 zM72 36 L72 27 L81 27 L81 9 L81 -9 L81 -27 L81 -45 L63 -45 L63 -36 L54 -36 L54 -45 L36 -45 L36 -36 L36 -27 L36 -18 L36 0 L36 18 L36 36 L54 36 C60 36 66 36 72 36 zM108 -9 L90 -9 L90 9 L90 18 L108 18 L108 9 L108 -9 zM135 27 L135 9 L135 -9 L135 -27 L126 -27 L126 -36 L108 -36 L108 -18 L117 -18 L117 -9 L117 9 L117 27 L135 27 zM36 81 L27 81 L27 72 L27 54 L27 36 L9 36 L9 54 L9 63 L0 63 L0 81 L9 81 L9 90 L18 90 L18 99 L36 99 L36 81 zM117 81 L117 63 L99 63 L99 72 L81 72 L81 81 L72 81 L72 72 L63 72 L63 63 L45 63 L45 81 L54 81 L54 90 L63 90 L63 99 L81 99 L81 90 L99 90 L99 81 L117 81 zM63 63 L99 63 L99 45 L63 45 L63 63 z" />
<glyph unicode="偾" horiz-adv-x="109" d="M99 27 L90 27 L90 18 L72 18 L72 27 L63 27 L63 18 L45 18 L45 27 L36 27 L36 45 L45 45 L45 54 L63 54 L63 45 L72 45 L72 54 L90 54 L90 45 L99 45 L99 27 zM81 72 L72 72 L72 63 L54 63 L54 72 L45 72 L45 90 L54 90 L54 99 L72 99 L72 90 L81 90 L81 72 zM72 -36 L90 -36 L90 -54 L72 -54 L72 -36 zM90 0 L90 -9 L90 -18 L90 -27 L72 -27 L72 -18 L72 -9 L54 -9 L54 -17.928 L63 -17.928 L63 -26.928 L63 -35.928 L63 -44.928 L54 -44.928 L54 -54 L36 -54 L36 -36 L45 -36 L45 -35.928 L45 -27 L36 -27 L36 -9 L36 9 L54 9 L72 9 L72 0 L90 0 zM36 45 L27 45 L27 36 L27 36 L27 18 L27 0 L9 0 L9 18 L9 27 L0 27 L0 45 L9 45 L9 54 L18 54 L18 63 L36 63 L36 45 z" />
<glyph unicode="偿" horiz-adv-x="136" d="M36 36 L27 36 L27 27 L27 9 L9 9 L9 18 L0 18 L0 36 L9 36 L9 45 L18 45 L18 54 L36 54 L36 36 zM126 90 L126 81 L126 72 L126 63 L108 63 L108 72 L90 72 L72 72 L54 72 L54 54 L36 54 L36 72 L36 90 L45 90 L45 99 L63 99 L63 90 L72 90 L72 99 L90 99 L90 90 L99 90 L99 99 L117 99 L117 90 L126 90 zM81 45 L63 45 L63 63 L81 63 L99 63 L99 45 L81 45 zM117 -9 L126 -9 L126 -27 L108 -27 L108 -18 L90 -18 L72 -18 L54 -18 L54 0 L63 0 L63 9 L72 9 L72 18 L63 18 L63 36 L81 36 L99 36 L99 18 L90 18 L90 9 L81 9 L81 0 L90 0 L99 0 L99 9 L117 9 L117 -9 z" />
<glyph unicode="储" horiz-adv-x="145" d="M135 72 L126 72 L126 63 L135 63 L135 45 L117 45 L108 45 L108 36 L117 36 L126 36 L126 18 L126 9 L126 0 L126 -9 L126 -27 L117 -27 L117 -36 L99 -36 L99 -27 L81 -27 L81 -9 L81 9 L63 9 L63 27 L72 27 L72 36 L90 36 L90 27 L99 27 L99 36 L90 36 L90 45 L81 45 L63 45 L63 63 L81 63 L81 72 L72 72 L72 90 L81 90 L81 99 L99 99 L99 90 L108 90 L108 72 L99 72 L99 63 L108 63 L108 72 L117 72 L117 90 L135 90 C135 84 135 78 135 72 zM99 -9 L99 -18 L108 -18 L108 -9 C105 -9 102 -9 99 -9 zM108 9 L108 18 L99 18 L99 9 C102 9 105 9 108 9 zM36 63 L54 63 L54 45 L36 45 L36 63 zM54 9 L63 9 L63 -9 L45 -9 L45 0 L36 0 L36 18 L27 18 L27 36 L36 36 L45 36 L54 36 L54 18 L54 9 zM36 63 L27 63 L27 54 L27 36 L9 36 L9 45 L0 45 L0 63 L9 63 L9 72 L18 72 L18 81 L36 81 L36 63 z" />
<glyph unicode="催" horiz-adv-x="118" d="M72 45 L63 45 L63 36 L63 36 L63 18 L63 0 L45 0 L45 18 L45 27 L36 27 L36 45 L45 45 L45 54 L54 54 L54 63 L72 63 L72 45 zM90 18 L90 9 L99 9 L99 -9 L90 -9 L90 -18 L99 -18 L99 -36 L90 -36 L90 -45 L99 -45 L99 -63 L81 -63 L63 -63 L63 -45 L72 -45 L72 -36 L63 -36 L63 -18 L72 -18 L72 -9 L63 -9 L63 9 L72 9 L72 18 L63 18 L63 36 L72 36 L72 45 L90 45 L90 36 L99 36 L99 18 L90 18 zM108 99 L108 90 L108 81 L108 72 L90 72 L72 72 L54 72 L36 72 L36 81 L36 90 L36 99 L54 99 L54 90 L63 90 L63 99 L81 99 L81 90 L90 90 L90 99 L108 99 zM36 45 L27 45 L27 36 L27 18 L9 18 L9 27 L0 27 L0 45 L9 45 L9 54 L18 54 L18 63 L36 63 L36 45 z" />
<glyph unicode="傲" horiz-adv-x="172" d="M153 36 L144 36 L144 27 L153 27 L153 18 L162 18 L162 0 L144 0 L144 9 L135 9 L135 27 L126 27 L126 36 L108 36 L108 45 L99 45 L99 63 L108 63 L108 72 L117 72 L117 81 L135 81 L135 72 L144 72 L162 72 L162 54 L153 54 C153 48 153 42 153 36 zM126 45 L135 45 L135 54 L126 54 C126 51 126 48 126 45 zM108 27 L126 27 L126 9 L117 9 L117 0 L99 0 L99 18 L108 18 L108 27 zM36 90 L36 72 L27 72 L27 63 L27 63 L27 45 L27 36 L9 36 L9 45 L9 54 L0 54 L0 72 L9 72 L9 81 L18 81 L18 90 L36 90 zM45 90 L63 90 L63 72 L45 72 L45 90 zM54 99 L72 99 L72 81 L54 81 L54 99 zM63 90 L81 90 L81 72 L63 72 L63 90 zM45 63 L63 63 L63 45 L45 45 L45 63 zM54 72 L72 72 L72 54 L54 54 L54 72 zM63 63 L81 63 L81 45 L63 45 L63 63 zM45 36 L63 36 L63 18 L45 18 L45 36 zM54 45 L72 45 L72 27 L54 27 L54 45 zM54 18 L72 18 L72 0 L54 0 L54 18 zM54 0 L72 0 L72 -18 L54 -18 L54 0 zM72 9 L90 9 L90 -9 L72 -9 L72 9 zM81 0 L99 0 L99 -18 L81 -18 L81 0 zM63 36 L81 36 L81 18 L63 18 L63 36 z" />
<glyph unicode="像" horiz-adv-x="163" d="M81 63 L99 63 L99 45 L81 45 L81 63 zM81 72 L99 72 L99 54 L81 54 L81 72 zM99 72 L117 72 L117 54 L99 54 L99 72 zM63 72 L81 72 L81 54 L63 54 L63 72 zM54 63 L72 63 L72 45 L54 45 L54 63 zM54 54 L72 54 L72 36 L54 36 L54 54 zM108 63 L126 63 L126 45 L108 45 L108 63 zM108 54 L126 54 L126 36 L108 36 L108 54 zM72 36 L90 36 L90 18 L72 18 L72 36 zM72 45 L90 45 L90 27 L72 27 L72 45 zM90 45 L108 45 L108 27 L90 27 L90 45 zM99 45 L117 45 L117 27 L99 27 L99 45 zM63 27 L81 27 L81 9 L63 9 L63 27 zM54 18 L72 18 L72 0 L54 0 L54 18 zM81 9 L99 9 L99 -9 L81 -9 L81 9 zM72 0 L90 0 L90 -18 L72 -18 L72 0 zM99 -9 L117 -9 L117 -27 L99 -27 L99 -9 zM90 18 L108 18 L108 0 L90 0 L90 18 zM108 9 L126 9 L126 -9 L108 -9 L108 9 zM126 0 L144 0 L144 -18 L126 -18 L126 0 zM135 -9 L153 -9 L153 -27 L135 -27 L135 -9 zM126 27 L144 27 L144 9 L126 9 L126 27 zM108 -27 L126 -27 L126 -45 L108 -45 L108 -27 zM108 -36 L126 -36 L126 -54 L108 -54 L108 -36 zM99 -45 L117 -45 L117 -63 L99 -63 L99 -45 zM90 -18 L108 -18 L108 -36 L90 -36 L90 -18 zM81 -27 L99 -27 L99 -45 L81 -45 L81 -27 zM36 81 L54 81 L54 63 L36 63 L36 81 zM45 90 L63 90 L63 72 L45 72 L45 90 zM63 99 L81 99 L81 81 L63 81 L63 99 zM81 99 L99 99 L99 81 L81 81 L81 99 zM90 90 L108 90 L108 72 L90 72 L90 90 zM9 72 L27 72 L27 54 L9 54 L9 72 zM9 54 L27 54 L27 36 L9 36 L9 54 zM9 90 L27 90 L27 72 L9 72 L9 90 zM18 99 L36 99 L36 81 L18 81 L18 99 zM0 81 L18 81 L18 63 L0 63 L0 81 z" />
<glyph unicode="僧" horiz-adv-x="172" d="M63 63 L81 63 L81 45 L63 45 L63 63 zM117 63 L135 63 L135 45 L117 45 L117 63 zM144 81 L162 81 L162 69.75 L162 63 L162 54 L162 51.75 L162 45 L162 36 L162 27 L153 27 L153 18 L135 18 L117 18 L108 18 L99 18 L90 18 L81 18 L72 18 L63 18 L45 18 L45 27 L36 27 L36 36 L36 45 L36 54 L36 72 L45 72 L45 90 L63 90 L72 90 L72 99 L90 99 L90 90 L99 90 L99 99 L117 99 L117 90 L126 90 L135 90 L144 90 C144 87 144 84 144 81 zM81 36 L90 36 L90 54 L90 72 L81 72 L72 72 L63 72 L54 72 L54 54 L54 45 L54 36 L63 36 L72 36 C75 36 78 36 81 36 zM144 63 L144 69.75 L144 72 L135 72 L126 72 L117 72 L108 72 L108 54 L108 36 L117 36 L135 36 L144 36 L144 45 L144 51.75 L144 54 C144 57 144 60 144 63 zM108 9 L108 0 L117 0 L117 -9 L117 -18 L117 -27 L117 -45 L108 -45 L108 -63 L90 -63 L72 -63 L72 -45 L72 -27 L72 -9 L72 9 L90 9 C96 9 102 9 108 9 zM99 -9 L90 -9 L90 -18 L99 -18 C99 -15 99 -12 99 -9 zM90 -45 L99 -45 L99 -36 L90 -36 C90 -39 90 -42 90 -45 zM36 81 L27 81 L27 72 L27 72 L27 54 L27 44.928 L9 44.928 L9 54 L9 63 L0 63 L0 81 L9 81 L9 90 L18 90 L18 99 L36 99 L36 81 z" />
<glyph unicode="僻" horiz-adv-x="181" d="M45 99 L90.234 99 L90.234 54 L63.234 54 L63 54 L63 36.072 L54 36.072 L54 27.072 L36 27.072 L36 45.072 L45 45.072 L45 54 C45 69 45 84 45 99 zM72 72 L72.234 72 L72.234 81 L72 81 L63.234 81 L63 81 L63 72 L63.234 72 C66.156 72 69.078 72 72 72 zM72 36 L72 45 L90 45 L108 45 L108 36 L108 27 L108 18 L108 0 L90 0 L81 0 L72 0 L63 0 L63 18 L63 36 C66 36 69 36 72 36 zM81 18 L90 18 L90 27 L81 27 C81 24 81 21 81 18 zM117 72 L108 72 L108 90 L117 90 L126 90 L135 90 L135 99 L153 99 L153 90 L171 90 L171 72 L162 72 L162 63 L171 63 L171 45 L153 45 L153 36 L171 36 L171 18 L153 18 L153 9 L135 9 L135 18 L117 18 L117 36 L135 36 L135 45 L126 45 L117 45 L108 45 L108 63 L117 63 C117 66 117 69 117 72 zM135 63 L144 63 L144 72 L135 72 C135 69 135 66 135 63 zM36 45.036 L27 45.036 L27 36.036 L27 18.036 L9 18.036 L9 27.036 L0 27.036 L0 45.036 L9 45.036 L9 54.036 L18 54.036 L18 63.036 L36 63.036 L36 45.036 z" />
<glyph unicode="儿" horiz-adv-x="77.35" d="M7.5 45 L22.5 45 L22.5 30 L7.5 30 L7.5 45 zM7.5 15 L22.5 15 L22.5 0 L7.5 0 L7.5 15 zM7.5 30 L22.5 30 L22.5 15 L7.5 15 L7.5 30 zM0 15 L15 15 L15 0 L0 0 L0 15 zM30 45 L45 45 L45 30 L30 30 L30 45 zM30 15 L45 15 L45 0 L30 0 L30 15 zM30 30 L45 30 L45 15 L30 15 L30 30 zM45 15 L60 15 L60 0 L45 0 L45 15 zM52.35 22.35 L67.35 22.35 L67.35 7.35 L52.35 7.35 L52.35 22.35 z" />
<glyph unicode="元" horiz-adv-x="90.82" d="M18 63 L9 63 L9 81 L18 81 L27 81 L36 81 L36 63 L27 63 L18 63 zM80.82 8.82 L72 8.82 L72 0 L54 0 L36 0 L36 18 L36 18.378 L36 36 L27 36 L27 18.378 L27 18 L27 0 L18 0 L9 0 L0 0 L0 18 L9 18 L9 18.378 L9 36 L0 36 L0 54 L9 54 L18 54 L27 54 L45 54 L63 54 L63 36 L54 36 L54 18.378 L54 18 L62.82 18 L62.82 26.82 L80.82 26.82 L80.82 8.82 z" />
<glyph unicode="兄" horiz-adv-x="56" d="M45 54 L36 54 L18 54 L18 45 L27 45 L45 45 L45 54 zM81 27 L81 9 L72 9 L72 0 L63 0 L54 0 L45 0 L45 9 L36 9 L36 18 L36 27 L27 27 L27 9 L18 9 L18 0 L0 0 L0 18 L9 18 L9 27 L9 36 L0 36 L0 54 L0 72 L18 72 L36 72 L54 72 L54 63 L63 63 L63 54 L63 45 L63 36 L54 36 L54 27 L54 18 L63 18 L63 27 C69 27 75 27 81 27 z" />
<glyph unicode="充" horiz-adv-x="91" d="M72 27 L54 27 L54 36 L36 36 L18 36 L18 45 L9 45 L9 63 L18 63 L18 72 L9 72 L9 90 L18 90 L18 99 L36 99 L36 90 L45 90 L45 72 L36 72 L36 63 L27 63 L27 54 L36 54 L45 54 L45 63 L63 63 L63 45 L72 45 L72 27 zM9 27 L27 27 L27 18 L27 9 L27 0 L18 0 L18 -9 L0 -9 L0 9 L9 9 L9 18 L9 27 zM81 18 L81 0 L72 0 L72 -9 L54 -9 L36 -9 L36 0 L36 9 L36 18 L36 27 L54 27 L54 18 L54 9 L63 9 L63 18 L81 18 z" />
<glyph unicode="先" horiz-adv-x="109" d="M18 45 L36 45 L36 27 L18 27 L18 45 zM36 45 L54 45 L54 27 L36 27 L36 45 zM63 45 L81 45 L81 27 L63 27 L63 45 zM54 45 L72 45 L72 27 L54 27 L54 45 zM36 63 L54 63 L54 45 L36 45 L36 63 zM36 81 L54 81 L54 63 L36 63 L36 81 zM45 72 L63 72 L63 54 L45 54 L45 72 zM18 72 L36 72 L36 54 L18 54 L18 72 zM9 81 L27 81 L27 63 L9 63 L9 81 zM0 63 L18 63 L18 45 L0 45 L0 63 zM27 27 L45 27 L45 9 L27 9 L27 27 zM18 18 L36 18 L36 0 L18 0 L18 18 zM54 27 L72 27 L72 9 L54 9 L54 27 zM63 18 L81 18 L81 0 L63 0 L63 18 zM72 18 L90 18 L90 0 L72 0 L72 18 zM81 27 L99 27 L99 9 L81 9 L81 27 z" />
<glyph unicode="光" horiz-adv-x="100" d="M72 45 L72 27 L63 27 L54 27 L45 27 L36 27 L36 18 L27 18 L27 0 L9 0 L9 18 L18 18 L18 27 L9 27 L9 45 L27 45 L27 54 L27 63 L27 72 L45 72 L45 63 L45 54 L45 45 L54 45 L63 45 L72 45 zM54 72 L72 72 L72 54 L54 54 L54 72 zM0 72 L18 72 L18 54 L0 54 L0 72 zM90 9 L81 9 L81 0 L72 0 L63 0 L54 0 L54 9 L45 9 L45 27 L63 27 L63 18 L72 18 L72 27 L90 27 L90 9 z" />
<glyph unicode="免" horiz-adv-x="109" d="M27 18 L45 18 L45 0 L36 0 L36 -9 L18 -9 L18 9 L27 9 L27 18 zM99 18 L99 0 L90 0 L90 -9 L81 -9 L72 -9 L63 -9 L63 0 L54 0 L54 18 L45 18 L45 27 L36 27 L27 27 L27 36 L18 36 L18 45 L18 54 L0 54 L0 72 L9 72 L9 81 L18 81 L18 99 L36 99 L36 90 L54 90 L54 81 L54 72 L63 72 L81 72 L81 63 L90 63 C90 57 90 51 90 45 L90 27 L72 27 L72 18 L72 9 L81 9 L81 18 C87 18 93 18 99 18 zM72 54 L63 54 L63 45 L72 45 C72 48 72 51 72 54 zM36 81 L27 81 L27 72 L36 72 C36 75 36 78 36 81 zM36 45 L45 45 L45 54 L36 54 C36 51 36 48 36 45 z" />
<glyph unicode="兑" horiz-adv-x="91" d="M0 63 L18 63 L18 45 L0 45 L0 63 zM18 72 L36 72 L36 54 L18 54 L18 72 zM27 45 L45 45 L45 27 L27 27 L27 45 zM18 45 L36 45 L36 27 L18 27 L18 45 zM9 36 L27 36 L27 18 L9 18 L9 36 zM36 63 L54 63 L54 45 L36 45 L36 63 zM0 99 L18 99 L18 81 L0 81 L0 99 zM27 99 L45 99 L45 81 L27 81 L27 99 zM0 72 L18 72 L18 54 L0 54 L0 72 zM36 72 L54 72 L54 54 L36 54 L36 72 zM36 36 L54 36 L54 18 L36 18 L36 36 zM0 27 L18 27 L18 9 L0 9 L0 27 zM36 27 L54 27 L54 9 L36 9 L36 27 zM45 18 L63 18 L63 0 L45 0 L45 18 zM54 18 L72 18 L72 0 L54 0 L54 18 zM63 27 L81 27 L81 9 L63 9 L63 27 z" />
<glyph unicode="兔" horiz-adv-x="127" d="M117 18 L117 0 L108 0 L108 -9 L90 -9 L72 -9 L72 0 L63 0 L63 18 L63 27 L54 27 L54 18 L54 0 L45 0 L45 -9 L27 -9 L27 9 L36 9 L36 18 L36 27 L27 27 L27 36 L18 36 L18 45 L18 54 L0 54 L0 72 L9 72 L9 81 L18 81 L18 99 L36 99 L36 90 L54 90 L54 81 L54 72 L63 72 L81 72 L81 63 L90 63 C90 57 90 51 90 45 L90 36 L108 36 L108 18 C111 18 114 18 117 18 zM72 54 L63 54 L63 45 L72 45 C72 48 72 51 72 54 zM45 45 L45 54 L36 54 L36 45 C39 45 42 45 45 45 zM36 81 L27 81 L27 72 L36 72 C36 75 36 78 36 81 zM81 9 L90 9 L99 9 L99 18 L90 18 L90 27 L81 27 L81 18 C81 15 81 12 81 9 z" />
<glyph unicode="入" horiz-adv-x="82.054" d="M9 54 L27 54 L27 36 L9 36 L9 54 zM18.09 45 L36.09 45 L36.09 27 L18.09 27 L18.09 45 zM36.09 36 L54.09 36 L54.09 18 L36.09 18 L36.09 36 zM54.054 18 L72.054 18 L72.054 0 L54.054 0 L54.054 18 zM9 27 L27 27 L27 9 L9 9 L9 27 zM0 18 L18 18 L18 0 L0 0 L0 18 z" />
<glyph unicode="全" horiz-adv-x="55" d="M27 45 L27 36 L36 36 L36 18 L27 18 L27 9 L36 9 L36 -9 L18 -9 L0 -9 L0 9 L9 9 L9 18 L0 18 L0 36 L9 36 L9 45 L0 45 L0 63 L18 63 L36 63 L36 45 L27 45 zM45 90 L45 72 L27 72 L27 81 L18 81 L18 72 L0 72 L0 90 L9 90 L9 99 L27 99 L27 90 L45 90 z" />
<glyph unicode="兩" horiz-adv-x="136" d="M117 54 L126 54 L126 36 L126 18 L126 0 L108 0 L108 18 L99 18 L99 27 L90 27 L90 9 L72 9 L72 0 L54 0 L54 9 L54 18 L45 18 L45 27 L36 27 L36 9 L18 9 L18 0 L0 0 L0 9 L0 18 L0 27 L0 45 L0 63 L9 63 L18 63 L27 63 L45 63 L54 63 L54 72 L45 72 L45 90 L63 90 L81 90 L81 72 L72 72 L72 63 L81 63 L99 63 L117 63 C117 60 117 57 117 54 zM18 27 L27 27 L27 45 L18 45 C18 39 18 33 18 27 zM45 36 L54 36 L54 45 L45 45 C45 42 45 39 45 36 zM72 27 L81 27 L81 45 L72 45 C72 39 72 33 72 27 zM99 36 L108 36 L108 45 L99 45 C99 42 99 39 99 36 z" />
<glyph unicode="八" horiz-adv-x="73" d="M9 27 L27 27 L27 9 L9 9 L9 27 zM0 18 L18 18 L18 0 L0 0 L0 18 zM36 36 L54 36 L54 18 L36 18 L36 36 zM45 18 L63 18 L63 0 L45 0 L45 18 z" />
<glyph unicode="公" horiz-adv-x="91" d="M54 63 L72 63 L72 45 L54 45 L54 63 zM0 63 L18 63 L18 45 L0 45 L0 63 zM81 18 L81 0 L63 0 L63 9 L45 9 L27 9 L27 18 L18 18 L18 36 L27 36 L27 45 L27 54 L27 63 L45 63 L45 54 L45 45 L45 36 L36 36 L36 27 L45 27 L54 27 L54 36 L72 36 L72 18 L81 18 z" />
<glyph unicode="六" horiz-adv-x="73" d="M18 72 L36 72 L36 54 L18 54 L18 72 zM9 18 L27 18 L27 0 L9 0 L9 18 zM36 18 L54 18 L54 0 L36 0 L36 18 zM63 45 L63 27 L54 27 L45 27 L36 27 L18 27 L0 27 L0 45 L18 45 L36 45 L45 45 L54 45 L63 45 z" />
<glyph unicode="兰" horiz-adv-x="55" d="M18 72 L36 72 L36 54 L18 54 L0 54 L0 72 L18 72 zM0 99 L18 99 L18 81 L0 81 L0 99 zM27 99 L45 99 L45 81 L27 81 L27 99 zM18 45 L36 45 L36 27 L18 27 L0 27 L0 45 L18 45 zM18 18 L36 18 L36 0 L18 0 L0 0 L0 18 L18 18 z" />
<glyph unicode="共" horiz-adv-x="73" d="M9 18 L27 18 L27 0 L9 0 L9 18 zM36 18 L54 18 L54 0 L36 0 L36 18 zM63 54 L54 54 L54 45 L63 45 L63 27 L54 27 L45 27 L36 27 L18 27 L0 27 L0 45 L9 45 L9 54 L0 54 L0 72 L9 72 L9 81 L27 81 L27 72 L36 72 L36 81 L54 81 L54 72 L63 72 C63 66 63 60 63 54 zM27 45 L36 45 L36 54 L27 54 C27 51 27 48 27 45 z" />
<glyph unicode="关" horiz-adv-x="54.96788" d="M8.99358 44.96788 L26.98073 44.96788 L26.98073 26.98073 L8.99358 26.98073 L8.99358 44.96788 zM0 44.96788 L17.98716 44.96788 L17.98716 26.98073 L0 26.98073 L0 44.96788 zM8.99358 35.97431 L26.98073 35.97431 L26.98073 17.98716 L8.99358 17.98716 L8.99358 35.97431 zM0 17.98716 L17.98716 17.98716 L17.98716 0 L0 0 L0 17.98716 zM26.98073 17.98716 L44.96788 17.98716 L44.96788 0 L26.98073 0 L26.98073 17.98716 zM8.99358 62.95504 L26.98073 62.95504 L26.98073 44.96788 L8.99358 44.96788 L8.99358 62.95504 zM8.99358 71.94861 L26.98073 71.94861 L26.98073 53.96146 L8.99358 53.96146 L8.99358 71.94861 zM17.98716 44.96788 L35.97431 44.96788 L35.97431 26.98073 L17.98716 26.98073 L17.98716 44.96788 zM0 71.94861 L17.98716 71.94861 L17.98716 53.96146 L0 53.96146 L0 71.94861 zM17.98716 71.94861 L35.97431 71.94861 L35.97431 53.96146 L17.98716 53.96146 L17.98716 71.94861 zM0 98.92934 L17.98716 98.92934 L17.98716 80.94219 L0 80.94219 L0 98.92934 zM26.98073 98.92934 L44.96788 98.92934 L44.96788 80.94219 L26.98073 80.94219 L26.98073 98.92934 z" />
<glyph unicode="兴" horiz-adv-x="99.982" d="M18 18 L36 18 L36 0 L18 0 L18 18 zM53.982 18 L71.982 18 L71.982 0 L53.982 0 L53.982 18 zM9 72 L27 72 L27 54 L9 54 L9 72 zM36 72 L54 72 L54 54 L36 54 L36 72 zM62.982 72 L80.982 72 L80.982 54 L62.982 54 L62.982 72 zM89.982 45 L89.982 27 L71.982 27 L54 27 L53.982 27 L36 27 L18 27 L18 27 L0 27 L0 45 L18 45 L18 45 L36 45 L53.982 45 L54 45 L71.982 45 L89.982 45 z" />
<glyph unicode="兵" horiz-adv-x="73" d="M63 54 L54 54 L54 45 L63 45 L63 27 L54 27 L45 27 L36 27 L18 27 L0 27 L0 45 L9 45 L9 54 L9 63 L9 72 L9 81 L9 99 L18 99 L27 99 L36 99 L36 81 L27 81 L27 72 L45 72 L63 72 C63 66 63 60 63 54 zM27 45 L36 45 L36 54 L27 54 C27 51 27 48 27 45 zM9 18 L27 18 L27 0 L9 0 L9 18 zM36 18 L54 18 L54 0 L36 0 L36 18 z" />
<glyph unicode="其" horiz-adv-x="73" d="M27 63 L36 63 L36 72 L27 72 L27 63 zM27 36 L36 36 L36 45 L27 45 L27 36 zM27 9 L36 9 L36 18 L27 18 L27 9 zM9 -18 L27 -18 L27 -36 L18 -36 L18 -45 L0 -45 L0 -27 L9 -27 L9 -18 zM54 -27 L63 -27 L63 -45 L45 -45 L45 -36 L36 -36 L36 -18 L54 -18 L54 -27 zM54 45 L54 27 L54 9 L63 9 L63 -9 L45 -9 L27 -9 L18 -9 L9 -9 L0 -9 L0 9 L9 9 L9 27 L9 45 L9 63 L9 72 L0 72 L0 90 L9 90 L9 99 L27 99 L27 90 L36 90 L36 99 L54 99 L54 90 L63 90 L63 72 L54 72 L54 63 C54 57 54 51 54 45 z" />
<glyph unicode="具" horiz-adv-x="73" d="M54 -9 L63 -9 L63 -27 L45 -27 L36 -27 L27 -27 L18 -27 L0 -27 L0 -9 L9 -9 L9 0 L9 18 L9 36 L9 54 L9 63 L9 72 L9 81 L9 99 L18 99 L27 99 L36 99 L36 90 L54 90 L54 81 L54 72 L54 63 L54 54 L54 45 L54 36 L54 18 L54 0 C54 -3 54 -6 54 -9 zM27 27 L27 18 L36 18 L36 27 C33 27 30 27 27 27 zM36 45 L36 54 L27 54 L27 45 C30 45 33 45 36 45 zM36 81 L27 81 L27 72 L36 72 C36 75 36 78 36 81 zM27 -9 L36 -9 L36 0 L27 0 C27 -3 27 -6 27 -9 zM9 -36 L27 -36 L27 -54 L9 -54 L9 -36 zM36 -36 L54 -36 L54 -54 L36 -54 L36 -36 z" />
<glyph unicode="兹" horiz-adv-x="136" d="M18 90 L36 90 L36 72 L18 72 L18 90 zM27 99 L45 99 L45 81 L27 81 L27 99 zM36 90 L54 90 L54 72 L36 72 L36 90 zM54 90 L72 90 L72 72 L54 72 L54 90 zM54 99 L72 99 L72 81 L54 81 L54 99 zM63 90 L81 90 L81 72 L63 72 L63 90 zM27 27 L45 27 L45 9 L27 9 L27 27 zM18 9 L36 9 L36 -9 L18 -9 L18 9 zM9 -9 L27 -9 L27 -27 L9 -27 L9 -9 zM27 0 L45 0 L45 -18 L27 -18 L27 0 zM36 0 L54 0 L54 -18 L36 -18 L36 0 zM45 -9 L63 -9 L63 -27 L45 -27 L45 -9 zM18 63 L36 63 L36 45 L18 45 L18 63 zM9 45 L27 45 L27 27 L9 27 L9 45 zM0 27 L18 27 L18 9 L0 9 L0 27 zM18 36 L36 36 L36 18 L18 18 L18 36 zM36 36 L54 36 L54 18 L36 18 L36 36 zM90 27 L108 27 L108 9 L90 9 L90 27 zM81 9 L99 9 L99 -9 L81 -9 L81 9 zM72 -9 L90 -9 L90 -27 L72 -27 L72 -9 zM90 0 L108 0 L108 -18 L90 -18 L90 0 zM99 0 L117 0 L117 -18 L99 -18 L99 0 zM108 -9 L126 -9 L126 -27 L108 -27 L108 -9 zM81 63 L99 63 L99 45 L81 45 L81 63 zM72 45 L90 45 L90 27 L72 27 L72 45 zM63 27 L81 27 L81 9 L63 9 L63 27 zM81 36 L99 36 L99 18 L81 18 L81 36 zM99 36 L117 36 L117 18 L99 18 L99 36 z" />
<glyph unicode="养" horiz-adv-x="73" d="M45 9 L63 9 L63 -9 L54 -9 L54 -18 L54 -27 L54 -36 L36 -36 L36 -27 L36 -18 L36 -9 L36 0 L45 0 L45 9 zM63 90 L63 72 L54 72 L45 72 L36 72 L36 63 L45 63 L45 45 L36 45 L36 36 L45 36 L45 18 L27 18 L27 9 L18 9 L18 0 L27 0 L27 -9 L27 -18 L27 -27 L18 -27 L18 -36 L0 -36 L0 -18 L9 -18 L9 -9 L0 -9 L0 9 L9 9 L9 18 L0 18 L0 36 L9 36 L18 36 L18 45 L9 45 L9 63 L18 63 L18 72 L0 72 L0 90 L9 90 L9 99 L27 99 L27 90 L36 90 L36 99 L54 99 L54 90 L63 90 z" />
<glyph unicode="兼" horiz-adv-x="118" d="M27 99 L45 99 L45 81 L27 81 L27 99 zM54 99 L72 99 L72 81 L54 81 L54 99 zM99 18 L108 18 L108 0 L99 0 L99 -9 L99 -27 L81 -27 L72 -27 L72 -36 L81 -36 L81 -45 L99 -45 L99 -63 L81 -63 L81 -54 L72 -54 L72 -63 L54 -63 L54 -54 L54 -45 L54 -36 L54 -27 L45 -27 L45 -36 L45 -45 L45 -54 L45 -63 L27 -63 L27 -54 L18 -54 L18 -63 L0 -63 L0 -45 L18 -45 L18 -36 L27 -36 L27 -27 L18 -27 L18 -9 L27 -9 L27 0 L18 0 L18 18 L27 18 L27 27 L18 27 L18 45 L27 45 L27 54 L18 54 L18 72 L27 72 L36 72 L45 72 L54 72 L63 72 L72 72 L81 72 L81 54 L72 54 L72 45 L81 45 L99 45 L99 36 L99 27 C99 24 99 21 99 18 zM81 27 L72 27 L72 18 L81 18 C81 21 81 24 81 27 zM45 27 L45 18 L54 18 L54 27 C51 27 48 27 45 27 zM54 54 L45 54 L45 45 L54 45 C54 48 54 51 54 54 zM45 -9 L54 -9 L54 0 L45 0 C45 -3 45 -6 45 -9 zM72 -9 L81 -9 L81 0 L72 0 C72 -3 72 -6 72 -9 z" />
<glyph unicode="兽" horiz-adv-x="82" d="M54 81 L72 81 L72 63 L72 45 L72 27 L54 27 L54 18 L45 18 L36 18 L27 18 L9 18 L9 27 L0 27 L0 45 L0 63 L0 81 L9 81 L9 90 L9 99 L27 99 L27 90 L36 90 L36 99 L54 99 L54 90 C54 87 54 84 54 81 zM27 36 L27 45 L18 45 L18 36 C21 36 24 36 27 36 zM27 63 L27 72 L18 72 L18 63 C21 63 24 63 27 63 zM54 36 L54 45 L45 45 L45 36 C48 36 51 36 54 36 zM54 63 L54 72 L45 72 L45 63 C48 63 51 63 54 63 zM18 -9 L9 -9 L9 9 L18 9 L27 9 L36 9 L36 -9 L27 -9 L18 -9 zM36 -18 L36 -27 L54 -27 L54 -45 L54 -63 L36 -63 L27 -63 L18 -63 L9 -63 L9 -45 L9 -36 L9 -27 L9 -18 L18 -18 L27 -18 C30 -18 33 -18 36 -18 zM36 -45 L36 -36 L27 -36 L27 -45 C30 -45 33 -45 36 -45 z" />
<glyph unicode="内" horiz-adv-x="82" d="M63 81 L72 81 L72 63 L72 45 L72 27 L72 9 L63 9 L63 0 L45 0 L45 18 L54 18 L54 27 L36 27 L36 36 L18 36 L18 27 L18 9 L0 9 L0 27 L0 45 L0 63 L0 81 L9 81 L18 81 L27 81 L27 90 L45 90 L45 81 L54 81 C57 81 60 81 63 81 zM18 54 L27 54 L27 63 L18 63 C18 60 18 57 18 54 zM36 45 L54 45 L54 63 L45 63 L45 54 L36 54 C36 51 36 48 36 45 z" />
<glyph unicode="円" horiz-adv-x="82" d="M63 54 L72 54 L72 45 L72 36 L72 27 L72 18 L72 9 L72 0 L54 0 L54 9 L45 9 L27 9 L18 9 L18 0 L0 0 L0 9 L0 18 L0 27 L0 36 L0 45 L0 54 L9 54 L18 54 L27 54 L45 54 L54 54 C57 54 60 54 63 54 zM18 27 L27 27 L27 36 L18 36 C18 33 18 30 18 27 zM45 27 L54 27 L54 36 L45 36 C45 33 45 30 45 27 z" />
<glyph unicode="冇" horiz-adv-x="91" d="M27 27 L45 27 L45 9 L27 9 L27 27 zM27 18 L45 18 L45 0 L27 0 L27 18 zM27 45 L45 45 L45 27 L27 27 L27 45 zM45 63 L63 63 L63 45 L45 45 L45 63 zM54 63 L72 63 L72 45 L54 45 L54 63 zM27 63 L45 63 L45 45 L27 45 L27 63 zM45 90 L63 90 L63 72 L45 72 L45 90 zM63 90 L81 90 L81 72 L63 72 L63 90 zM27 90 L45 90 L45 72 L27 72 L27 90 zM18 72 L36 72 L36 54 L18 54 L18 72 zM27 99 L45 99 L45 81 L27 81 L27 99 zM0 54 L18 54 L18 36 L0 36 L0 54 zM9 90 L27 90 L27 72 L9 72 L9 90 zM63 36 L81 36 L81 18 L63 18 L63 36 zM63 18 L81 18 L81 0 L63 0 L63 18 zM54 18 L72 18 L72 0 L54 0 L54 18 zM63 54 L81 54 L81 36 L63 36 L63 54 z" />
<glyph unicode="冈" horiz-adv-x="82" d="M27 45 L45 45 L45 27 L27 27 L27 45 zM36 54 L54 54 L54 36 L36 36 L36 54 zM9 54 L27 54 L27 36 L9 36 L9 54 zM9 27 L27 27 L27 9 L9 9 L9 27 zM0 36 L18 36 L18 18 L0 18 L0 36 zM0 18 L18 18 L18 0 L0 0 L0 18 zM0 72 L18 72 L18 54 L0 54 L0 72 zM18 72 L36 72 L36 54 L18 54 L18 72 zM36 72 L54 72 L54 54 L36 54 L36 72 zM0 54 L18 54 L18 36 L0 36 L0 54 zM54 36 L72 36 L72 18 L54 18 L54 36 zM54 18 L72 18 L72 0 L54 0 L54 18 zM54 72 L72 72 L72 54 L54 54 L54 72 zM54 54 L72 54 L72 36 L54 36 L54 54 zM36 27 L54 27 L54 9 L36 9 L36 27 z" />
<glyph unicode="册" horiz-adv-x="127" d="M108 27 L117 27 L117 9 L108 9 L108 0 L90 0 L90 9 L81 9 L81 0 L63 0 L63 9 L54 9 L54 0 L36 0 L36 9 L27 9 L27 0 L9 0 L9 9 L0 9 L0 27 L9 27 L9 36 L9 45 L9 54 L27 54 L45 54 L45 45 L54 45 L54 27 L63 27 L63 36 L63 45 L63 54 L81 54 L99 54 L99 45 L108 45 C108 39 108 33 108 27 zM27 27 L36 27 L36 36 L27 36 C27 33 27 30 27 27 zM81 27 L90 27 L90 36 L81 36 C81 33 81 30 81 27 z" />
<glyph unicode="再" horiz-adv-x="100" d="M90 18 L90 0 L81 0 L81 -9 L63 -9 L63 0 L54 0 L36 0 L27 0 L27 -9 L9 -9 L9 0 L0 0 L0 18 L9 18 L9 27 C9 33 9 39 9 45 L9 54 L9 63 L9 72 L18 72 L27 72 L36 72 L36 81 L27 81 L27 99 L45 99 L63 99 L63 81 L54 81 L54 72 L63 72 L72 72 L81 72 L81 63 L81 54 C81 51 81 48 81 45 L81 27 L81 18 C84 18 87 18 90 18 zM63 54 L54 54 C54 51 54 48 54 45 C57 45 60 45 63 45 C63 48 63 51 63 54 zM27 54 C27 51 27 48 27 45 C30 45 33 45 36 45 L36 54 C33 54 30 54 27 54 zM27 18 L36 18 L36 27 L27 27 C27 24 27 21 27 18 zM54 27 L54 18 L63 18 L63 27 C60 27 57 27 54 27 z" />
<glyph unicode="冒" horiz-adv-x="64" d="M0 99 L18 99 L18 81 L0 81 L0 99 zM0 81 L18 81 L18 63 L0 63 L0 81 zM0 63 L18 63 L18 45 L0 45 L0 63 zM0 45 L18 45 L18 27 L0 27 L0 45 zM0 36 L18 36 L18 18 L0 18 L0 36 zM36 99 L54 99 L54 81 L36 81 L36 99 zM36 81 L54 81 L54 63 L36 63 L36 81 zM36 99 L54 99 L54 81 L36 81 L36 99 zM36 63 L54 63 L54 45 L36 45 L36 63 zM36 45 L54 45 L54 27 L36 27 L36 45 zM36 36 L54 36 L54 18 L36 18 L36 36 zM18 99 L36 99 L36 81 L18 81 L18 99 zM18 72 L36 72 L36 54 L18 54 L18 72 zM18 45 L36 45 L36 27 L18 27 L18 45 zM9 9 L27 9 L27 -9 L9 -9 L9 9 zM9 -9 L27 -9 L27 -27 L9 -27 L9 -9 zM9 -27 L27 -27 L27 -45 L9 -45 L9 -27 zM9 -36 L27 -36 L27 -54 L9 -54 L9 -36 zM36 9 L54 9 L54 -9 L36 -9 L36 9 zM36 -9 L54 -9 L54 -27 L36 -27 L36 -9 zM36 -27 L54 -27 L54 -45 L36 -45 L36 -27 zM36 -36 L54 -36 L54 -54 L36 -54 L36 -36 zM18 18 L36 18 L36 0 L18 0 L18 18 zM18 -9 L36 -9 L36 -27 L18 -27 L18 -9 zM18 -36 L36 -36 L36 -54 L18 -54 L18 -36 zM9 -54 L27 -54 L27 -72 L9 -72 L9 -54 zM36 -54 L54 -54 L54 -72 L36 -72 L36 -54 zM18 -63 L36 -63 L36 -81 L18 -81 L18 -63 z" />
<glyph unicode="写" horiz-adv-x="73" d="M54 36 L54 18 L54 9 L54 0 L54 -9 L45 -9 L45 -18 L27 -18 L27 0 L36 0 L36 9 L36 18 L36 27 L18 27 L18 36 L18 45 L18 54 L18 63 L18 72 L36 72 L36 63 L45 63 L45 45 L36 45 L36 36 L54 36 zM27 18 L27 0 L18 0 L9 0 L0 0 L0 18 L9 18 L18 18 L27 18 zM63 99 L63 90 L63 81 L63 72 L45 72 L45 81 L36 81 L27 81 L18 81 L18 72 L0 72 L0 81 L0 90 L0 99 L18 99 L27 99 L36 99 L45 99 L63 99 z" />
<glyph unicode="军" horiz-adv-x="82" d="M63 9 L63 0 L72 0 L72 -18 L63 -18 L63 -27 L45 -27 L45 -18 L36 -18 L36 0 L45 0 L45 9 L36 9 L18 9 L18 27 L18 45 L9 45 L9 63 L18 63 L27 63 L27 72 L45 72 L45 63 L54 63 L54 45 L36 45 L36 27 L45 27 L45 36 L63 36 L63 27 L72 27 L72 9 L63 9 zM72 99 L72 90 L72 81 L72 72 L54 72 L54 81 L36 81 L18 81 L18 72 L0 72 L0 81 L0 90 L0 99 L18 99 L36 99 L54 99 L72 99 z" />
<glyph unicode="农" horiz-adv-x="100" d="M72 27 L72 18 L81 18 L81 0 L63 0 L63 9 L54 9 L54 18 L45 18 L45 36 L63 36 L63 27 L72 27 zM72 45 L90 45 L90 27 L72 27 L72 45 zM36 18 L45 18 L45 0 L36 0 L27 0 L18 0 L18 9 L18 18 L9 18 L9 36 L18 36 L18 45 L27 45 L27 54 L18 54 L18 45 L0 45 L0 54 L0 63 L0 72 L18 72 L27 72 L27 81 L45 81 L45 72 L54 72 L63 72 L63 63 L72 63 L72 45 L54 45 L54 54 L45 54 L45 36 L36 36 L36 27 L36 18 z" />
<glyph unicode="冠" horiz-adv-x="135.91" d="M27.09 45 L18.09 45 L18.09 63 L27.09 63 L36.09 63 L45.09 63 L45.09 45 L36.09 45 L27.09 45 zM80.91 -9.18 L72.09 -9.18 L72.09 -18 L54.09 -18 L36.09 -18 L36.09 0 L36.09 0.378 L36.09 18 L27.09 18 L27.09 0.378 L27.09 0 L27.09 -18 L18.09 -18 L9.09 -18 L0.09 -18 L0.09 0 L9.09 0 L9.09 0.378 L9.09 18 L0.09 18 L0.09 36 L9.09 36 L18.09 36 L27.09 36 L45.09 36 L63.09 36 L63.09 18 L54.09 18 L54.09 0.378 L54.09 0 L62.91 0 L62.91 8.82 L80.91 8.82 L80.91 -9.18 zM71.91 45 L89.91 45 L89.91 27 L71.91 27 L71.91 45 zM125.91 63 L125.91 45 L116.91 45 L116.91 36 L116.91 27 L116.91 18 L107.91 18 L107.91 9 L89.91 9 L89.91 27 L98.91 27 L98.91 36 L98.91 45 L89.91 45 L89.91 63 L98.91 63 L98.91 72 L116.91 72 L116.91 63 L125.91 63 zM81 99 L81 81 L81 63 L63 63 L63 81 L54 81 L36 81 L18 81 L18 63 L0 63 L0 81 L0 99 L18 99 L36 99 L54 99 L63 99 L72 99 L81 99 z" />
<glyph unicode="冥" horiz-adv-x="91" d="M72 99 L81 99 L81 81 L81 63 L63 63 L63 54 L63 45 L63 36 L63 27 L63 9 L54 9 L54 0 L63 0 L81 0 L81 -18 L72 -18 L72 -27 L81 -27 L81 -45 L63 -45 L63 -27 L54 -27 L54 -18 C51 -18 48 -18 45 -18 L36 -18 L36 -27 L27 -27 L27 -45 L9 -45 L9 -27 L18 -27 L18 -18 L9 -18 L9 0 L27 0 L36 0 L36 9 L18 9 L18 27 L18 36 L18 45 L18 54 L18 63 L0 63 L0 81 L0 99 L18 99 L36 99 L54 99 L63 99 C66 99 69 99 72 99 zM45 18 L45 27 L36 27 L36 18 C39 18 42 18 45 18 zM45 45 L45 54 L36 54 L36 45 C39 45 42 45 45 45 zM63 72 L63 81 L54 81 L36 81 L18 81 L18 72 L27 72 L36 72 L45 72 C51 72 57 72 63 72 z" />
<glyph unicode="冬" horiz-adv-x="100" d="M27 90 L45 90 L45 72 L27 72 L27 90 zM45 90 L63 90 L63 72 L45 72 L45 90 zM63 90 L81 90 L81 72 L63 72 L63 90 zM27 99 L45 99 L45 81 L27 81 L27 99 zM18 81 L36 81 L36 63 L18 63 L18 81 zM9 72 L27 72 L27 54 L9 54 L9 72 zM36 63 L54 63 L54 45 L36 45 L36 63 zM54 81 L72 81 L72 63 L54 63 L54 81 zM18 54 L36 54 L36 36 L18 36 L18 54 zM9 45 L27 45 L27 27 L9 27 L9 45 zM0 36 L18 36 L18 18 L0 18 L0 36 zM54 54 L72 54 L72 36 L54 36 L54 54 zM72 45 L90 45 L90 27 L72 27 L72 45 zM36 36 L54 36 L54 18 L36 18 L36 36 zM45 27 L63 27 L63 9 L45 9 L45 27 zM36 9 L54 9 L54 -9 L36 -9 L36 9 zM45 0 L63 0 L63 -18 L45 -18 L45 0 z" />
<glyph unicode="冯" horiz-adv-x="99.998" d="M54 98.996 L71.999 98.996 L71.999 80.997 L54 80.997 L54 98.996 zM44.999 98.996 L62.998 98.996 L62.998 80.997 L44.999 80.997 L44.999 98.996 zM27 98.996 L44.999 98.996 L44.999 80.997 L27 80.997 L27 80.997 L27 98.996 zM63 80.997 L80.999 80.997 L80.999 62.998 L63 62.998 L63 80.997 zM63 89.996 L80.999 89.996 L80.999 71.997 L63 71.997 L63 89.996 zM36 71.996 L53.999 71.996 L53.999 53.997 L36 53.997 L36 71.996 zM54 62.996 L71.999 62.996 L71.999 44.997 L54 44.997 L54 62.996 zM71.999 62.996 L89.998 62.996 L89.998 44.997 L71.999 44.997 L71.999 62.996 zM71.999 44.998 L89.998 44.998 L89.998 26.999 L71.999 26.999 L71.999 44.998 zM71.999 26.998 L89.998 26.998 L89.998 8.999 L71.999 8.999 L71.999 26.998 zM63 17.999 L80.999 17.999 L80.999 0 L63 0 L63 17.999 zM36 62.996 L53.999 62.996 L53.999 44.997 L36 44.997 L36 62.996 zM45 35.997 L62.999 35.997 L62.999 17.998 L45 17.998 L45 35.997 zM27 35.997 L44.999 35.997 L44.999 17.998 L27 17.998 L27 35.997 zM0 44.999 L17.999 44.999 L17.999 27 L0 27 L0 44.999 zM0 71.999 L17.999 71.999 L17.999 54 L0 54 L0 71.999 z" />
<glyph unicode="冰" horiz-adv-x="127" d="M54 27 L45 27 L45 9 L27 9 L27 27 L36 27 L36 36 L27 36 L27 54 L45 54 L45 45 L54 45 L54 27 zM0 27 L18 27 L18 9 L0 9 L0 27 zM0 54 L18 54 L18 36 L0 36 L0 54 zM99 36 L99 27 L108 27 L108 9 L90 9 L90 27 L81 27 L81 18 L81 9 L72 9 L72 0 L54 0 L54 18 L63 18 L63 27 L63 36 L63 54 L81 54 L81 45 L99 45 L99 54 L117 54 L117 36 L99 36 z" />
<glyph unicode="冲" horiz-adv-x="109" d="M0 27 L18 27 L18 9 L0 9 L0 27 zM0 63 L18 63 L18 45 L0 45 L0 63 zM81 54 L99 54 L99 45 L99 36 L99 27 L99 18 L90 18 L90 9 L72 9 L72 0 L54 0 L54 9 L36 9 L36 27 L27 27 L27 45 L36 45 L36 54 L54 54 L54 63 L72 63 L72 54 C75 54 78 54 81 54 zM45 27 L54 27 L54 36 L45 36 C45 33 45 30 45 27 zM81 27 L81 36 L72 36 L72 27 C75 27 78 27 81 27 z" />
<glyph unicode="决" horiz-adv-x="100" d="M54 18 L72 18 L72 0 L54 0 L54 18 zM81 45 L90 45 L90 27 L81 27 L72 27 L63 27 L54 27 L54 18 L45 18 L45 0 L27 0 L27 18 L36 18 L36 27 L27 27 L27 45 L36 45 L36 54 L27 54 L27 72 L36 72 L36 81 L54 81 L54 72 L63 72 L81 72 L81 54 C81 51 81 48 81 45 zM54 45 L63 45 L63 54 L54 54 C54 51 54 48 54 45 zM0 72 L18 72 L18 54 L0 54 L0 72 zM0 45 L18 45 L18 27 L0 27 L0 45 z" />
<glyph unicode="况" horiz-adv-x="118" d="M72 54 L63 54 L45 54 L45 45 L54 45 L72 45 L72 54 zM108 27 L108 9 L99 9 L99 0 L90 0 L81 0 L72 0 L72 9 L63 9 L63 18 L63 27 L54 27 L54 9 L45 9 L45 0 L27 0 L27 18 L36 18 L36 27 L36 36 L27 36 L27 54 L27 72 L45 72 L63 72 L81 72 L81 63 L90 63 L90 54 L90 45 L90 36 L81 36 L81 27 L81 18 L90 18 L90 27 C96 27 102 27 108 27 zM0 71.856 L18 71.856 L18 53.856 L0 53.856 L0 71.856 zM0 45 L18 45 L18 27 L0 27 L0 45 z" />
<glyph unicode="冷" horiz-adv-x="100" d="M45 72 L45 63 L36 63 L36 54 L18 54 L18 72 L27 72 L27 81 L36 81 L36 90 L45 90 L45 99 L63 99 L63 81 L54 81 L54 72 L45 72 zM72 54 L72 63 L63 63 L63 81 L81 81 L81 72 L90 72 L90 54 L72 54 zM45 63 L63 63 L63 45 L81 45 L81 27 L72 27 L72 18 L54 18 L54 27 L45 27 L27 27 L27 45 L45 45 L45 63 zM36 18 L54 18 L54 9 L72 9 L72 -9 L54 -9 L54 0 L36 0 L36 18 zM0 54 L18 54 L18 36 L0 36 L0 54 zM0 27 L18 27 L18 9 L0 9 L0 27 z" />
<glyph unicode="净" horiz-adv-x="109" d="M0 63 L18 63 L18 45 L0 45 L0 63 zM0 36 L18 36 L18 18 L0 18 L0 36 zM90 36 L99 36 L99 18 L90 18 L90 9 L90 0 L81 0 L81 -9 L63 -9 L63 -27 L54 -27 L54 -36 L36 -36 L36 -18 L45 -18 L45 -9 L36 -9 L36 9 L45 9 L45 18 L36 18 L36 36 L45 36 L45 45 L36 45 L36 63 L45 63 L54 63 L54 72 L45 72 L36 72 L36 63 L18 63 L18 81 L27 81 L27 90 L27 99 L45 99 L45 90 L63 90 L63 81 L72 81 L72 63 L81 63 L90 63 L90 54 L90 45 C90 42 90 39 90 36 zM63 45 L63 36 L72 36 L72 45 C69 45 66 45 63 45 zM63 18 L63 9 L72 9 L72 18 C69 18 66 18 63 18 z" />
<glyph unicode="准" horiz-adv-x="91" d="M54 81 L45 81 L45 72 L45 72 L45 54 L45 36 L27 36 L27 54 L27 63 L18 63 L18 81 L27 81 L27 90 L36 90 L36 99 L54 99 L54 81 zM72 54 L72 45 L81 45 L81 27 L72 27 L72 18 L81 18 L81 0 L72 0 L72 -9 L81 -9 L81 -27 L63 -27 L45 -27 L45 -9 L54 -9 L54 0 L45 0 L45 18 L54 18 L54 27 L45 27 L45 45 L54 45 L54 54 L45 54 L45 72 L54 72 L54 81 L72 81 L72 72 L81 72 L81 54 L72 54 zM0 54 L18 54 L18 36 L0 36 L0 54 zM0 27 L18 27 L18 9 L0 9 L0 27 z" />
<glyph unicode="凉" horiz-adv-x="100" d="M36 72 L27 72 L27 90 L36 90 L36 99 L54 99 L54 90 L63 90 L63 72 L54 72 L45 72 L36 72 zM0 72 L18 72 L18 54 L0 54 L0 72 zM0 45 L18 45 L18 27 L0 27 L0 45 zM72 54 L72 36 L63 36 L63 27 L63 18 L63 9 L54 9 L54 0 L36 0 L36 9 L18 9 L18 27 L36 27 L36 18 L45 18 L45 27 L45 36 L54 36 L54 45 L45 45 L45 36 L27 36 L27 45 L27 54 L27 63 L45 63 L63 63 L63 54 L72 54 zM72 36 L90 36 L90 18 L72 18 L72 36 z" />
<glyph unicode="减" horiz-adv-x="154" d="M54 54 L72 54 L90 54 L90 36 L81 36 L81 27 L90 27 L90 9 L90 -9 L81 -9 L72 -9 L63 -9 L63 0 L45 0 L45 9 L45 18 L45 27 L63 27 L63 36 L54 36 C54 42 54 48 54 54 zM63 9 L72 9 L72 18 L63 18 C63 15 63 12 63 9 zM126 36 L144 36 L144 18 L126 18 L126 36 zM126 99 L144 99 L144 81 L126 81 L126 99 zM126 81 L126 63 L117 63 L117 54 L126 54 L126 63 L144 63 L144 45 L126 45 L126 36 L117 36 L117 27 L99 27 L99 45 L108 45 L108 54 L99 54 L99 63 L81 63 L81 63 L72 63 L54 63 L36 63 L36 81 L54 81 L72 81 L90 81 L90 81 L99 81 L99 90 L117 90 L117 81 L126 81 zM45 45 L45 27 L36 27 L36 18 L18 18 L18 36 L27 36 L27 45 L27 63 L45 63 L45 45 zM0 54 L18 54 L18 36 L0 36 L0 54 zM0 81 L18 81 L18 63 L0 63 L0 81 z" />
<glyph unicode="凑" horiz-adv-x="100" d="M63 -54 L81 -54 L81 -72 L63 -72 L63 -54 zM90 18 L81 18 L81 9 L90 9 L90 -9 L72 -9 L72 -18 L63 -18 L63 -27 L72 -27 L72 -45 L63 -45 L63 -54 L54 -54 L54 -72 L36 -72 L36 -54 L45 -54 L45 -45 L36 -45 L36 -27 L45 -27 L45 -18 L36 -18 L36 -9 L27 -9 L27 9 L36 9 L36 18 L27 18 L27 36 L36 36 L36 45 L27 45 L27 63 L36 63 L36 72 L27 72 L27 90 L36 90 L36 99 L54 99 L54 90 L63 90 L63 72 L54 72 L54 63 L63 63 L63 45 L54 45 L54 36 L63 36 L72 36 L81 36 L90 36 C90 30 90 24 90 18 zM72 0 L72 9 L63 9 L63 18 L54 18 L54 9 L45 9 L45 0 L54 0 C60 0 66 0 72 0 zM0 90 L18 90 L18 72 L0 72 L0 90 zM0 63 L18 63 L18 45 L0 45 L0 63 z" />
<glyph unicode="凝" horiz-adv-x="181" d="M126 -18 L126 -27 L108 -27 L108 -36 L90 -36 L90 -18 L108 -18 L108 -9 L99 -9 L99 9 L117 9 L117 -9 L126 -9 L126 0 L126 18 L117 18 L117 36 L153 36 L153 18 L144 18 L144 9 L153 9 L153 -9 L144 -9 L144 -18 L126 -18 zM162 -36 L162 -54 L144 -54 L144 -45 L126 -45 L126 -27 L144 -27 L144 -36 L162 -36 zM90 45 L81 45 L81 36 L63 36 L45 36 L45 45 L36 45 L36 90 L54 90 L54 81 L63 81 L63 90 L81 90 L81 72 L63 72 L63 63 L54 63 L54 54 L63 54 L72 54 L72 63 L90 63 L90 45 zM63 -18 L63 -27 L54 -27 L54 -45 L36 -45 L36 -27 L45 -27 L45 -18 L36 -18 L36 0 L45 0 L45 9 L36 9 L36 0 L18 0 L18 18 L27 18 L27 27 L27 36 L45 36 L45 27 L54 27 L63 27 L72 27 L72 9 L63 9 L63 0 L72 0 L72 -18 L63 -18 zM63 -27 L81 -27 L81 -45 L63 -45 L63 -27 zM135 81 L135 63 L144 63 L144 45 L126 45 L126 54 L108 54 L108 72 L117 72 L117 81 L99 81 L99 99 L117 99 L126 99 L135 99 L144 99 L144 81 L135 81 zM144 36 L162 36 L162 18 L144 18 L144 36 zM153 27 L171 27 L171 9 L153 9 L153 27 zM0 36 L18 36 L18 18 L0 18 L0 36 zM0 63 L18 63 L18 45 L0 45 L0 63 z" />
<glyph unicode="几" horiz-adv-x="91" d="M18 45 L36 45 L36 27 L18 27 L18 45 zM9 36 L27 36 L27 18 L9 18 L9 36 zM9 27 L27 27 L27 9 L9 9 L9 27 zM36 36 L54 36 L54 18 L36 18 L36 36 zM9 45 L27 45 L27 27 L9 27 L9 45 zM36 45 L54 45 L54 27 L36 27 L36 45 zM0 18 L18 18 L18 0 L0 0 L0 18 zM36 18 L54 18 L54 0 L36 0 L36 18 zM54 18 L72 18 L72 0 L54 0 L54 18 zM63 27 L81 27 L81 9 L63 9 L63 27 z" />
<glyph unicode="凡" horiz-adv-x="91" d="M9 63 L27 63 L27 45 L9 45 L9 63 zM27 63 L45 63 L45 45 L27 45 L27 63 zM9 45 L27 45 L27 27 L9 27 L9 45 zM36 45 L54 45 L54 27 L36 27 L36 45 zM36 54 L54 54 L54 36 L36 36 L36 54 zM9 27 L27 27 L27 9 L9 9 L9 27 zM27 36 L45 36 L45 18 L27 18 L27 36 zM36 27 L54 27 L54 9 L36 9 L36 27 zM0 18 L18 18 L18 0 L0 0 L0 18 zM45 18 L63 18 L63 0 L45 0 L45 18 zM54 18 L72 18 L72 0 L54 0 L54 18 zM63 27 L81 27 L81 9 L63 9 L63 27 z" />
<glyph unicode="凭" horiz-adv-x="100" d="M18 18 L36 18 L36 0 L18 0 L18 18 zM9 9 L27 9 L27 -9 L9 -9 L9 9 zM9 0 L27 0 L27 -18 L9 -18 L9 0 zM36 9 L54 9 L54 -9 L36 -9 L36 9 zM9 18 L27 18 L27 0 L9 0 L9 18 zM36 18 L54 18 L54 0 L36 0 L36 18 zM0 -9 L18 -9 L18 -27 L0 -27 L0 -9 zM36 -9 L54 -9 L54 -27 L36 -27 L36 -9 zM54 -9 L72 -9 L72 -27 L54 -27 L54 -9 zM63 0 L81 0 L81 -18 L63 -18 L63 0 zM45 90 L45 72 L36 72 L36 63 L36 63 L36 45 L36 36 L18 36 L18 45 L18 54 L9 54 L9 72 L18 72 L18 81 L27 81 L27 90 L45 90 zM63 81 L81 81 L81 63 L63 63 L63 81 zM54 90 L72 90 L72 72 L54 72 L54 90 zM72 99 L90 99 L90 81 L72 81 L72 99 zM54 63 L72 63 L72 45 L54 45 L54 63 zM72 63 L90 63 L90 45 L72 45 L72 63 zM63 54 L81 54 L81 36 L63 36 L63 54 zM54 36 L72 36 L72 18 L54 18 L54 36 zM72 36 L90 36 L90 18 L72 18 L72 36 z" />
<glyph unicode="凯" horiz-adv-x="153.82" d="M27 99 L45 99 L45 81 L27 81 L27 99 zM0 99 L18 99 L18 81 L0 81 L0 99 zM54 99 L72 99 L72 81 L54 81 L54 99 zM27 90 L45 90 L45 72 L27 72 L27 90 zM9 90 L27 90 L27 72 L9 72 L9 90 zM45 90 L63 90 L63 72 L45 72 L45 90 zM27 63 L45 63 L45 45 L27 45 L27 63 zM36 63 L54 63 L54 45 L36 45 L36 63 zM9 63 L27 63 L27 45 L9 45 L9 63 zM45 54 L63 54 L63 36 L45 36 L45 54 zM27 36 L45 36 L45 18 L27 18 L27 36 zM9 36 L27 36 L27 18 L9 18 L9 36 zM9 18 L27 18 L27 0 L9 0 L9 18 zM9 9 L27 9 L27 -9 L9 -9 L9 9 zM18 0 L36 0 L36 -18 L18 -18 L18 0 zM36 9 L54 9 L54 -9 L36 -9 L36 9 zM45 36 L63 36 L63 18 L45 18 L45 36 zM71.82 81 L89.82 81 L89.82 63 L71.82 63 L71.82 81 zM89.82 81 L107.82 81 L107.82 63 L89.82 63 L89.82 81 zM98.82 72 L116.82 72 L116.82 54 L98.82 54 L98.82 72 zM98.82 18 L116.82 18 L116.82 0 L98.82 0 L98.82 18 zM107.82 18 L125.82 18 L125.82 0 L107.82 0 L107.82 18 zM116.82 18 L134.82 18 L134.82 0 L116.82 0 L116.82 18 zM125.82 27 L143.82 27 L143.82 9 L125.82 9 L125.82 27 zM98.82 54 L116.82 54 L116.82 36 L98.82 36 L98.82 54 zM71.82 63 L89.82 63 L89.82 45 L71.82 45 L71.82 63 zM98.82 36 L116.82 36 L116.82 18 L98.82 18 L98.82 36 zM71.82 45 L89.82 45 L89.82 27 L71.82 27 L71.82 45 zM71.82 27 L89.82 27 L89.82 9 L71.82 9 L71.82 27 zM63 18 L81 18 L81 0 L63 0 L63 18 z" />
<glyph unicode="出" horiz-adv-x="82" d="M72 72 L72 63 L72 54 L72 45 L54 45 L45 45 L45 27 L54 27 L54 36 L72 36 L72 18 L72 0 L54 0 L54 9 L36 9 L18 9 L0 9 L0 18 L0 27 L0 36 L18 36 L18 27 L27 27 L27 45 L18 45 L0 45 L0 54 L0 63 L0 72 L18 72 L18 63 L27 63 L27 72 L45 72 L45 63 L54 63 L54 72 L72 72 z" />
<glyph unicode="刀" horiz-adv-x="73" d="M18 45 L36 45 L36 27 L18 27 L18 45 zM0 18 L18 18 L18 0 L0 0 L0 18 zM9 36 L27 36 L27 18 L9 18 L9 36 zM0 63 L18 63 L18 45 L0 45 L0 63 zM18 63 L36 63 L36 45 L18 45 L18 63 zM36 63 L54 63 L54 45 L36 45 L36 63 zM45 54 L63 54 L63 36 L45 36 L45 54 zM45 36 L63 36 L63 18 L45 18 L45 36 zM45 18 L63 18 L63 0 L45 0 L45 18 zM36 18 L54 18 L54 0 L36 0 L36 18 z" />
<glyph unicode="分" horiz-adv-x="82" d="M54 54 L54 45 L63 45 L63 27 L63 9 L54 9 L54 0 L36 0 L36 18 L45 18 L45 27 L45 36 L36 36 L36 27 L27 27 L27 9 L9 9 L9 27 L18 27 L18 36 L9 36 L9 54 L0 54 L0 72 L9 72 L9 81 L18 81 L18 90 L36 90 L36 72 L27 72 L27 63 L18 63 L18 54 L27 54 L36 54 L45 54 L54 54 zM72 54 L54 54 L54 63 L45 63 L45 81 L63 81 L63 72 L72 72 L72 54 z" />
<glyph unicode="切" horiz-adv-x="109" d="M45 54 L63 54 L63 36 L45 36 L45 54 zM81 54 L99 54 L99 36 L81 36 L81 54 zM63 54 L81 54 L81 36 L63 36 L63 54 zM54 45 L72 45 L72 27 L54 27 L54 45 zM81 45 L99 45 L99 27 L81 27 L81 45 zM45 27 L63 27 L63 9 L45 9 L45 27 zM36 18 L54 18 L54 0 L36 0 L36 18 zM18 27 L36 27 L36 9 L18 9 L18 27 zM9 36 L27 36 L27 18 L9 18 L9 36 zM0 54 L18 54 L18 36 L0 36 L0 54 zM18 54 L36 54 L36 36 L18 36 L18 54 zM9 63 L27 63 L27 45 L9 45 L9 63 zM72 18 L90 18 L90 0 L72 0 L72 18 zM81 27 L99 27 L99 9 L81 9 L81 27 z" />
<glyph unicode="刊" horiz-adv-x="100" d="M63 27 L45 27 L45 36 L45 45 L45 54 L63 54 L63 45 L63 36 L63 27 zM81 9 L81 0 L72 0 L63 0 L63 18 L72 18 L72 36 L72 54 L90 54 L90 36 L90 18 L90 9 L81 9 zM0 54 L18 54 L18 36 L0 36 L0 54 zM18 54 L36 54 L36 36 L18 36 L18 54 zM0 27 L18 27 L18 9 L0 9 L0 27 zM18 27 L36 27 L36 9 L18 9 L18 27 zM9 45 L27 45 L27 27 L9 27 L9 45 zM9 18 L27 18 L27 0 L9 0 L9 18 z" />
<glyph unicode="划" horiz-adv-x="118" d="M53.82 63 L36 63 L36 45 L53.82 45 L53.82 27 L36 27 L36 18 L53.82 18 L53.82 0 L35.82 0 L35.82 18 L27 18 L27 9 L9 9 L9 27 L18 27 L18 36 L9 36 L9 45 L0 45 L0 63 L9 63 L9 72 L27 72 L27 63 L35.82 63 L35.82 81 L53.82 81 C53.82 75 53.82 69 53.82 63 zM35.82 36 L35.82 45 L27 45 L27 36 C29.94 36 32.88 36 35.82 36 zM108 63 L108 51.462 L108 45 L108 36 L108 33.462 L108 18 L99 18 L99 9 L81 9 L81 27 L90 27 L90 33.462 L90 36 L90 45 L90 51.462 L90 63 L108 63 zM81 36 L63 36 L63 45 L63 54 L63 63 L81 63 L81 54 L81 45 L81 36 z" />
<glyph unicode="刖" horiz-adv-x="118" d="M45 90 L54 90 L54 72 L54 54 L54 36 L54 18 L54 0 L45 0 L36 0 L27 0 L27 18 L36 18 L36 27 L27 27 L18 27 L18 18 L18 9 L18 0 L0 0 L0 9 L0 18 L0 27 L0 45 L0 63 L0 81 L0 99 L18 99 L27 99 L36 99 L45 99 C45 96 45 93 45 90 zM36 45 L36 54 L27 54 L18 54 L18 45 L27 45 C30 45 33 45 36 45 zM27 72 L36 72 L36 81 L27 81 L18 81 L18 72 C21 72 24 72 27 72 zM108 90 L108 72 L108 54 L108 36 L99 36 L90 36 L81 36 L81 54 L90 54 L90 72 L90 90 L108 90 zM81 63 L63 63 L63 72 L63 81 L63 90 L81 90 L81 81 L81 72 L81 63 z" />
<glyph unicode="列" horiz-adv-x="117.622" d="M9 36 L9 54 L9 54 L9 72 L18 72 L18 81 L9 81 L9 99 L27 99 L45 99 L45 81 L36 81 L36 72 L45 72 L45 63 L54 63 L54 54 L54 45 L54 36 L36 36 L36 45 L36 54 L27 54 L27 45 L36 45 L36 27 L27 27 L27 18 L18 18 L18 9 L0 9 L0 27 L9 27 L9 36 M36 36 L54 36 L54 18 L45 18 L45 0 L27 0 L27 18 L36 18 L36 36 zM80.622 54 L62.622 54 L62.622 63 L62.622 72 L62.622 81 L80.622 81 L80.622 72 L80.622 63 L80.622 54 zM107.622 81 L107.622 63 L107.622 54 L107.622 45 L107.622 36 L98.622 36 L98.622 27 L80.622 27 L80.622 45 L89.622 45 L89.622 54 L89.622 63 L89.622 81 L107.622 81 z" />
<glyph unicode="刘" horiz-adv-x="127" d="M72 18 L72 0 L54 0 L54 9 L45 9 L45 18 L27 18 L27 9 L18 9 L18 0 L0 0 L0 18 L9 18 L9 27 L27 27 L27 36 L36 36 L36 45 L27 45 L27 36 L9 36 L9 45 L0 45 L0 63 L18 63 L27 63 L27 72 L45 72 L45 63 L63 63 L63 45 L54 45 L54 36 L45 36 L45 27 L63 27 L63 18 L72 18 zM90 36 L72 36 L72 45 L72 54 L72 63 L90 63 L90 54 L90 45 L90 36 zM117 63 L117 45 L117 36 L117 27 L117 18 L108 18 L108 9 L90 9 L90 27 L99 27 L99 36 L99 45 L99 63 L117 63 z" />
<glyph unicode="则" horiz-adv-x="118" d="M108 54 L108 42.462 L108 36 L108 27 L108 24.462 L108 9 L99 9 L99 0 L81 0 L81 18 L90 18 L90 24.462 L90 27 L90 36 L90 42.462 L90 54 L108 54 zM81 27 L63 27 L63 36 L63 45 L63 54 L81 54 L81 45 L81 36 L81 27 zM36 18 L54 18 L54 0 L36 0 L36 18 zM35.622 36 L35.622 45 L27 45 L18 45 L18 36 L27 36 L27 27 L27 18 L27 9 L18 9 L18 0 L0 0 L0 18 L9 18 L9 27 L0 27 L0 45 L0 63 L9 63 L18 63 L27 63 L45 63 L45 54 L53.622 54 L53.622 45 L53.622 36 L53.622 27 L35.622 27 L35.622 36 z" />
<glyph unicode="刚" horiz-adv-x="136" d="M99 45 L81 45 L81 54 L81 63 L81 72 L99 72 L99 63 L99 54 L99 45 zM117 27 L117 18 L108 18 L99 18 L99 36 L108 36 L108 54 L108 72 L126 72 L126 54 L126 36 L126 27 L117 27 zM27 45 L45 45 L45 27 L27 27 L27 45 zM36 54 L54 54 L54 36 L36 36 L36 54 zM9 54 L27 54 L27 36 L9 36 L9 54 zM9 27 L27 27 L27 9 L9 9 L9 27 zM0 36 L18 36 L18 18 L0 18 L0 36 zM0 18 L18 18 L18 0 L0 0 L0 18 zM0 72 L18 72 L18 54 L0 54 L0 72 zM18 72 L36 72 L36 54 L18 54 L18 72 zM36 72 L54 72 L54 54 L36 54 L36 72 zM0 54 L18 54 L18 36 L0 36 L0 54 zM54 36 L72 36 L72 18 L54 18 L54 36 zM54 18 L72 18 L72 0 L54 0 L54 18 zM54 72 L72 72 L72 54 L54 54 L54 72 zM54 54 L72 54 L72 36 L54 36 L54 54 zM36 27 L54 27 L54 9 L36 9 L36 27 z" />
<glyph unicode="创" horiz-adv-x="127" d="M72 0 L63 0 L63 -9 L54 -9 L45 -9 L36 -9 L18 -9 L18 0 L9 0 L9 18 L9 18 L9 36 L9 45 L9 54 L18 54 L18 63 L27 63 L36 63 L45 63 L54 63 L54 54 L63 54 L63 36 L63 27 L54 27 L54 18 L36 18 L36 36 L45 36 L45 45 L36 45 L27 45 L27 36 L27 18 L27 18 L27 9 L36 9 L45 9 L54 9 L54 18 L72 18 L72 0 zM63 81 L63 63 L45 63 L45 72 L36 72 L36 81 L27 81 L27 72 L18 72 L18 63 L0 63 L0 81 L9 81 L9 90 L18 90 L18 99 L36 99 L36 90 L54 90 L54 81 L63 81 zM117 90 L117 78.462 L117 72 L117 63 L117 60.462 L117 45 L108 45 L108 36 L90 36 L90 54 L99 54 L99 60.462 L99 63 L99 72 L99 78.462 L99 90 L117 90 zM90 63 L72 63 L72 72 L72 81 L72 90 L90 90 L90 81 L90 72 L90 63 z" />
<glyph unicode="初" horiz-adv-x="127" d="M18 99 L36 99 L36 81 L18 81 L18 99 zM0 72 L18 72 L18 54 L0 54 L0 72 zM18 72 L36 72 L36 54 L18 54 L18 72 zM18 63 L36 63 L36 45 L18 45 L18 63 zM9 45 L27 45 L27 27 L9 27 L9 45 zM18 45 L36 45 L36 27 L18 27 L18 45 zM27 45 L45 45 L45 27 L27 27 L27 45 zM18 27 L36 27 L36 9 L18 9 L18 27 zM27 18 L45 18 L45 0 L27 0 L27 18 zM18 9 L36 9 L36 -9 L18 -9 L18 9 zM0 36 L18 36 L18 18 L0 18 L0 36 zM27 72 L45 72 L45 54 L27 54 L27 72 zM54 63 L72 63 L72 45 L54 45 L54 63 zM63 63 L81 63 L81 45 L63 45 L63 63 zM81 63 L99 63 L99 45 L81 45 L81 63 zM63 45 L81 45 L81 27 L63 27 L63 45 zM99 63 L117 63 L117 45 L99 45 L99 63 zM99 45 L117 45 L117 27 L99 27 L99 45 zM54 36 L72 36 L72 18 L54 18 L54 36 zM90 36 L108 36 L108 18 L90 18 L90 36 z" />
<glyph unicode="删" horiz-adv-x="172" d="M162 54 L162 36 L162 18 L162 0 L153 0 L144 0 L135 0 L135 18 L144 18 L144 36 L144 54 L162 54 zM135 27 L117 27 L117 36 L117 45 L117 54 L135 54 L135 45 L135 36 L135 27 zM108 27 L117 27 L117 9 L108 9 L108 0 L90 0 L90 9 L81 9 L81 0 L63 0 L63 9 L54 9 L54 0 L36 0 L36 9 L27 9 L27 0 L9 0 L9 9 L0 9 L0 27 L9 27 L9 36 L9 45 L9 54 L27 54 L45 54 L45 45 L54 45 L54 27 L63 27 L63 36 L63 45 L63 54 L81 54 L99 54 L99 45 L108 45 C108 39 108 33 108 27 zM27 27 L36 27 L36 36 L27 36 C27 33 27 30 27 27 zM81 27 L90 27 L90 36 L81 36 C81 33 81 30 81 27 z" />
<glyph unicode="利" horiz-adv-x="109" d="M36 81 L36 72 L45 72 L45 54 L36 54 L36 36 L45 36 L45 18 L36 18 L36 0 L18 0 L18 18 L0 18 L0 36 L9 36 L9 45 L18 45 L18 54 L9 54 L9 72 L18 72 L18 81 L9 81 L9 99 L27 99 L45 99 L45 81 L36 81 zM99 90 L99 72 L99 54 L99 36 L90 36 L81 36 L72 36 L72 54 L81 54 L81 72 L81 90 L99 90 zM72 63 L54 63 L54 72 L54 81 L54 90 L72 90 L72 81 L72 72 L72 63 z" />
<glyph unicode="别" horiz-adv-x="109" d="M18 72 L36 72 L36 54 L18 54 L18 72 zM27 81 L45 81 L45 63 L27 63 L27 81 zM9 99 L27 99 L27 81 L9 81 L9 99 zM0 81 L18 81 L18 63 L0 63 L0 81 zM0 99 L18 99 L18 81 L0 81 L0 99 zM27 99 L45 99 L45 81 L27 81 L27 99 zM0 54 L18 54 L18 36 L0 36 L0 54 zM18 63 L36 63 L36 45 L18 45 L18 63 zM36 54 L54 54 L54 36 L36 36 L36 54 zM9 45 L27 45 L27 27 L9 27 L9 45 zM36 36 L54 36 L54 18 L36 18 L36 36 zM0 27 L18 27 L18 9 L0 9 L0 27 zM27 18 L45 18 L45 0 L27 0 L27 18 zM36 18 L54 18 L54 0 L36 0 L36 18 zM81 81 L99 81 L99 63 L81 63 L81 81 zM81 63 L99 63 L99 45 L81 45 L81 63 zM54 81 L72 81 L72 63 L54 63 L54 81 zM54 72 L72 72 L72 54 L54 54 L54 72 zM72 45 L90 45 L90 27 L72 27 L72 45 zM81 45 L99 45 L99 27 L81 27 L81 45 z" />
<glyph unicode="到" horiz-adv-x="118" d="M9 45 L27 45 L27 27 L9 27 L9 45 zM18 63 L36 63 L36 45 L18 45 L18 63 zM18 27 L36 27 L36 9 L18 9 L18 27 zM27 45 L45 45 L45 27 L27 27 L27 45 zM9 9 L27 9 L27 -9 L9 -9 L9 9 zM36 18 L54 18 L54 0 L36 0 L36 18 zM0 99 L18 99 L18 81 L0 81 L0 99 zM18 99 L36 99 L36 81 L18 81 L18 99 zM9 90 L27 90 L27 72 L9 72 L9 90 zM0 72 L18 72 L18 54 L0 54 L0 72 zM45 63 L63 63 L63 45 L45 45 L45 63 zM36 72 L54 72 L54 54 L36 54 L36 72 zM18 18 L36 18 L36 0 L18 0 L18 18 zM90 90 L108 90 L108 72 L90 72 L90 90 zM90 72 L108 72 L108 54 L90 54 L90 72 zM81 54 L99 54 L99 36 L81 36 L81 54 zM90 54 L108 54 L108 36 L90 36 L90 54 zM63 81 L81 81 L81 63 L63 63 L63 81 zM63 90 L81 90 L81 72 L63 72 L63 90 z" />
<glyph unicode="制" horiz-adv-x="127" d="M117 90 L117 78.462 L117 72 L117 63 L117 60.462 L117 45 L108 45 L108 36 L90 36 L90 54 L99 54 L99 60.462 L99 63 L99 72 L99 78.462 L99 90 L117 90 zM90 63 L72 63 L72 72 L72 81 L72 90 L90 90 L90 81 L90 72 L90 63 zM81 27 L81 9 L63 9 L63 18 L54 18 L54 9 L54 0 L36 0 L36 9 L36 18 L27 18 L27 9 L9 9 L9 18 L9 27 L9 36 L27 36 L36 36 L36 45 L27 45 L27 63 L36 63 L36 72 L27 72 L18 72 L18 63 L0 63 L0 81 L9 81 L9 90 L9 99 L27 99 L27 90 L36 90 L36 99 L54 99 L54 90 L63 90 L63 72 L54 72 L54 63 L63 63 L63 45 L54 45 L54 36 L63 36 L72 36 L72 27 L81 27 z" />
<glyph unicode="刹" horiz-adv-x="127" d="M117 99 L117 81 L117 63 L117 45 L108 45 L99 45 L90 45 L90 63 L99 63 L99 81 L99 99 L117 99 zM90 72 L72 72 L72 81 L72 90 L72 99 L90 99 L90 90 L90 81 L90 72 zM54 36 L54 18 L45 18 L45 9 L45 -9 L36 -9 L36 -18 L18 -18 L18 0 L27 0 L27 9 L27 18 L18 18 L18 36 L27 36 L27 45 L45 45 L45 36 L54 36 zM27 54 L27 45 L9 45 L9 63 L18 63 L18 72 L27 72 L27 81 L36 81 L36 90 L45 90 L45 99 L63 99 L63 81 L54 81 L54 72 L45 72 L45 63 L36 63 L36 54 L27 54 zM45 63 L63 63 L63 45 L45 45 L45 63 zM9 99 L27 99 L27 81 L9 81 L9 99 zM0 18 L18 18 L18 0 L0 0 L0 18 zM54 18 L72 18 L72 0 L54 0 L54 18 z" />
<glyph unicode="刻" horiz-adv-x="109" d="M9 90 L27 90 L27 72 L9 72 L9 90 zM9 63 L27 63 L27 45 L9 45 L9 63 zM0 54 L18 54 L18 36 L0 36 L0 54 zM36 54 L54 54 L54 36 L36 36 L36 54 zM27 45 L45 45 L45 27 L27 27 L27 45 zM18 36 L36 36 L36 18 L18 18 L18 36 zM45 27 L63 27 L63 9 L45 9 L45 27 zM36 18 L54 18 L54 0 L36 0 L36 18 zM54 0 L72 0 L72 -18 L54 -18 L54 0 zM27 9 L45 9 L45 -9 L27 -9 L27 9 zM0 81 L18 81 L18 63 L0 63 L0 81 zM18 81 L36 81 L36 63 L18 63 L18 81 zM54 72 L72 72 L72 54 L54 54 L54 72 zM54 81 L72 81 L72 63 L54 63 L54 81 zM81 63 L99 63 L99 45 L81 45 L81 63 zM72 54 L90 54 L90 36 L72 36 L72 54 zM81 81 L99 81 L99 63 L81 63 L81 81 z" />
<glyph unicode="剂" horiz-adv-x="127" d="M72 45 L72 27 L63 27 L63 18 L63 9 L63 0 L45 0 L45 9 L45 18 L45 27 L54 27 L54 36 L45 36 L45 45 L27 45 L27 36 L18 36 L18 27 L0 27 L0 45 L9 45 L9 54 L27 54 L27 63 L36 63 L36 72 L27 72 L27 63 L9 63 L9 72 L0 72 L0 90 L18 90 L18 99 L36 99 L36 90 L45 90 L63 90 L63 72 L54 72 L54 63 L45 63 L45 54 L63 54 L63 45 L72 45 zM18 18 L18 27 L36 27 L36 9 L27 9 L27 0 L9 0 L9 18 L18 18 zM117 90 L117 72 L117 54 L117 36 L108 36 L99 36 L90 36 L90 54 L99 54 L99 72 L99 90 L117 90 zM90 63 L72 63 L72 72 L72 81 L72 90 L90 90 L90 81 L90 72 L90 63 z" />
<glyph unicode="削" horiz-adv-x="127" d="M27 45 L45 45 L45 27 L27 27 L27 45 zM45 45 L63 45 L63 27 L45 27 L45 45 zM27 18 L45 18 L45 0 L27 0 L27 18 zM9 18 L27 18 L27 0 L9 0 L9 18 zM9 0 L27 0 L27 -18 L9 -18 L9 0 zM9 -9 L27 -9 L27 -27 L9 -27 L9 -9 zM9 54 L27 54 L27 36 L9 36 L9 54 zM9 36 L27 36 L27 18 L9 18 L9 36 zM27 72 L45 72 L45 54 L27 54 L27 72 zM27 90 L45 90 L45 72 L27 72 L27 90 zM27 99 L45 99 L45 81 L27 81 L27 99 zM54 99 L72 99 L72 81 L54 81 L54 99 zM0 99 L18 99 L18 81 L0 81 L0 99 zM36 72 L54 72 L54 54 L36 54 L36 72 zM9 72 L27 72 L27 54 L9 54 L9 72 zM45 27 L63 27 L63 9 L45 9 L45 27 zM45 9 L63 9 L63 -9 L45 -9 L45 9 zM45 -9 L63 -9 L63 -27 L45 -27 L45 -9 zM36 -9 L54 -9 L54 -27 L36 -27 L36 -9 zM45 63 L63 63 L63 45 L45 45 L45 63 zM99 72 L117 72 L117 54 L99 54 L99 72 zM99 54 L117 54 L117 36 L99 36 L99 54 zM72 72 L90 72 L90 54 L72 54 L72 72 zM72 63 L90 63 L90 45 L72 45 L72 63 zM90 36 L108 36 L108 18 L90 18 L90 36 zM99 36 L117 36 L117 18 L99 18 L99 36 z" />
<glyph unicode="前" horiz-adv-x="109" d="M9 36 L27 36 L27 18 L9 18 L9 36 zM0 63 L18 63 L18 45 L0 45 L0 63 zM9 9 L27 9 L27 -9 L9 -9 L9 9 zM18 63 L36 63 L36 45 L18 45 L18 63 zM18 90 L36 90 L36 72 L18 72 L18 90 zM0 90 L18 90 L18 72 L0 72 L0 90 zM36 90 L54 90 L54 72 L36 72 L36 90 zM54 90 L72 90 L72 72 L54 72 L54 90 zM18 99 L36 99 L36 81 L18 81 L18 99 zM54 99 L72 99 L72 81 L54 81 L54 99 zM72 90 L90 90 L90 72 L72 72 L72 90 zM0 45 L18 45 L18 27 L0 27 L0 45 zM27 36 L45 36 L45 18 L27 18 L27 36 zM27 54 L45 54 L45 36 L27 36 L27 54 zM0 27 L18 27 L18 9 L0 9 L0 27 zM27 18 L45 18 L45 0 L27 0 L27 18 zM0 9 L18 9 L18 -9 L0 -9 L0 9 zM27 0 L45 0 L45 -18 L27 -18 L27 0 zM0 0 L18 0 L18 -18 L0 -18 L0 0 zM81 54 L99 54 L99 36 L81 36 L81 54 zM81 36 L99 36 L99 18 L81 18 L81 36 zM54 54 L72 54 L72 36 L54 36 L54 54 zM54 45 L72 45 L72 27 L54 27 L54 45 zM72 18 L90 18 L90 0 L72 0 L72 18 zM81 18 L99 18 L99 0 L81 0 L81 18 z" />
<glyph unicode="剑" horiz-adv-x="127" d="M31.5 63 L45 63 L45 45 L31.5 45 L18 45 L18 63 L31.5 63 zM40.5 0 L54 0 L54 -18 L40.5 -18 L36 -18 L27 -18 L22.5 -18 L9 -18 L9 0 L22.5 0 L27 0 L36 0 L40.5 0 zM18 63 L0 63 L0 81 L9 81 L9 90 L18 90 L18 99 L36 99 L36 90 L54 90 L54 81 L63 81 L63 63 L45 63 L45 72 L36 72 L36 81 L27 81 L27 72 L18 72 L18 63 zM27 36 L45 36 L45 27 L45 18 L45 9 L27 9 L27 18 L27 27 L27 36 zM72 36 L72 27 L72 18 L72 9 L54 9 L54 18 L54 27 L54 36 L72 36 zM18 9 L0 9 L0 18 L0 27 L0 36 L18 36 L18 27 L18 18 L18 9 zM117 81 L117 63 L117 45 L117 27 L108 27 L99 27 L90 27 L90 45 L99 45 L99 63 L99 81 L117 81 zM90 54 L72 54 L72 63 L72 72 L72 81 L90 81 L90 72 L90 63 L90 54 z" />
<glyph unicode="剜" horiz-adv-x="163" d="M126 -9 L117 -9 L117 -18 L108 -18 L99 -18 L90 -18 L72 -18 L72 -9 L63 -9 L63 9 L63 9 L63 27 L63 36 L63 45 L72 45 L72 54 L81 54 L90 54 L99 54 L108 54 L108 45 L117 45 L117 27 L117 18 L108 18 L108 9 L90 9 L90 27 L99 27 L99 36 L90 36 L81 36 L81 27 L81 9 L81 9 L81 0 L90 0 L99 0 L108 0 L108 9 L126 9 L126 -9 zM81 90 L81 81 L81 72 L81 63 L63 63 L63 72 L45 72 L27 72 L27 63 L9 63 L9 72 L9 81 L9 90 L27 90 L36 90 L36 99 L54 99 L54 90 L63 90 L81 90 zM45 45 L54 45 L54 36 L54 27 L54 18 L45 18 L45 0 L36 0 L36 -9 L27 -9 L27 -18 L9 -18 L9 0 L18 0 L18 9 L9 9 L9 18 L0 18 L0 36 L9 36 L9 45 L18 45 L18 54 L36 54 L36 45 C39 45 42 45 45 45 zM27 18 L36 18 L36 27 L27 27 C27 24 27 21 27 18 zM153 81 L153 63 L153 45 L153 27 L144 27 L135 27 L126 27 L126 45 L135 45 L135 63 L135 81 L153 81 zM126 54 L108 54 L108 63 L108 72 L108 81 L126 81 L126 72 L126 63 L126 54 z" />
<glyph unicode="剧" horiz-adv-x="127" d="M54 18 L72 18 L72 9 L72 0 L72 -9 L72 -18 L63 -18 L54 -18 L45 -18 L36 -18 L27 -18 L27 -9 L27 0 L27 9 L27 18 L36 18 L36 27 L27 27 L27 45 L36 45 L36 54 L54 54 L54 45 L63 45 L63 27 L54 27 C54 24 54 21 54 18 zM45 0 L54 0 L54 9 L45 9 C45 6 45 3 45 0 zM45 99 L63 99 L63 90 L63 81 L63 72 L63 54 L45 54 L27 54 L27 47.25 L27 45 L27 36 L27 29.25 L27 18 L18 18 L18 9 L0 9 L0 27 L9 27 L9 29.25 L9 36 L9 45 L9 47.25 L9 54 L9 63 L9 72 L9 81 L9 99 L27 99 C33 99 39 99 45 99 zM45 72 L45 81 L27 81 L27 72 C33 72 39 72 45 72 zM117 99 L117 81 L117 63 L117 45 L108 45 L99 45 L90 45 L90 63 L99 63 L99 81 L99 99 L117 99 zM90 72 L72 72 L72 81 L72 90 L72 99 L90 99 L90 90 L90 81 L90 72 z" />
<glyph unicode="剪" horiz-adv-x="109" d="M36 63 L36 54 L45 54 L45 36 L45 18 L45 0 L45 -18 L27 -18 L27 -9 L18 -9 L18 -18 L0 -18 L0 -9 L0 0 L0 9 L0 27 L0 45 L0 63 L18 63 C24 63 30 63 36 63 zM27 9 L27 18 L18 18 L18 9 C21 9 24 9 27 9 zM18 36 L27 36 L27 45 L18 45 C18 42 18 39 18 36 zM18 72 L9 72 L9 90 L18 90 L18 99 L36 99 L36 90 L54 90 L54 99 L72 99 L72 90 L81 90 L81 72 L72 72 L63 72 L54 72 L36 72 L27 72 L18 72 zM99 54 L99 36 L99 18 L99 0 L90 0 L81 0 L72 0 L72 18 L81 18 L81 36 L81 54 L99 54 zM72 27 L54 27 L54 36 L54 45 L54 54 L72 54 L72 45 L72 36 L72 27 zM90 -9 L90 -27 L90 -36 L90 -45 L90 -54 L81 -54 L81 -63 L63 -63 L63 -45 L72 -45 L72 -36 L72 -27 L63 -27 L63 -36 L54 -36 L54 -54 L36 -54 L36 -36 L45 -36 L45 -27 L36 -27 L36 -9 L58.878 -9 L76.878 -9 L90 -9 z" />
<glyph unicode="副" horiz-adv-x="127" d="M54 36 L72 36 L72 18 L72 9 L72 0 L72 -9 L72 -27 L63 -27 L54 -27 L45 -27 L36 -27 L27 -27 L18 -27 L0 -27 L0 -9 L0 0 L0 9 L0 18 L0 36 L18 36 L18 45 L27 45 L36 45 L45 45 L54 45 C54 42 54 39 54 36 zM54 27 L45 27 L45 18 L54 18 C54 21 54 24 54 27 zM18 27 L18 18 L27 18 L27 27 C24 27 21 27 18 27 zM18 -9 L27 -9 L27 0 L18 0 C18 -3 18 -6 18 -9 zM45 -9 L54 -9 L54 0 L45 0 C45 -3 45 -6 45 -9 zM9 54 L27 54 L27 36 L9 36 L9 54 zM9 72 L27 72 L27 54 L9 54 L9 72 zM27 72 L45 72 L45 54 L27 54 L27 72 zM9 99 L27 99 L27 81 L9 81 L9 99 zM18 99 L36 99 L36 81 L18 81 L18 99 zM36 72 L54 72 L54 54 L36 54 L36 72 zM36 63 L54 63 L54 45 L36 45 L36 63 zM90 36 L72 36 L72 45 L72 54 L72 63 L90 63 L90 54 L90 45 L90 36 zM108 18 L108 9 L99 9 L90 9 L90 27 L99 27 L99 45 L99 63 L117 63 L117 45 L117 27 L117 18 L108 18 z" />
<glyph unicode="割" horiz-adv-x="127" d="M72 81 L72 72 L72 63 L54 63 L54 72 L45 72 L45 63 L54 63 L54 45 L45 45 L45 36 L54 36 L54 18 L45 18 L45 9 L54 9 L54 -9 L45 -9 L45 -18 L54 -18 L54 -27 L63 -27 L63 -36 L63 -45 L63 -54 L54 -54 L54 -63 L36 -63 L18 -63 L18 -54 L9 -54 L9 -45 L9 -36 L9 -27 L18 -27 L18 -18 L27 -18 L27 -9 L18 -9 L18 9 L27 9 L27 18 L18 18 L18 36 L27 36 L27 45 L18 45 L18 54 L0 54 L0 72 L0 90 L18 90 L27 90 L27 99 L45 99 L45 90 L54 90 L72 90 C72 87 72 84 72 81 zM18 63 L27 63 L27 72 L18 72 C18 69 18 66 18 63 zM27 -45 L36 -45 L45 -45 L45 -36 L36 -36 L27 -36 C27 -39 27 -42 27 -45 zM117 63 L117 45 L117 27 L117 9 L108 9 L99 9 L90 9 L90 27 L99 27 L99 45 L99 63 L117 63 zM72 54 L72 63 L90 63 L90 54 L90 45 L90 36 L72 36 L72 45 L72 54 z" />
<glyph unicode="剽" horiz-adv-x="154" d="M144 99 L144 81 L144 63 L144 45 L135 45 L126 45 L117 45 L117 63 L126 63 L126 81 L126 99 L144 99 zM117 72 L99 72 L99 81 L99 90 L99 99 L117 99 L117 90 L117 81 L117 72 zM90 72 L99 72 L99 63 L99 54 L99 45 L99 27 L90 27 L81 27 L72 27 L54 27 L36 27 L18 27 L0 27 L0 36 L0 45 L0 54 L0 72 L18 72 L27 72 L27 81 L18 81 L18 99 L27 99 L36 99 L45 99 L63 99 L81 99 L81 81 L72 81 L72 72 L81 72 C84 72 87 72 90 72 zM54 81 L45 81 L45 72 L54 72 C54 75 54 78 54 81 zM18 54 L18 45 L27 45 L27 54 C24 54 21 54 18 54 zM45 45 L54 45 L54 54 L45 54 C45 51 45 48 45 45 zM72 45 L81 45 L81 54 L72 54 C72 51 72 48 72 45 zM36 18 L54 18 L54 0 L36 0 L18 0 L18 18 L36 18 zM54 -9 L54 -27 L45 -27 L45 -36 L45 -45 L45 -54 L36 -54 L36 -63 L18 -63 L18 -45 L27 -45 L27 -36 L27 -27 L18 -27 L18 -9 L36 -9 L54 -9 zM54 -27 L72 -27 L72 -45 L54 -45 L54 -27 zM0 -27 L18 -27 L18 -45 L0 -45 L0 -27 z" />
<glyph unicode="劉" horiz-adv-x="163" d="M18 81 L0 81 L0 99 L18 99 L36 99 L36 81 L18 81 zM81 -36 L81 -27 L99 -27 L99 -45 L81 -45 L81 -54 L63 -54 L45 -54 L45 -45 L27 -45 L27 -27 L45 -27 L45 -36 L54 -36 L54 -27 L45 -27 L45 -9 L54 -9 L54 0 L45 0 L45 18 L36 18 L36 36 L27 36 L27 45 L18 45 L0 45 L0 63 L0 81 L18 81 L18 63 L27 63 L27 72 L45 72 L45 54 L45 36 L54 36 L54 45 L72 45 L72 36 L90 36 L90 18 L81 18 L81 0 L72 0 L72 -9 L81 -9 L81 -27 L72 -27 L72 -36 C75 -36 78 -36 81 -36 zM54 27 L54 18 L63 18 L72 18 L72 27 C66 27 60 27 54 27 zM90 90 L99 90 L99 81 L99 72 L99 63 L81 63 L81 72 L81 81 L81 81 L72 81 L63 81 L54 81 L45 81 L45 99 L54 99 L63 99 L72 99 L90 99 L90 90 zM54 81 L72 81 L72 63 L54 63 L54 81 zM153 90 L153 72 L153 54 L153 36 L144 36 L135 36 L126 36 L126 54 L135 54 L135 72 L135 90 L153 90 zM126 63 L108 63 L108 72 L108 81 L108 90 L126 90 L126 81 L126 72 L126 63 z" />
<glyph unicode="力" horiz-adv-x="64" d="M54 54 L54 36 L54 27 L54 18 L54 9 L45 9 L45 0 L27 0 L27 18 L36 18 L36 27 L36 36 L36 45 L27 45 L27 27 L18 27 L18 9 L0 9 L0 27 L9 27 L9 36 L0 36 L0 54 L18 54 L18 63 L36 63 L36 54 L54 54 z" />
<glyph unicode="办" horiz-adv-x="118" d="M81 54 L81 36 L81 27 L81 18 L81 9 L72 9 L72 0 L54 0 L54 18 L63 18 L63 27 L63 36 L63 45 L54 45 L54 27 L45 27 L45 9 L27 9 L27 27 L36 27 L36 36 L27 36 L27 54 L45 54 L45 63 L63 63 L63 54 L81 54 zM90 45 L108 45 L108 27 L90 27 L90 45 zM0 45 L18 45 L18 27 L0 27 L0 45 z" />
<glyph unicode="功" horiz-adv-x="118" d="M63 45 L81 45 L81 27 L63 27 L63 45 zM45 18 L63 18 L63 0 L45 0 L45 18 zM54 36 L72 36 L72 18 L54 18 L54 36 zM45 63 L63 63 L63 45 L45 45 L45 63 zM63 63 L81 63 L81 45 L63 45 L63 63 zM81 63 L99 63 L99 45 L81 45 L81 63 zM90 36 L108 36 L108 18 L90 18 L90 36 zM90 54 L108 54 L108 36 L90 36 L90 54 zM90 18 L108 18 L108 0 L90 0 L90 18 zM81 18 L99 18 L99 0 L81 0 L81 18 zM63 73 L81 73 L81 55 L63 55 L63 73 zM0 36 L18 36 L18 18 L0 18 L0 36 zM18 36 L36 36 L36 18 L18 18 L18 36 zM9 54 L27 54 L27 36 L9 36 L9 54 zM0 63 L18 63 L18 45 L0 45 L0 63 zM18 63 L36 63 L36 45 L18 45 L18 63 z" />
<glyph unicode="加" horiz-adv-x="118" d="M54 54 L54 36 L54 27 L54 18 L54 9 L45 9 L45 0 L27 0 L27 18 L36 18 L36 27 L36 36 L36 45 L27 45 L27 27 L18 27 L18 9 L0 9 L0 27 L9 27 L9 36 L0 36 L0 54 L18 54 L18 63 L36 63 L36 54 L54 54 zM99 45 L108 45 L108 27 L108 9 L99 9 L90 9 L81 9 L63 9 L63 18 L63 27 L63 36 L72 36 L72 54 L81 54 L90 54 L99 54 C99 51 99 48 99 45 zM81 27 L90 27 L90 36 L81 36 C81 33 81 30 81 27 z" />
<glyph unicode="动" horiz-adv-x="118" d="M18 72 L9 72 L9 90 L18 90 L27 90 L36 90 L36 72 L27 72 L18 72 zM108 81 L108 63 L108 45 L99 45 L99 36 L81 36 L81 54 L90 54 L90 63 L90 72 L81 72 L81 54 L72 54 L72 36 L54 36 L54 54 L63 54 L63 63 L54 63 L54 81 L72 81 L72 90 L90 90 L90 81 L108 81 zM36 36 L54 36 L54 18 L63 18 L63 0 L45 0 L45 9 L36 9 L27 9 L18 9 L0 9 L0 27 L9 27 L9 36 L18 36 L18 45 L9 45 L9 63 L27 63 L45 63 L45 45 L36 45 L36 36 L27 36 L27 27 L36 27 L36 36 z" />
<glyph unicode="助" horiz-adv-x="127" d="M54 18 L63 18 L63 0 L45 0 L36 0 L27 0 L18 0 L0 0 L0 18 L9 18 L9 27 L9 45 L9 63 L9 81 L9 99 L18 99 L27 99 L36 99 L36 90 L54 90 L54 81 L54 72 L54 63 L54 45 L54 27 C54 24 54 21 54 18 zM27 54 L27 45 L36 45 L36 54 C33 54 30 54 27 54 zM36 81 L27 81 L27 72 L36 72 C36 75 36 78 36 81 zM27 18 L36 18 L36 27 L27 27 C27 24 27 21 27 18 zM117 63 L117 45 L117 36 L117 27 L117 18 L108 18 L108 9 L90 9 L90 27 L99 27 L99 36 L99 45 L99 54 L90 54 L90 36 L81 36 L81 18 L63 18 L63 36 L72 36 L72 45 L63 45 L63 63 L81 63 L81 72 L99 72 L99 63 L117 63 z" />
<glyph unicode="劲" horiz-adv-x="109" d="M36 0 L36 -9 L45 -9 L45 -27 L36 -27 L27 -27 L18 -27 L9 -27 L9 -9 L18 -9 L18 0 L9 0 L9 18 L18 18 L27 18 L36 18 L45 18 L45 0 L36 0 zM45 45 L45 27 L27 27 L27 36 L18 36 L18 27 L0 27 L0 45 L9 45 L9 54 L18 54 L18 63 L0 63 L0 81 L18 81 L36 81 L36 72 L36 63 L36 54 L27 54 L27 45 L45 45 zM99 90 L99 72 L99 63 L99 54 L99 45 L90 45 L90 36 L72 36 L72 54 L81 54 L81 63 L81 72 L81 81 L72 81 L72 63 L63 63 L63 45 L45 45 L45 63 L54 63 L54 72 L45 72 L45 90 L63 90 L63 99 L81 99 L81 90 L99 90 z" />
<glyph unicode="劳" horiz-adv-x="82" d="M63 72 L54 72 L54 63 L36 63 L36 72 L27 72 L27 63 L9 63 L9 72 L0 72 L0 90 L9 90 L9 99 L27 99 L27 90 L36 90 L36 99 L54 99 L54 90 L63 90 L63 72 zM72 54 L72 27 L54 27 L54 36 L18 36 L18 27 L0 27 L0 54 L72 54 zM54 18 L54 0 L54 -9 L54 -18 L54 -27 L45 -27 L45 -36 L27 -36 L27 -18 L36 -18 L36 -9 L36 0 L36 9 L27 9 L27 -9 L18 -9 L18 -27 L0 -27 L0 -9 L9 -9 L9 0 L0 0 L0 18 L18 18 L18 27 L36 27 L36 18 L54 18 z" />
<glyph unicode="势" horiz-adv-x="145" d="M135 45 L126 45 L126 36 L117 36 L108 36 L99 36 L90 36 L90 45 L90 54 L90 63 L90 72 L72 72 L72 63 L81 63 L81 45 L72 45 L72 27 L63 27 L63 18 L45 18 L45 36 L54 36 L54 45 L45 45 L45 63 L54 63 L54 72 L45 72 L45 90 L54 90 L54 99 L72 99 L72 90 L90 90 L90 81 L108 81 L108 63 L108 54 L117 54 L117 54 L117 63 L135 63 L135 45 zM27 90 L36 90 L36 72 L27 72 L27 63 L36 63 L36 45 L27 45 L27 36 L27 27 L27 18 L18 18 L18 9 L0 9 L0 27 L9 27 L9 36 L0 36 L0 54 L9 54 L9 72 L0 72 L0 90 L9 90 L9 99 L27 99 L27 90 zM63 0 L63 -18 L63 -27 L63 -36 L63 -45 L54 -45 L54 -54 L36 -54 L36 -36 L45 -36 L45 -27 L45 -18 L45 -9 L36 -9 L36 -27 L27 -27 L27 -45 L9 -45 L9 -27 L18 -27 L18 -18 L9 -18 L9 0 L27 0 L27 9 L45 9 L45 0 L63 0 z" />
<glyph unicode="勇" horiz-adv-x="82" d="M18 36 L27 36 L27 45 L18 45 L18 36 zM18 9 L27 9 L27 18 L18 18 L18 9 zM45 36 L54 36 L54 45 L45 45 L45 36 zM45 9 L54 9 L54 18 L45 18 L45 9 zM63 54 L72 54 L72 36 L72 18 C72 12 72 6 72 0 L72 -18 L54 -18 L54 -9 L45 -9 L45 -18 L27 -18 L27 -9 L18 -9 L18 -18 L0 -18 C0 -12 0 -6 0 0 L0 18 L0 36 L0 45 L0 54 L0 63 L18 63 L36 63 L36 72 L45 72 L45 81 L36 81 L36 72 L18 72 L18 81 L9 81 L9 99 L27 99 L36 99 L45 99 L54 99 L54 90 L63 90 L63 72 L54 72 L54 63 L63 63 C63 60 63 57 63 54 zM72 -45 L72 -63 L72 -81 L63 -81 L63 -90 L45 -90 L45 -72 L54 -72 L54 -63 L54 -54 L45 -54 L45 -72 L36 -72 L36 -81 L18 -81 L18 -63 L27 -63 L27 -54 L18 -54 L18 -36 L27 -36 L27 -27 L45 -27 L45 -36 L54 -36 L63 -36 L63 -45 L72 -45 z" />
<glyph unicode="勤" horiz-adv-x="136" d="M54 36 L72 36 L72 18 L72 0 L54 0 L45 0 L45 -9 L54 -9 L54 -27 L45 -27 L45 -36 L54 -36 L54 -54 L45 -54 L45 -63 L54 -63 L54 -81 L36 -81 L18 -81 L18 -63 L27 -63 L27 -54 L18 -54 L18 -36 L27 -36 L27 -27 L18 -27 L18 -9 L27 -9 L27 0 L18 0 L0 0 L0 18 L0 27 L0 36 L0 45 L18 45 L27 45 L27 54 L9 54 L9 72 L0 72 L0 90 L9 90 L9 99 L27 99 L27 90 L36 90 L36 99 L54 99 L54 90 L63 90 L63 72 L54 72 L54 54 L45 54 L45 45 L54 45 C54 42 54 39 54 36 zM27 72 L27 63 L36 63 L36 72 C33 72 30 72 27 72 zM18 27 L18 18 L27 18 L27 27 C24 27 21 27 18 27 zM45 18 L54 18 L54 27 L45 27 C45 24 45 21 45 18 zM126 81 L126 63 L126 54 L126 45 L126 36 L117 36 L117 27 L99 27 L99 45 L108 45 L108 54 L108 63 L108 72 L99 72 L99 54 L90 54 L90 36 L72 36 L72 54 L81 54 L81 63 L72 63 L72 81 L90 81 L90 90 L108 90 L108 81 L126 81 z" />
<glyph unicode="勾" horiz-adv-x="82" d="M63 81 L72 81 L72 63 L72 45 L72 27 L72 9 L63 9 L63 0 L45 0 L45 18 L54 18 L54 27 L45 27 L45 18 L27 18 L9 18 L9 27 L0 27 L0 45 L9 45 L9 63 L0 63 L0 81 L9 81 L9 90 L9 99 L27 99 L27 90 L36 90 L45 90 L54 90 L63 90 C63 87 63 84 63 81 zM54 45 L54 63 L54 72 L45 72 L36 72 L27 72 L18 72 L18 63 L27 63 L27 45 L18 45 L18 36 L27 36 L36 36 L36 45 C42 45 48 45 54 45 z" />
<glyph unicode="勿" horiz-adv-x="109" d="M90 63 L99 63 L99 54 L99 45 L99 36 L99 18 L90 18 L90 9 L72 9 L72 27 L81 27 L81 36 L81 45 L81 54 L72 54 L72 45 L72 36 L72 27 L63 27 L63 18 L54 18 L54 0 L36 0 L36 18 L45 18 L45 27 L36 27 L36 18 L18 18 L18 36 L27 36 L27 45 L18 45 L18 36 L0 36 L0 54 L9 54 L9 63 L18 63 L18 72 L18 81 L36 81 L36 72 L54 72 L72 72 L90 72 C90 69 90 66 90 63 zM54 45 L54 54 L45 54 L45 45 L45 36 L54 36 C54 39 54 42 54 45 z" />
<glyph unicode="包" horiz-adv-x="118" d="M18 18 L36 18 L36 0 L18 0 L18 18 zM27 9 L45 9 L45 -9 L27 -9 L27 9 zM54 9 L72 9 L72 -9 L54 -9 L54 9 zM18 27 L36 27 L36 9 L18 9 L18 27 zM18 45 L36 45 L36 27 L18 27 L18 45 zM36 36 L54 36 L54 18 L36 18 L36 36 zM45 54 L63 54 L63 36 L45 36 L45 54 zM18 63 L36 63 L36 45 L18 45 L18 63 zM36 63 L54 63 L54 45 L36 45 L36 63 zM0 81 L18 81 L18 63 L0 63 L0 81 zM9 90 L27 90 L27 72 L9 72 L9 90 zM27 90 L45 90 L45 72 L27 72 L27 90 zM45 90 L63 90 L63 72 L45 72 L45 90 zM45 9 L63 9 L63 -9 L45 -9 L45 9 zM18 99 L36 99 L36 81 L18 81 L18 99 zM72 81 L90 81 L90 63 L72 63 L72 81 zM72 63 L90 63 L90 45 L72 45 L72 63 zM72 45 L90 45 L90 27 L72 27 L72 45 zM63 36 L81 36 L81 18 L63 18 L63 36 zM63 90 L81 90 L81 72 L63 72 L63 90 zM81 18 L99 18 L99 0 L81 0 L81 18 zM72 9 L90 9 L90 -9 L72 -9 L72 9 zM45 45 L63 45 L63 27 L45 27 L45 45 z" />
<glyph unicode="匈" horiz-adv-x="127" d="M45 36 L63 36 L63 18 L45 18 L45 36 zM54 27 L72 27 L72 9 L54 9 L54 27 zM27 27 L45 27 L45 9 L27 9 L27 27 zM27 54 L45 54 L45 36 L27 36 L27 54 zM18 45 L36 45 L36 27 L18 27 L18 45 zM18 63 L36 63 L36 45 L18 45 L18 63 zM18 9 L36 9 L36 -9 L18 -9 L18 9 zM36 9 L54 9 L54 -9 L36 -9 L36 9 zM54 9 L72 9 L72 -9 L54 -9 L54 9 zM63 9 L81 9 L81 -9 L63 -9 L63 9 zM18 27 L36 27 L36 9 L18 9 L18 27 zM72 45 L90 45 L90 27 L72 27 L72 45 zM72 63 L90 63 L90 45 L72 45 L72 63 zM72 18 L90 18 L90 0 L72 0 L72 18 zM72 27 L90 27 L90 9 L72 9 L72 27 zM54 54 L72 54 L72 36 L54 36 L54 54 zM0 81 L18 81 L18 63 L0 63 L0 81 zM9 90 L27 90 L27 72 L9 72 L9 90 zM27 90 L45 90 L45 72 L27 72 L27 90 zM45 90 L63 90 L63 72 L45 72 L45 90 zM63 90 L81 90 L81 72 L63 72 L63 90 zM81 90 L99 90 L99 72 L81 72 L81 90 zM90 90 L108 90 L108 72 L90 72 L90 90 zM99 81 L117 81 L117 63 L99 63 L99 81 zM99 63 L117 63 L117 45 L99 45 L99 63 zM99 45 L117 45 L117 27 L99 27 L99 45 zM99 27 L117 27 L117 9 L99 9 L99 27 zM99 9 L117 9 L117 -9 L99 -9 L99 9 zM90 0 L108 0 L108 -18 L90 -18 L90 0 zM18 99 L36 99 L36 81 L18 81 L18 99 z" />
<glyph unicode="化" horiz-adv-x="109" d="M36 45 L27 45 L27 36 L27 36 L27 18 L27 0 L9 0 L9 18 L9 27 L0 27 L0 45 L9 45 L9 54 L18 54 L18 63 L36 63 L36 45 zM99 9 L90 9 L90 0 L72 0 L54 0 L54 9 L45 9 L45 18 L36 18 L36 36 L45 36 L45 54 L63 54 L63 45 L72 45 L72 54 L90 54 L90 36 L72 36 L72 27 L63 27 L63 18 L72 18 L81 18 L81 27 L99 27 L99 9 z" />
<glyph unicode="北" horiz-adv-x="100" d="M90 9 L81 9 L81 0 L63 0 L45 0 L45 9 L36 9 L36 54 L54 54 L54 45 L63 45 L63 54 L81 54 L81 36 L63 36 L63 27 L54 27 L54 18 L63 18 L72 18 L72 27 L90 27 L90 9 zM27 54 L27 45 L27 36 L27 27 L27 9 L18 9 L18 0 L0 0 L0 18 L9 18 L9 27 L0 27 L0 45 L9 45 L9 54 L27 54 z" />
<glyph unicode="匙" horiz-adv-x="136" d="M126 0 L117 0 L117 -9 L99 -9 L81 -9 L81 0 L72 0 L72 45 L90 45 L90 36 L99 36 L99 45 L117 45 L117 27 L99 27 L99 18 L90 18 L90 9 L99 9 L108 9 L108 18 L126 18 L126 0 zM72 45 L54 45 L54 36 L63 36 L63 18 L54 18 L54 9 L36 9 L36 0 L18 0 L18 -9 L0 -9 L0 9 L18 9 L18 18 L9 18 L9 36 L27 36 L27 18 L36 18 L36 27 L36 45 L27 45 L18 45 L9 45 L9 63 L18 63 L18 72 L18 81 L18 90 L18 99 L36 99 L36 90 L45 90 L45 99 L63 99 L63 90 L63 81 L63 72 L63 63 L72 63 C72 57 72 51 72 45 zM36 72 L36 63 L45 63 L45 72 C42 72 39 72 36 72 zM36 -18 L36 0 L54 0 L54 -9 L72 -9 L72 -27 L54 -27 L54 -18 L36 -18 z" />
<glyph unicode="匪" horiz-adv-x="100" d="M36 72 L54 72 L54 54 L54 36 L54 18 L54 0 L54 -18 L36 -18 L36 -9 L27 -9 L27 9 L36 9 L36 18 L27 18 L27 36 L36 36 L36 45 L27 45 L27 63 L36 63 L36 72 zM81 45 L81 36 L90 36 L90 18 L81 18 L81 9 L90 9 L90 -9 L81 -9 L81 -18 L63 -18 L63 0 L63 18 L63 36 L63 54 L63 72 L81 72 L81 63 L90 63 L90 45 L81 45 zM18 -9 L18 -27 L27 -27 L45 -27 L63 -27 L63 -45 L45 -45 L27 -45 L9 -45 L9 -27 L0 -27 L0 -9 L0 9 L0 27 L0 45 L0 63 L0 81 L9 81 L9 99 L27 99 L45 99 L63 99 L63 81 L45 81 L27 81 L18 81 L18 63 L18 45 L18 27 L18 9 L18 -9 z" />
<glyph unicode="匹" horiz-adv-x="91" d="M72 54 L72 45 L81 45 L81 27 L63 27 L63 36 L54 36 L54 54 L45 54 L45 45 L45 36 L45 27 L27 27 L27 36 L27 45 L27 54 L18 54 L18 45 L18 36 L18 27 L18 18 L27 18 L36 18 L45 18 L54 18 L63 18 L72 18 L81 18 L81 0 L72 0 L63 0 L54 0 L45 0 L36 0 L27 0 L18 0 L0 0 L0 9 L0 18 L0 27 L0 36 L0 45 L0 54 L0 72 L18 72 L27 72 L36 72 L45 72 L54 72 L63 72 L72 72 L81 72 L81 54 L72 54 z" />
<glyph unicode="区" horiz-adv-x="82" d="M54 54 L54 45 L45 45 L45 27 L27 27 L27 45 L36 45 L36 54 L27 54 L27 72 L45 72 L45 63 L54 63 L54 72 L72 72 L72 54 L54 54 zM45 18 L63 18 L63 0 L45 0 L27 0 L18 0 L9 0 L0 0 L0 9 L0 18 L0 27 L0 45 L0 63 L0 81 L0 99 L9 99 L18 99 L27 99 L45 99 L63 99 L63 81 L45 81 L27 81 L18 81 L18 63 L18 45 L18 27 L18 18 L27 18 L45 18 zM54 45 L72 45 L72 27 L54 27 L54 45 z" />
<glyph unicode="医" horiz-adv-x="100" d="M72 18 L72 9 L63 9 L63 -9 L45 -9 L45 9 L54 9 L54 18 L45 18 L45 36 L54 36 L54 45 L45 45 L45 36 L27 36 L27 54 L36 54 L36 63 L36 72 L54 72 L54 63 L63 63 L72 63 L81 63 L81 45 L72 45 L72 36 L81 36 L81 18 L72 18 zM72 9 L90 9 L90 -9 L72 -9 L72 9 zM0 90 L18 90 L18 72 L0 72 L0 90 zM0 72 L18 72 L18 54 L0 54 L0 72 zM0 54 L18 54 L18 36 L0 36 L0 54 zM0 36 L18 36 L18 18 L0 18 L0 36 zM0 18 L18 18 L18 0 L0 0 L0 18 zM0 0 L18 0 L18 -18 L0 -18 L0 0 zM0 -9 L18 -9 L18 -27 L0 -27 L0 -9 zM9 99 L27 99 L27 81 L9 81 L9 99 zM27 99 L45 99 L45 81 L27 81 L27 99 zM45 99 L63 99 L63 81 L45 81 L45 99 zM9 -18 L27 -18 L27 -36 L9 -36 L9 -18 zM27 -18 L45 -18 L45 -36 L27 -36 L27 -18 zM45 -18 L63 -18 L63 -36 L45 -36 L45 -18 z" />
<glyph unicode="十" horiz-adv-x="64" d="M54 36 L54 18 L36 18 L36 0 L18 0 L18 18 L0 18 L0 36 L18 36 L18 54 L36 54 L36 36 L54 36 z" />
<glyph unicode="千" horiz-adv-x="46" d="M36 63 L36 45 L27 45 L27 36 L18 36 L9 36 L0 36 L0 54 L9 54 L18 54 L18 63 L36 63 zM27 27 L36 27 L36 9 L27 9 L27 0 L9 0 L9 9 L0 9 L0 27 L9 27 L9 36 L27 36 L27 27 z" />
<glyph unicode="升" horiz-adv-x="73" d="M63 9 L54 9 L54 0 L36 0 L36 9 L27 9 L27 0 L9 0 L9 9 L0 9 L0 27 L9 27 L9 36 L0 36 L0 54 L18 54 L18 63 L36 63 L36 45 L27 45 L27 36 L27 27 L36 27 L36 36 L54 36 L54 27 L63 27 L63 9 z" />
<glyph unicode="午" horiz-adv-x="73" d="M54 36 L54 27 L63 27 L63 9 L54 9 L54 0 L36 0 L36 9 L27 9 L27 27 L36 27 L36 36 L27 36 L18 36 L18 27 L0 27 L0 45 L9 45 L9 45 L9 54 L9 63 L27 63 L27 54 L45 54 L63 54 L63 36 L54 36 z" />
<glyph unicode="半" horiz-adv-x="82" d="M0 72 L18 72 L18 54 L0 54 L0 72 zM54 72 L72 72 L72 54 L54 54 L54 72 zM45 54 L54 54 L54 36 L45 36 L45 27 L54 27 L54 9 L45 9 L45 0 L27 0 L27 9 L18 9 L18 27 L27 27 L27 36 L18 36 L18 54 L27 54 L27 63 L45 63 L45 54 z" />
<glyph unicode="华" horiz-adv-x="109" d="M36 81 L27 81 L27 72 L27 72 L27 54 L27 36 L9 36 L9 54 L9 63 L0 63 L0 81 L9 81 L9 90 L18 90 L18 99 L36 99 L36 81 zM99 54 L90 54 L90 45 L72 45 L54 45 L54 54 L45 54 L45 63 L36 63 L36 81 L45 81 L45 99 L63 99 L63 90 L72 90 L72 99 L90 99 L90 81 L72 81 L72 72 L63 72 L63 63 L72 63 L81 63 L81 72 L99 72 L99 54 zM54 9 L45 9 L45 0 L27 0 L27 9 L18 9 L18 27 L27 27 L27 36 L45 36 L45 27 L54 27 L54 9 z" />
<glyph unicode="卑" horiz-adv-x="82" d="M63 90 L72 90 L72 72 L72 54 L72 36 L72 18 L63 18 L54 18 L45 18 L36 18 L36 9 L27 9 L27 0.288 L36 0.288 L36 9 L54 9 L54 0.288 L63 0.288 L63 -17.712 L54 -17.712 L54 -27 L36 -27 L36 -17.712 L27 -17.712 L27 -9 L9 -9 L9 9 L18 9 L18 18 L0 18 L0 36 L0 54 L0 63 L0 72 L0 81 L9 81 L9 99 L27 99 L27 90 L36 90 L45 90 L54 90 C57 90 60 90 63 90 zM54 72 L45 72 L45 63 L54 63 C54 66 54 69 54 72 zM18 72 L18 63 L27 63 L27 72 C24 72 21 72 18 72 zM18 45 L18 36 L27 36 L27 45 C24 45 21 45 18 45 zM45 36 L54 36 L54 45 L45 45 C45 42 45 39 45 36 z" />
<glyph unicode="卒" horiz-adv-x="109" d="M27 63 L27 45 L18 45 L18 27 L0 27 L0 45 L9 45 L9 63 L27 63 zM45 27 L54 27 L54 18 L63 18 L63 0 L54 0 L54 -9 L36 -9 L36 0 L27 0 L27 18 L36 18 L36 27 L27 27 L27 45 L45 45 L45 27 zM81 63 L81 45 L72 45 L72 27 L54 27 L54 45 L63 45 L63 63 L81 63 zM81 45 L99 45 L99 27 L81 27 L81 45 zM36 72 L18 72 L18 90 L27 90 L27 99 L45 99 L45 90 L54 90 L54 72 L36 72 z" />
<glyph unicode="卓" horiz-adv-x="55" d="M18 9 L27 9 L27 18 L18 18 L18 9 zM18 36 L27 36 L27 45 L18 45 L18 36 zM45 72 L36 72 L36 63 L45 63 L45 45 L45 27 L45 9 L45 -9 L36 -9 L36 -18 L45 -18 L45 -36 L36 -36 L36 -45 L18 -45 L18 -36 L0 -36 L0 -18 L18 -18 L18 -9 L0 -9 L0 9 L0 27 L0 45 L0 63 L18 63 L18 81 L18 99 L36 99 L36 90 L45 90 C45 84 45 78 45 72 z" />
<glyph unicode="单" horiz-adv-x="82" d="M9 99 L27 99 L27 81 L9 81 L9 99 zM45 99 L63 99 L63 81 L45 81 L45 99 zM72 45 C69 45 66 45 63 45 L72 45 C72 39 72 33 72 27 L72 9 L63 9 L63 0 L45 0 L45 -9 L54 -9 L54 -27 L45 -27 L45 -36 L27 -36 L27 -27 L18 -27 L18 -9 L27 -9 L27 0 L9 0 L9 9 L0 9 L0 27 L0 45 L0 63 L9 63 L9 72 L27 72 L45 72 L63 72 L63 63 L72 63 C72 57 72 51 72 45 zM27 45 L27 54 L18 54 L18 45 C21 45 24 45 27 45 zM18 18 L27 18 L27 27 L18 27 C18 24 18 21 18 18 zM54 18 C54 21 54 24 54 27 L45 27 L45 18 C48 18 51 18 54 18 zM45 45 L54 45 L54 54 L45 54 C45 51 45 48 45 45 z" />
<glyph unicode="卖" horiz-adv-x="73" d="M36 45 L0 45 L0 63 L9 63 L9 72 L0 72 L0 90 L9 90 L9 99 L27 99 L27 90 L36 90 L36 72 L27 72 L27 63 L54 63 L54 36 L36 36 L36 45 zM0 36 L18 36 L18 18 L0 18 L0 36 zM0 9 L18 9 L18 -9 L0 -9 L0 9 zM45 -27 L45 -36 L36 -36 L36 -54 L18 -54 L18 -36 L27 -36 L27 -27 L18 -27 L18 -9 L27 -9 L27 0 L45 0 L45 -9 L54 -9 L54 -27 L45 -27 zM45 -36 L63 -36 L63 -54 L45 -54 L45 -36 z" />
<glyph unicode="南" horiz-adv-x="118" d="M108 54 L108 36 L108 18 L108 0 L99 0 L99 -9 L81 -9 L81 9 L90 9 L90 18 L90 36 L90 45 L81 45 L72 45 L54 45 L36 45 L18 45 L18 27 L18 18 L18 9 L18 0 L0 0 L0 9 L0 18 L0 27 L0 45 L0 63 L18 63 L27 63 L27 72 L18 72 L18 90 L27 90 L27 99 L45 99 L45 90 L54 90 L54 72 L45 72 L45 63 L54 63 L72 63 L81 63 L90 63 L99 63 L99 54 L108 54 zM81 27 L81 9 L63 9 L63 0 L72 0 L72 -18 L63 -18 L63 -27 L45 -27 L45 -18 L36 -18 L36 0 L45 0 L45 9 L27 9 L27 18 L27 27 L27 36 L45 36 L45 27 L54 27 L54 36 L72 36 L72 27 L81 27 z" />
<glyph unicode="博" horiz-adv-x="118" d="M0 72 L18 72 L18 54 L0 54 L0 72 zM9 72 L27 72 L27 54 L9 54 L9 72 zM9 54 L27 54 L27 36 L9 36 L9 54 zM9 36 L27 36 L27 18 L9 18 L9 36 zM9 18 L27 18 L27 0 L9 0 L9 18 zM9 90 L27 90 L27 72 L9 72 L9 90 zM18 72 L36 72 L36 54 L18 54 L18 72 zM45 90 L63 90 L63 72 L45 72 L45 90 zM63 81 L81 81 L81 63 L63 63 L63 81 zM63 63 L81 63 L81 45 L63 45 L63 63 zM63 45 L81 45 L81 27 L63 27 L63 45 zM63 27 L81 27 L81 9 L63 9 L63 27 zM45 63 L63 63 L63 45 L45 45 L45 63 zM36 45 L54 45 L54 27 L36 27 L36 45 zM36 27 L54 27 L54 9 L36 9 L36 27 zM45 36 L63 36 L63 18 L45 18 L45 36 zM81 63 L99 63 L99 45 L81 45 L81 63 zM90 45 L108 45 L108 27 L90 27 L90 45 zM36 54 L54 54 L54 36 L36 36 L36 54 zM90 54 L108 54 L108 36 L90 36 L90 54 zM90 27 L108 27 L108 9 L90 9 L90 27 zM81 36 L99 36 L99 18 L81 18 L81 36 zM63 99 L81 99 L81 81 L63 81 L63 99 zM81 90 L99 90 L99 72 L81 72 L81 90 zM90 99 L108 99 L108 81 L90 81 L90 99 zM54 0 L72 0 L72 -18 L54 -18 L54 0 zM81 -9 L99 -9 L99 -27 L81 -27 L81 -9 zM45 -27 L63 -27 L63 -45 L45 -45 L45 -27 zM81 -27 L99 -27 L99 -45 L81 -45 L81 -27 zM72 -36 L90 -36 L90 -54 L72 -54 L72 -36 zM81 9 L99 9 L99 -9 L81 -9 L81 9 zM36 0 L54 0 L54 -18 L36 -18 L36 0 zM90 0 L108 0 L108 -18 L90 -18 L90 0 zM72 0 L90 0 L90 -18 L72 -18 L72 0 z" />
<glyph unicode="卜" horiz-adv-x="55" d="M45 27 L45 9 L27 9 L27 18 L18 18 L18 9 L18 0 L0 0 L0 9 L0 18 L0 27 L0 45 L18 45 L18 36 L27 36 L27 27 L45 27 z" />
<glyph unicode="占" horiz-adv-x="55" d="M45 9 L36 9 L36 0 L18 0 L0 0 L0 18 L0 36 L9 36 L9 45 L9 63 L27 63 L27 54 L36 54 L36 36 L27 36 L27 27 L18 27 L18 18 L27 18 L27 27 L45 27 L45 9 z" />
<glyph unicode="卡" horiz-adv-x="64" d="M36 36 L27 36 L27 18 L27 0 L9 0 L9 18 L9 36 L0 36 L0 54 L9 54 L9 72 L9 90 L27 90 L27 81 L36 81 L36 63 L27 63 L27 54 L36 54 L36 36 zM36 27 L54 27 L54 9 L36 9 L36 27 z" />
<glyph unicode="卫" horiz-adv-x="73" d="M63 72 L63 54 L63 36 L54 36 L54 27 L36 27 L36 45 L45 45 L45 54 L36 54 L27 54 L27 45 L27 36 L27 27 L27 18 L45 18 L45 0 L27 0 L18 0 L9 0 L0 0 L0 18 L9 18 L9 27 L9 36 L9 45 L9 54 L0 54 L0 72 L9 72 L18 72 L27 72 L36 72 L45 72 L54 72 L63 72 z" />
<glyph unicode="卯" horiz-adv-x="118" d="M108 63 L108 45 L108 27 L99 27 L99 18 L81 18 L81 36 L90 36 L90 45 L90 54 L81 54 L72 54 L72 36 L72 27 L72 18 L72 9 L54 9 L54 18 L54 27 L54 36 L54 54 L54 72 L72 72 L81 72 L90 72 L99 72 L99 63 L108 63 zM45 63 L45 45 L45 27 L45 9 L36 9 L36 0 L18 0 L18 18 L27 18 L27 27 L18 27 L9 27 L0 27 L0 45 L0 63 L0 81 L9 81 L9 90 L27 90 L27 72 L18 72 L18 63 L18 45 L27 45 L27 63 L45 63 z" />
<glyph unicode="印" horiz-adv-x="100" d="M0 81 L18 81 L18 63 L0 63 L0 81 zM0 54 L18 54 L18 36 L0 36 L0 54 zM0 72 L18 72 L18 54 L0 54 L0 72 zM0 45 L18 45 L18 27 L0 27 L0 45 zM9 54 L27 54 L27 36 L9 36 L9 54 zM0 27 L18 27 L18 9 L0 9 L0 27 zM9 81 L27 81 L27 63 L9 63 L9 81 zM9 27 L27 27 L27 9 L9 9 L9 27 zM36 72 L54 72 L54 54 L36 54 L36 72 zM36 36 L54 36 L54 18 L36 18 L36 36 zM36 54 L54 54 L54 36 L36 36 L36 54 zM36 18 L54 18 L54 0 L36 0 L36 18 zM72 63 L90 63 L90 45 L72 45 L72 63 zM72 45 L90 45 L90 27 L72 27 L72 45 zM54 72 L72 72 L72 54 L54 54 L54 72 zM63 72 L81 72 L81 54 L63 54 L63 72 zM63 36 L81 36 L81 18 L63 18 L63 36 z" />
<glyph unicode="即" horiz-adv-x="118" d="M108 90 L108 81 L108 72 L108 63 L99 63 L99 54 L81 54 L81 72 L90 72 L90 81 L72 81 L72 63 L72 45 L72 27 L54 27 L54 45 L54 63 L54 81 L54 99 L72 99 L90 99 L90 90 L108 90 zM45 18 L45 0 L54 0 L54 -18 L36 -18 L36 -9 L27 -9 L18 -9 L9 -9 L9 0 L0 0 L0 9 L0 18 L0 27 L0 45 L0 63 L0 81 L0 99 L18 99 L27 99 L36 99 L45 99 L45 81 L45 63 L45 45 L45 27 L36 27 L27 27 L18 27 L18 18 L18 9 L27 9 L27 18 C32.99994 18 39.00006 18 45 18 zM27 81 L18 81 L18 72 L27 72 C27 75.00006 27 77.99994 27 81 zM18 54 L18 45 L27 45 L27 54 C23.99994 54 21.00006 54 18 54 z" />
<glyph unicode="却" horiz-adv-x="136" d="M72 18 L72 0 L54 0 L54 9 L36 9 L18 9 L0 9 L0 27 L9 27 L9 36 L18 36 L18 45 L9 45 L9 63 L18 63 L18 72 L9 72 L9 90 L18 90 L18 99 L36 99 L36 90 L45 90 L45 72 L36 72 L36 63 L45 63 L45 45 L36 45 L36 36 L27 36 L27 27 L36 27 L45 27 L45 36 L63 36 L63 18 L72 18 zM126 81 L126 63 L126 45 L117 45 L117 36 L99 36 L99 54 L108 54 L108 63 L108 72 L99 72 L90 72 L90 54 L90 36 L90 36 L90 18 L72 18 L72 36 L72 36 L72 54 L72 72 L72 90 L90 90 L99 90 L108 90 L117 90 L117 81 L126 81 z" />
<glyph unicode="卷" horiz-adv-x="100" d="M9 99 L27 99 L27 81 L9 81 L9 99 zM63 99 L81 99 L81 81 L63 81 L63 99 zM81 -18 L72 -18 L72 -27 L54 -27 L54 -9 L63 -9 L63 0 L54 0 L45 0 L45 -9 L45 -9.378 L45 -27 L45 -36 L54 -36 L63 -36 L72 -36 L72 -27 L90 -27 L90 -45 L81 -45 L81 -54 L63 -54 L54 -54 L45 -54 L36 -54 L36 -45 L27 -45 L27 -27 L27 -9.378 L27 -9 L27 0 L18 0 L18 -9 L0 -9 L0 9 L9 9 L9 18 L18 18 L18 27 L9 27 L9 45 L27 45 L36 45 L36 54 L27 54 L9 54 L9 72 L27 72 L36 72 L36 90 L54 90 L54 72 L63 72 L81 72 L81 54 L63 54 L54 54 L54 45 L63 45 L81 45 L81 27 L72 27 L72 18 L81 18 L81 9 L90 9 L90 -9 L81 -9 C81 -12 81 -15 81 -18 zM45 18 L54 18 L54 27 L45 27 L36 27 L36 18 L27 18 L27 8.622 L36 8.622 L36 18 C39 18 42 18 45 18 z" />
<glyph unicode="厄" horiz-adv-x="109" d="M99 27 L99 9 L90 9 L90 0 L81 0 L72 0 L63 0 L45 0 L45 9 L36 9 L36 27 L36 27 L36 45 L36 54 L36 63 L45 63 L45 72 L54 72 L63 72 L72 72 L81 72 L81 63 L90 63 L90 45 L90 36 L81 36 L81 27 L63 27 L63 45 L72 45 L72 54 L63 54 L54 54 L54 45 L54 27 L54 27 L54 18 L63 18 L72 18 L81 18 L81 27 L99 27 zM36 81 L27 81 L27 63 L27 45 L18 45 L18 36 L0 36 L0 54 L9 54 L9 63 L9 81 L9 99 L18 99 L27 99 L36 99 L45 99 L54 99 L63 99 L63 81 L54 81 L45 81 L36 81 z" />
<glyph unicode="厅" horiz-adv-x="82" d="M36 63 L27 63 L27 45 L27 27 L18 27 L18 18 L0 18 L0 36 L9 36 L9 45 L9 63 L9 81 L18 81 L27 81 L36 81 L45 81 L54 81 L63 81 L63 63 L54 63 L45 63 L36 63 zM72 54 L72 36 L63 36 L63 27 L63 18 L63 9 L54 9 L54 0 L36 0 L36 18 L45 18 L45 27 L45 36 L36 36 L36 54 L54 54 L72 54 z" />
<glyph unicode="历" horiz-adv-x="100" d="M45 90 L63 90 L63 72 L45 72 L45 90 zM36 90 L54 90 L54 72 L36 72 L36 90 zM18 90 L36 90 L36 72 L18 72 L18 90 zM9 90 L27 90 L27 72 L9 72 L9 90 zM9 72 L27 72 L27 54 L9 54 L9 72 zM9 54 L27 54 L27 36 L9 36 L9 54 zM0 45 L18 45 L18 27 L0 27 L0 45 zM90 54 L90 36 L90 27 L90 18 L90 9 L81 9 L81 0 L63 0 L63 18 L72 18 L72 27 L72 36 L72 45 L63 45 L63 27 L54 27 L54 9 L36 9 L36 27 L45 27 L45 36 L36 36 L36 54 L54 54 L54 63 L72 63 L72 54 L90 54 z" />
<glyph unicode="压" horiz-adv-x="100" d="M45 81 L63 81 L63 63 L45 63 L45 81 zM36 81 L54 81 L54 63 L36 63 L36 81 zM18 81 L36 81 L36 63 L18 63 L18 81 zM9 81 L27 81 L27 63 L9 63 L9 81 zM9 63 L27 63 L27 45 L9 45 L9 63 zM9 45 L27 45 L27 27 L9 27 L9 45 zM0 36 L18 36 L18 18 L0 18 L0 36 zM63 27 L63 18 L72 18 L72 0 L63 0 L54 0 L45 0 L36 0 L36 18 L45 18 L45 27 L36 27 L36 45 L45 45 L45 54 L63 54 L63 45 L72 45 L72 27 L63 27 zM72 36 L90 36 L90 18 L72 18 L72 36 z" />
<glyph unicode="厌" horiz-adv-x="118" d="M0 54 L18 54 L18 36 L0 36 L0 54 zM9 63 L27 63 L27 45 L9 45 L9 63 zM9 81 L27 81 L27 63 L9 63 L9 81 zM27 81 L45 81 L45 63 L27 63 L27 81 zM27 45 L45 45 L45 27 L27 27 L27 45 zM36 45 L54 45 L54 27 L36 27 L36 45 zM36 36 L54 36 L54 18 L36 18 L36 36 zM27 18 L45 18 L45 0 L27 0 L27 18 zM63 18 L81 18 L81 0 L63 0 L63 18 zM36 54 L54 54 L54 36 L36 36 L36 54 zM54 45 L72 45 L72 27 L54 27 L54 45 zM63 72 L81 72 L81 54 L63 54 L63 72 z" />
<glyph unicode="厘" horiz-adv-x="118" d="M81 -36 L90 -36 L90 -54 L81 -54 L72 -54 L63 -54 L54 -54 L54 -36 L63 -36 L63 -27 L81 -27 L81 -36 zM108 45 L90 45 L90 54 L81 54 L81 45 L90 45 L108 45 L108 27 L108 9 L90 9 L90 0 L81 0 L81 -9 L90 -9 L90 -27 L81 -27 L72 -27 L63 -27 L54 -27 L54 -9 L63 -9 L63 0 L54 0 L54 9 L36 9 L36 27 L36 45 L36 54 L36 63 L36 72 C42 72 48 72 54 72 L63 72 L72 72 L81 72 L90 72 L90 63 L108 63 C108 57 108 51 108 45 zM54 54 C54 51 54 48 54 45 L63 45 L63 54 C60 54 57 54 54 54 zM54 18 L63 18 L63 27 L54 27 C54 24 54 21 54 18 zM90 18 L90 27 L81 27 L81 18 C84 18 87 18 90 18 zM81 99 L81 81 L63 81 L45 81 L27 81 L27 72 L27 54 L27 36 L27 18 L18 18 L18 9 L0 9 L0 27 L9 27 L9 36 L9 54 L9 72 L9 81 L9 90 L9 99 L81 99 z" />
<glyph unicode="原" horiz-adv-x="109" d="M81 18 L72 18 L72 9 L72 -9 L63 -9 L63 -18 L45 -18 L45 -9 L27 -9 L27 9 L45 9 L45 0 L54 0 L54 9 L54 18 L36 18 L36 36 L36 54 L36 72 L45 72 L45 81 L27 81 L27 63 L27 54.936 L27 45 L27 42.138 L27 36.936 L27 27 L27 24.138 L27 9 L18 9 L9 9 L0 9 L0 27 L9 27 L9 36.936 L9 42.138 L9 45 L9 54.936 L9 63 L9 81 L9 99 L27 99 L45 99 L54 99 L63 99 L72 99 L72 81 L63 81 L63 72 L81 72 L81 54 L81 36 C81 30 81 24 81 18 zM54 63 L54 54 L63 54 L63 63 C60 63 57 63 54 63 zM54 36 L54 27 L63 27 L63 36 C60 36 57 36 54 36 zM81 9 L99 9 L99 -9 L81 -9 L81 9 z" />
<glyph unicode="去" horiz-adv-x="82" d="M72 18 L72 0 L54 0 L54 9 L36 9 L18 9 L0 9 L0 27 L9 27 L9 36 L18 36 L18 45 L9 45 L9 63 L18 63 L18 72 L9 72 L9 90 L18 90 L18 99 L36 99 L36 90 L45 90 L45 72 L36 72 L36 63 L45 63 L45 45 L36 45 L36 36 L27 36 L27 27 L36 27 L45 27 L45 36 L63 36 L63 18 L72 18 z" />
<glyph unicode="县" horiz-adv-x="82" d="M54 18 L63 18 L63 0 L45 0 L36 0 L27 0 L18 0 L0 0 L0 18 L9 18 L9 27 L9 45 L9 63 L9 81 L9 99 L18 99 L27 99 L36 99 L36 90 L54 90 L54 81 L54 72 L54 63 L54 45 L54 27 C54 24 54 21 54 18 zM27 54 L27 45 L36 45 L36 54 C33 54 30 54 27 54 zM36 81 L27 81 L27 72 L36 72 C36 75 36 78 36 81 zM27 18 L36 18 L36 27 L27 27 C27 24 27 21 27 18 zM72 -27 L72 -45 L54 -45 L54 -36 L36 -36 L18 -36 L18 -27 L9 -27 L9 -9 L18 -9 L18 9 L36 9 L36 -9 L27 -9 L27 -18 L36 -18 L45 -18 L45 -9 L63 -9 L63 -27 L72 -27 z" />
<glyph unicode="叁" horiz-adv-x="81.9856" d="M71.9856 63.0072 L71.9856 45.0108 L53.9892 45.0108 L53.9892 54.009 L44.991 54.009 L26.9946 54.009 L8.9982 54.009 L8.9982 63.0072 L0 63.0072 L0 81.0036 L8.9982 81.0036 L8.9982 90.0018 L17.9964 90.0018 L17.9964 99 L35.9928 99 L35.9928 81.0036 L26.9946 81.0036 L26.9946 72.0054 L44.991 72.0054 L44.991 81.0036 L62.9874 81.0036 L62.9874 72.0054 L62.9874 63.0072 L71.9856 63.0072 zM35.9928 26.9784 L35.9928 17.9802 L26.9946 17.9802 L26.9946 -0.0162 L17.9964 -0.0162 L17.9964 -9.0144 L0 -9.0144 L0 8.982 L8.9982 8.982 L8.9982 17.9802 L17.9964 17.9802 L17.9964 26.9784 L8.9982 26.9784 L8.9982 44.97481 L17.9964 44.97481 L17.9964 53.97301 L35.9928 53.97301 L35.9928 44.97481 L44.991 44.97481 L44.991 26.9784 L35.9928 26.9784 zM62.9874 8.982 L62.9874 -9.0144 L44.991 -9.0144 L44.991 -0.0162 L35.9928 -0.0162 L35.9928 17.9802 L53.9892 17.9802 L53.9892 8.982 L62.9874 8.982 zM44.991 -9.0144 L44.991 -27.0108 L35.9928 -27.0108 L26.9946 -27.0108 L17.9964 -27.0108 L17.9964 -9.0144 L26.9946 -9.0144 L35.9928 -9.0144 L44.991 -9.0144 zM35.9928 -36.009 L44.991 -36.009 L44.991 -54.0054 L35.9928 -54.0054 L26.9946 -54.0054 L17.9964 -54.0054 L17.9964 -36.009 L26.9946 -36.009 L35.9928 -36.009 zM35.9928 -63.0036 L44.991 -63.0036 L44.991 -81 L35.9928 -81 L26.9946 -81 L17.9964 -81 L17.9964 -63.0036 L26.9946 -63.0036 L35.9928 -63.0036 z" />
<glyph unicode="参" horiz-adv-x="82" d="M72 63 L72 45 L54 45 L54 54 L45 54 L27 54 L9 54 L9 63 L0 63 L0 81 L9 81 L9 90 L18 90 L18 99 L36 99 L36 81 L27 81 L27 72 L45 72 L45 81 L63 81 L63 72 L63 63 L72 63 zM36 -18 L36 -27 L45 -27 L45 -45 L36 -45 L36 -54 L45 -54 L45 -72 L36 -72 L36 -81 L18 -81 L18 -63 L27 -63 L27 -54 L18 -54 L18 -36 L27 -36 L27 -27 L18 -27 L18 -9 L27 -9 L27 0 L45 0 L45 -18 L36 -18 zM36 27 L36 18 L27 18 L27 0 L18 0 L18 -9 L0 -9 L0 9 L9 9 L9 18 L18 18 L18 27 L9 27 L9 45 L18 45 L18 54 L36 54 L36 45 L45 45 L45 27 L36 27 zM72 9 L72 -9 L54 -9 L54 0 L45 0 L45 18 L63 18 L63 9 L72 9 z" />
<glyph unicode="又" horiz-adv-x="73" d="M63 18 L63 0 L45 0 L45 9 L36 9 L36 18 L27 18 L27 9 L18 9 L18 0 L0 0 L0 18 L9 18 L9 27 L27 27 L27 36 L36 36 L36 45 L27 45 L27 36 L9 36 L9 45 L0 45 L0 63 L18 63 L27 63 L36 63 L45 63 L45 54 L54 54 L54 36 L45 36 L45 27 L54 27 L54 18 L63 18 z" />
<glyph unicode="叉" horiz-adv-x="165.07" d="M17.982 36.036 C17.982 32.004 17.982 25.974 17.982 17.964 C14.004 17.964 8.01 17.964 0 17.964 C0 21.996 0 28.026 0 36.036 C3.978 36.036 9.972 36.036 17.982 36.036 zM17.982 26.946 C17.982 22.968 17.982 16.974 17.982 8.964 C14.004 8.964 8.01 8.964 0 8.964 C0 13.014 0 18.99 0 26.946 C3.978 26.946 9.972 26.946 17.982 26.946 zM26.964 45.018 C26.964 40.986 26.964 34.956 26.964 26.946 C22.986 26.946 16.992 26.946 8.982 26.946 C8.982 30.978 8.982 37.008 8.982 45.018 C13.014 45.018 19.008 45.018 26.964 45.018 zM26.964 17.964 C26.964 13.986 26.964 7.992 26.964 -0.018 C22.986 -0.018 16.992 -0.018 8.982 -0.018 C8.982 3.96 8.982 9.936 8.982 17.964 C13.014 17.964 19.008 17.964 26.964 17.964 zM36.054 45.018 C36.054 40.986 36.054 34.956 36.054 26.946 C32.022 26.946 25.992 26.946 17.982 26.946 C17.982 30.978 17.982 37.008 17.982 45.018 C22.014 45.018 28.044 45.018 36.054 45.018 zM36.054 17.964 C36.054 13.986 36.054 7.992 36.054 -0.018 C32.022 -0.018 25.992 -0.018 17.982 -0.018 C17.982 3.96 17.982 9.936 17.982 17.964 C22.014 17.964 28.044 17.964 36.054 17.964 zM64.008 63 C64.008 59.022 64.008 53.028 64.008 45.018 C60.03 45.018 54.036 45.018 46.026 45.018 C46.026 48.996 46.026 54.99 46.026 63 C50.004 63 55.998 63 64.008 63 zM64.008 54.018 C64.008 50.04 64.008 44.046 64.008 36.036 C60.03 36.036 54.036 36.036 46.026 36.036 C46.026 40.014 46.026 45.99 46.026 54.018 C50.004 54.018 55.998 54.018 64.008 54.018 zM64.008 36.036 C64.008 32.004 64.008 25.974 64.008 17.964 C60.03 17.964 54.036 17.964 46.026 17.964 C46.026 21.996 46.026 28.026 46.026 36.036 C50.004 36.036 55.998 36.036 64.008 36.036 zM64.008 17.964 C64.008 13.986 64.008 7.992 64.008 -0.018 C60.03 -0.018 54.036 -0.018 46.026 -0.018 C46.026 3.96 46.026 9.936 46.026 17.964 C50.004 17.964 55.998 17.964 64.008 17.964 zM82.062 36.036 C82.062 32.004 82.062 25.974 82.062 17.964 C78.03 17.964 72 17.964 63.99 17.964 C63.99 21.996 63.99 28.026 63.99 36.036 C68.022 36.036 74.052 36.036 82.062 36.036 zM91.062 26.946 C91.062 22.968 91.062 16.974 91.062 8.964 C87.03 8.964 81 8.964 72.99 8.964 C72.99 13.014 72.99 18.99 72.99 26.946 C77.022 26.946 83.052 26.946 91.062 26.946 zM91.062 17.964 C91.062 13.986 91.062 7.992 91.062 -0.018 C87.03 -0.018 81 -0.018 72.99 -0.018 C72.99 3.96 72.99 9.936 72.99 17.964 C77.022 17.964 83.052 17.964 91.062 17.964 zM119.016 26.946 C119.016 22.968 119.016 16.974 119.016 8.964 C115.038 8.964 109.044 8.964 101.034 8.964 C101.034 13.014 101.034 18.99 101.034 26.946 C105.012 26.946 111.006 26.946 119.016 26.946 zM119.016 17.964 C119.016 13.986 119.016 7.992 119.016 -0.018 C115.038 -0.018 109.044 -0.018 101.034 -0.018 C101.034 3.96 101.034 9.936 101.034 17.964 C105.012 17.964 111.006 17.964 119.016 17.964 zM127.998 63 C127.998 59.022 127.998 53.028 127.998 45.018 C124.02 45.018 118.026 45.018 110.016 45.018 C110.016 48.996 110.016 54.99 110.016 63 C114.048 63 120.042 63 127.998 63 zM127.998 36.036 C127.998 32.004 127.998 25.974 127.998 17.964 C124.02 17.964 118.026 17.964 110.016 17.964 C110.016 21.996 110.016 28.026 110.016 36.036 C114.048 36.036 120.042 36.036 127.998 36.036 zM127.998 8.964 C127.998 4.986 127.998 -1.008 127.998 -9.018 C124.02 -9.018 118.026 -9.018 110.016 -9.018 C110.016 -5.04 110.016 0.954 110.016 8.964 C114.048 8.964 120.042 8.964 127.998 8.964 zM137.088 63 C137.088 59.022 137.088 53.028 137.088 45.018 C133.056 45.018 127.026 45.018 119.016 45.018 C119.016 48.996 119.016 54.99 119.016 63 C123.048 63 129.078 63 137.088 63 zM137.088 36.036 C137.088 32.004 137.088 25.974 137.088 17.964 C133.056 17.964 127.026 17.964 119.016 17.964 C119.016 21.996 119.016 28.026 119.016 36.036 C123.048 36.036 129.078 36.036 137.088 36.036 zM137.088 8.964 C137.088 4.986 137.088 -1.008 137.088 -9.018 C133.056 -9.018 127.026 -9.018 119.016 -9.018 C119.016 -5.04 119.016 0.954 119.016 8.964 C123.048 8.964 129.078 8.964 137.088 8.964 zM146.07 54.018 C146.07 50.04 146.07 44.046 146.07 36.036 C142.038 36.036 136.008 36.036 127.998 36.036 C127.998 40.014 127.998 45.99 127.998 54.018 C132.03 54.018 138.06 54.018 146.07 54.018 zM146.07 45.018 C146.07 40.986 146.07 34.956 146.07 26.946 C142.038 26.946 136.008 26.946 127.998 26.946 C127.998 30.978 127.998 37.008 127.998 45.018 C132.03 45.018 138.06 45.018 146.07 45.018 zM146.07 26.946 C146.07 22.968 146.07 16.974 146.07 8.964 C142.038 8.964 136.008 8.964 127.998 8.964 C127.998 13.014 127.998 18.99 127.998 26.946 C132.03 26.946 138.06 26.946 146.07 26.946 zM155.07 -0.018 C155.07 -3.996 155.07 -9.99 155.07 -18 C151.092 -18 145.098 -18 137.088 -18 C137.088 -14.022 137.088 -8.028 137.088 -0.018 C141.066 -0.018 147.06 -0.018 155.07 -0.018 zM110.052 90 L128.052 90 L128.052 72 L110.052 72 L110.052 90 zM128.052 90 L146.052 90 L146.052 72 L128.052 72 L128.052 90 z" />
<glyph unicode="及" horiz-adv-x="91" d="M63 18.414 L81 18.414 L81 0.414 L63 0.414 L63 18 L54 18 L54 0 L36 0 L36 18 L45 18 L45 27 L27 27 L27 18 L18 18 L18 9 L0 9 L0 27 L9 27 L9 36 L18 36 L18 54 L9 54 L9 72 L27 72 L45 72 L63 72 L63 63 L63 54 L72 54 L72 36 L63 36 C63 30.138 63 24.276 63 18.414 zM36 45 L45 45 L45 54 L36 54 C36 51 36 48 36 45 zM45 36 L54 36 L54 45 L45 45 C45 42 45 39 45 36 z" />
<glyph unicode="友" horiz-adv-x="82" d="M27 63 L27 45 L18 45 L18 27 L0 27 L0 45 L9 45 L9 63 L0 63 L0 81 L18 81 L18 90 L36 90 L36 81 L45 81 L45 63 L36 63 L27 63 zM63 27 L63 18 L72 18 L72 0 L54 0 L54 9 L45 9 L45 0 L27 0 L27 18 L45 18 L45 27 L54 27 L54 36 L45 36 L45 27 L27 27 L27 45 L36 45 L36 54 L45 54 L54 54 L63 54 L63 45 L72 45 L72 27 L63 27 z" />
<glyph unicode="双" horiz-adv-x="127.378" d="M117.378 18 L117.378 0 L99.378 0 L99.378 9 L90.378 9 L90.378 18 L81.378 18 L81.378 9 L72.378 9 L72.378 0 L54.378 0 L54.378 18 L63.378 18 L63.378 27 L81.378 27 L81.378 36 L90.378 36 L90.378 45 L81.378 45 L81.378 36 L63.378 36 L63.378 45 L54.378 45 L54.378 63 L72.378 63 L81.378 63 L90.378 63 L99.378 63 L99.378 54 L108.378 54 L108.378 36 L99.378 36 L99.378 27 L108.378 27 L108.378 18 L117.378 18 zM36 36 L36 27 L45 27 L45 9 L27 9 L27 18 L18 18 L18 9 L0 9 L0 27 L18 27 L18 36 L27 36 L27 45 L18 45 L18 36 L0 36 L0 54 L9 54 L9 63 L18 63 L27 63 L36 63 L36 54 L45 54 L45 36 L36 36 z" />
</font>
</svg>
